SplineFontDB: 3.0
FontName: TeXGyrePagella-BoldItalic
FullName: TeXGyrePagella-BoldItalic
FamilyName: TeXGyrePagella
Weight: Bold
Copyright: Copyright 2006-2018 for TeX Gyre extensions by B. Jackowski, J.M. Nowacki, et al. (on behalf of TeX USERS GROUPS). Vietnamese characters were added by Han The Thanh.
UComments: "2018-5-8: Created with FontForge (http://fontforge.org)"
Version: 2.501
ItalicAngle: -10
UnderlinePosition: -100
UnderlineWidth: 50
Ascent: 750
Descent: 250
InvalidEm: 0
sfntRevision: 0x00028042
LayerCount: 2
Layer: 0 0 "Back" 1
Layer: 1 0 "Fore" 0
XUID: [1021 53 -355012707 30101]
StyleMap: 0x0021
FSType: 0
OS2Version: 0
OS2_WeightWidthSlopeOnly: 0
OS2_UseTypoMetrics: 1
CreationTime: 1525771597
ModificationTime: 1525771603
PfmFamily: 16
TTFWeight: 700
TTFWidth: 5
LineGap: 0
VLineGap: 90
Panose: 2 0 7 3 2 2 0 0 0 4
OS2TypoAscent: 726
OS2TypoAOffset: 0
OS2TypoDescent: -271
OS2TypoDOffset: 0
OS2TypoLinegap: 0
OS2WinAscent: 0
OS2WinAOffset: 1
OS2WinDescent: 0
OS2WinDOffset: 1
HheadAscent: 726
HheadAOffset: 0
HheadDescent: -271
HheadDOffset: 0
OS2SubXSize: 650
OS2SubYSize: 699
OS2SubXOff: 0
OS2SubYOff: 140
OS2SupXSize: 650
OS2SupYSize: 699
OS2SupXOff: 0
OS2SupYOff: 479
OS2StrikeYSize: 49
OS2StrikeYPos: 258
Lookup: 3 0 0 "'aalt' Access All Alternates lookup 0" { "'aalt' Access All Alternates lookup 0 subtable"  } ['aalt' ('DFLT' <'dflt' > ) ]
Lookup: 3 0 0 "'aalt' Access All Alternates in Latin lookup 0" { "'aalt' Access All Alternates in Latin lookup 0 subtable"  } ['aalt' ('latn' <'ROM ' 'MOL ' 'dflt' 'AZE ' 'CRT ' 'NLD ' 'PLK ' 'TRK ' > ) ]
Lookup: 2 0 0 "ccmp_decomp_sub" { "ccmp_decomp_sub subtable"  } []
Lookup: 1 0 0 "locl_ROM" { "locl_ROM subtable"  } ['locl' ('latn' <'ROM ' 'MOL ' > ) ]
Lookup: 1 0 0 "'smcp' Lowercase to Small Capitals in Latin lookup 2" { "'smcp' Lowercase to Small Capitals in Latin lookup 2 subtable"  } ['smcp' ('latn' <'dflt' 'AZE ' 'CRT ' 'MOL ' 'NLD ' 'PLK ' 'ROM ' 'TRK ' > 'DFLT' <'dflt' > ) ]

StartChar: acute
Encoding: 256 180 0
Width: 333
VWidth: 0
Flags: W
TeX: 699 0
HStem: 518 181
VStem: 130 239
LayerCount: 2
Fore
SplineSet
130 518 m 1
 271 669 l 2
 291 690 306 699 322 699 c 0
 348 699 369 679 369 654 c 0
 369 634 361 623 333 607 c 2
 179 518 l 1
 130 518 l 1
EndSplineSet
Validated: 1
EndChar

StartChar: acute.cap
Encoding: 257 -1 1
Width: 333
VWidth: 0
Flags: W
TeX: 665 0
HStem: 590 75<338 370.628>
VStem: 118 258
LayerCount: 2
Fore
SplineSet
118 518 m 1
 270 641 l 2
 292 658 309 664 327 665 c 0
 354 665 376 649 376 629 c 0
 376 614 368 603 338 590 c 2
 171 518 l 1
 118 518 l 1
EndSplineSet
Validated: 1
EndChar

StartChar: circumflex
Encoding: 258 710 2
Width: 333
VWidth: 0
Flags: W
TeX: 684 0
HStem: 522 174
VStem: 67 327
LayerCount: 2
Fore
SplineSet
67 522 m 1
 227 696 l 1
 308 696 l 1
 394 522 l 1
 343 522 l 1
 255 617 l 1
 124 522 l 1
 67 522 l 1
EndSplineSet
Validated: 1
EndChar

StartChar: circumflex.cap
Encoding: 259 -1 3
Width: 333
VWidth: 0
Flags: W
TeX: 663 0
HStem: 522 141
LayerCount: 2
Fore
SplineSet
49 522 m 1
 222 663 l 1
 309 663 l 1
 402 522 l 1
 347 522 l 1
 252 599 l 1
 110 522 l 1
 49 522 l 1
EndSplineSet
Validated: 1
EndChar

StartChar: dieresis
Encoding: 260 168 4
Width: 333
VWidth: 0
Flags: W
TeX: 668 0
HStem: 544 131<100.625 185.49 313.625 398.49>
VStem: 81 123<562.267 655.023> 294 123<562.267 655.023>
LayerCount: 2
Fore
SplineSet
81 601 m 0
 81 642 111 675 148 675 c 0
 181 675 204 650 204 615 c 0
 204 574 175 544 135 544 c 0
 102 544 81 566 81 601 c 0
294 601 m 0
 294 642 324 675 361 675 c 0
 394 675 417 650 417 615 c 0
 417 574 388 544 348 544 c 0
 315 544 294 566 294 601 c 0
EndSplineSet
Validated: 1
EndChar

StartChar: breve
Encoding: 261 728 5
Width: 333
VWidth: 0
Flags: W
TeX: 681 0
HStem: 528 72<179.938 333.239> 670 20G<108 153.5 370.5 424>
VStem: 108 43<630.639 690>
LayerCount: 2
Fore
SplineSet
108 690 m 1
 151 690 l 1
 156 628 188 600 255 600 c 0
 319 600 356 626 385 690 c 1
 424 690 l 1
 414 642 405 619 386 594 c 0
 354 552 302 528 240 528 c 0
 193 528 161 541 139 570 c 0
 117 598 109 629 108 690 c 1
EndSplineSet
Validated: 1
EndChar

StartChar: breve.cap
Encoding: 262 -1 6
Width: 333
VWidth: 0
Flags: W
TeX: 658 0
HStem: 526 59<163.856 342.504>
VStem: 92 47<610.17 658>
LayerCount: 2
Fore
SplineSet
92 658 m 1
 139 658 l 1
 144 607 178 585 250 585 c 0
 320 585 360 605 391 658 c 1
 433 658 l 1
 408 566 342 526 235 526 c 0
 140 526 94 562 92 658 c 1
EndSplineSet
Validated: 1
EndChar

StartChar: dotaccent
Encoding: 263 729 7
Width: 333
VWidth: 0
Flags: W
TeX: 668 0
HStem: 544 131<211.625 296.49>
VStem: 192 123<562.267 655.023>
LayerCount: 2
Fore
SplineSet
192 601 m 0
 192 642 222 675 259 675 c 0
 292 675 315 650 315 615 c 0
 315 574 286 544 246 544 c 0
 213 544 192 566 192 601 c 0
EndSplineSet
Validated: 1
EndChar

StartChar: macron
Encoding: 264 175 8
Width: 333
VWidth: 0
Flags: W
TeX: 608 0
HStem: 574 70<100 409>
LayerCount: 2
Fore
SplineSet
83 574 m 1
 100 644 l 1
 425 644 l 1
 409 574 l 1
 83 574 l 1
EndSplineSet
Validated: 1
AlternateSubs2: "'aalt' Access All Alternates lookup 0 subtable" macron.alt
AlternateSubs2: "'aalt' Access All Alternates in Latin lookup 0 subtable" macron.alt
Substitution2: "'ss04' Style Set 4 in Latin lookup 18 subtable" macron.alt
Substitution2: "'ss01' Style Set 1 in Latin lookup 15 subtable" macron.alt
Substitution2: "'salt' Stylistic Alternatives in Latin lookup 14 subtable" macron.alt
EndChar

StartChar: ring
Encoding: 265 730 9
Width: 333
VWidth: 0
Flags: W
TeX: 714 0
HStem: 509 50<212.691 295.309> 659 50<213.113 294.307>
VStem: 154 50<567.889 649.277> 304 50<567.691 649.962>
LayerCount: 2
Fore
SplineSet
154 610 m 0
 154 665 199 709 256 709 c 0
 309 709 354 663 354 609 c 0
 354 554 309 509 254 509 c 0
 199 509 154 554 154 610 c 0
204 609 m 0
 204 581 226 559 254 559 c 0
 282 559 304 581 304 609 c 0
 304 636 282 659 255 659 c 0
 226 659 204 637 204 609 c 0
EndSplineSet
Validated: 1
EndChar

StartChar: hungarumlaut
Encoding: 266 733 10
Width: 333
VWidth: 0
Flags: W
TeX: 699 0
HStem: 519 181<230 270>
LayerCount: 2
Fore
SplineSet
52 519 m 1
 189 666 l 2
 210 689 230 700 248 700 c 0
 270 700 292 676 292 653 c 0
 292 636 277 619 243 600 c 2
 101 519 l 1
 52 519 l 1
229 519 m 1
 366 666 l 2
 387 689 407 700 425 700 c 0
 447 700 469 676 469 653 c 0
 469 636 454 619 420 600 c 2
 278 519 l 1
 229 519 l 1
EndSplineSet
Validated: 1
EndChar

StartChar: caron
Encoding: 267 711 11
Width: 333
VWidth: 0
Flags: W
TeX: 684 0
HStem: 522 174
VStem: 110 332
LayerCount: 2
Fore
SplineSet
110 696 m 1
 160 696 l 1
 251 599 l 1
 386 696 l 1
 442 696 l 1
 280 522 l 1
 198 522 l 1
 110 696 l 1
EndSplineSet
Validated: 1
EndChar

StartChar: tilde
Encoding: 268 732 12
Width: 333
VWidth: 0
Flags: W
TeX: 654 0
HStem: 550 77<270.92 380.315> 594 75<126.444 235.575>
VStem: 74 40<550 581.012>
LayerCount: 2
Fore
SplineSet
74 550 m 1xa0
 92 629 132 669 192 669 c 0x60
 218 669 235 665 268 650 c 0
 301 635 326 627 343 627 c 0xa0
 365 627 378 638 392 669 c 1
 433 669 l 1x60
 412 588 375 550 318 550 c 0xa0
 295 550 282 554 236 572 c 0
 194 589 177 594 160 594 c 0x60
 140 594 129 584 114 550 c 1
 74 550 l 1xa0
EndSplineSet
Validated: 1
EndChar

StartChar: space_uni0309.cap
Encoding: 269 -1 13
Width: 173
VWidth: 0
Flags: W
TeX: 726 0
HStem: 686 40<209.818 282.261>
VStem: 176 28<654 663> 209 31<542.567 577.019> 283 66<630.282 684.469>
LayerCount: 2
Fore
SplineSet
176 655 m 1
 200 708 l 1
 229 722 243 726 266 726 c 0
 316 726 349 702 349 665 c 0
 349 643 338 627 314 613 c 2
 268 585 l 2
 245 571 240 567 240 560 c 0
 240 557 243 552 252 544 c 1
 234 532 l 1
 227 537 209 554 209 567 c 0
 209 578 218 592 234 606 c 2
 261 630 l 2
 276 642 283 651 283 663 c 0
 283 677 269 686 248 686 c 0
 231 686 217 682 207 662 c 1
 207 663 l 1
 204 651 l 1
 176 655 l 1
EndSplineSet
Validated: 1
EndChar

StartChar: space_uni0309
Encoding: 270 -1 14
Width: 173
VWidth: 0
Flags: W
TeX: 289 0
HStem: 693 44<209.721 282.833>
VStem: 176 28<657 667> 209 31<532.209 571.444> 283 66<630.055 690.5>
LayerCount: 2
Fore
SplineSet
176 658 m 1
 201 717 l 1
 230 733 244 737 267 737 c 0
 317 737 350 710 349 669 c 0
 349 645 338 627 314 611 c 2
 268 580 l 2
 245 565 240 560 240 553 c 0
 240 549 243 544 252 535 c 1
 234 521 l 1
 225 525 209 546 209 560 c 0
 209 573 218 588 234 604 c 2
 261 630 l 2
 276 644 283 654 283 667 c 0
 284 683 270 693 249 693 c 0
 232 693 217 688 207 667 c 1
 204 654 l 1
 176 658 l 1
EndSplineSet
Validated: 33
EndChar

StartChar: cedilla
Encoding: 271 184 15
Width: 333
VWidth: 0
Flags: W
TeX: 5 -218
HStem: -218 41<29.8029 148.832>
VStem: 156 92<-170.218 -104.938>
LayerCount: 2
Fore
SplineSet
12 -193 m 1
 34 -160 l 1
 63 -173 79 -177 101 -177 c 0
 135 -177 156 -162 156 -137 c 0
 156 -113 139 -100 108 -100 c 0
 98 -100 91 -101 79 -104 c 1
 66 -92 l 1
 134 5 l 1
 178 5 l 1
 132 -62 l 1
 142 -60 149 -59 158 -59 c 0
 211 -59 248 -89 248 -131 c 0
 248 -182 196 -218 125 -218 c 0
 86 -218 57 -212 12 -193 c 1
EndSplineSet
Validated: 1
EndChar

StartChar: ogonek
Encoding: 272 731 16
Width: 333
VWidth: 0
Flags: W
TeX: 14 -250
HStem: -250 85<68 156.034>
VStem: 35 211
LayerCount: 2
Fore
SplineSet
35 -149 m 0
 47 -81 126 -23 191 15 c 1
 236 15 l 1
 182 -18 125 -70 114 -132 c 0
 109 -159 129 -165 151 -165 c 0
 162 -165 192 -153 216 -136 c 2
 239 -120 l 1
 246 -150 l 1
 178 -224 131 -250 89 -250 c 0
 47 -250 23 -216 35 -149 c 0
EndSplineSet
Validated: 33
EndChar

StartChar: dotlessi
Encoding: 273 305 17
Width: 333
VWidth: 0
GlyphClass: 2
Flags: W
TeX: 452 0
HStem: -17 82<89.5 197.5> 449 20G<224.5 246.5>
VStem: 67 114<12.2499 142.273> 140 124<319.035 435.953>
AnchorPoint: "bot_acc" 104 -157 basechar 0
AnchorPoint: "dotbelow" 104 -157 basechar 0
AnchorPoint: "ogon_acc" 104 -157 basechar 0
AnchorPoint: "top_accl" 240 609 basechar 0
AnchorPoint: "dotabove" 240 609 basechar 0
LayerCount: 2
Fore
SplineSet
26 346 m 1xd0
 89 393 l 2
 151 439 210 469 239 469 c 0
 254 469 264 454 264 432 c 0xd0
 264 413 260 384 255 365 c 2
 201 169 l 2
 188 123 181 89 181 76 c 0
 181 70 186 65 192 65 c 0
 203 65 219 73 254 95 c 2
 281 112 l 1
 293 84 l 1
 282 76 278 74 265 64 c 0
 184 6 137 -17 99 -17 c 0
 80 -17 67 0 67 26 c 0xe0
 67 42 70 64 73 78 c 2
 132 319 l 2
 138 344 140 353 140 360 c 0
 140 366 136 370 130 370 c 0
 121 370 81 350 61 336 c 2
 39 320 l 1
 26 346 l 1xd0
EndSplineSet
Validated: 1
AlternateSubs2: "'aalt' Access All Alternates lookup 0 subtable" dotlessi.sc
AlternateSubs2: "'aalt' Access All Alternates in Latin lookup 0 subtable" dotlessi.sc
Substitution2: "'smcp' Lowercase to Small Capitals in Latin lookup 2 subtable" dotlessi.sc
EndChar

StartChar: i
Encoding: 105 105 18
Width: 333
VWidth: 0
GlyphClass: 2
Flags: W
TeX: 668 0
HStem: -17 82<89.5 197.5> 449 20G<224.5 246.5> 544 131<196.625 281.49>
VStem: 67 114<12.2499 142.273> 140 124<319.035 435.953> 177 123<562.267 655.023>
AnchorPoint: "bot_acc" 104 -157 basechar 0
AnchorPoint: "dotbelow" 104 -157 basechar 0
AnchorPoint: "ogon_acc" 104 -157 basechar 0
LayerCount: 2
Fore
SplineSet
26 346 m 1xe8
 89 393 l 2
 151 439 210 469 239 469 c 0
 254 469 264 454 264 432 c 0xe8
 264 413 260 384 255 365 c 2
 201 169 l 2
 188 123 181 89 181 76 c 0
 181 70 186 65 192 65 c 0
 203 65 219 73 254 95 c 2
 281 112 l 1
 293 84 l 1
 282 76 278 74 265 64 c 0
 184 6 137 -17 99 -17 c 0
 80 -17 67 0 67 26 c 0xf0
 67 42 70 64 73 78 c 2
 132 319 l 2
 138 344 140 353 140 360 c 0
 140 366 136 370 130 370 c 0
 121 370 81 350 61 336 c 2
 39 320 l 1
 26 346 l 1xe8
177 601 m 0xe4
 177 642 207 675 244 675 c 0
 277 675 300 650 300 615 c 0
 300 574 271 544 231 544 c 0
 198 544 177 566 177 601 c 0xe4
EndSplineSet
Validated: 1
AlternateSubs2: "'aalt' Access All Alternates lookup 0 subtable" dotlessi i.sc
AlternateSubs2: "'aalt' Access All Alternates in Latin lookup 0 subtable" dotlessi i.sc
Substitution2: "ccmp_sub_acc subtable" dotlessi
Substitution2: "'smcp' Lowercase to Small Capitals in Latin lookup 2 subtable" i.sc
EndChar

StartChar: dotlessj
Encoding: 274 567 19
Width: 333
VWidth: 0
GlyphClass: 2
Flags: W
TeX: 452 -271
HStem: -271 54<-32.2119 30.9573> 449 20G<234 256>
VStem: 150 124<312.812 434.484>
AnchorPoint: "bot_acc" 67 -428 basechar 0
AnchorPoint: "dotbelow" 67 -428 basechar 0
AnchorPoint: "ogon_acc" 3 -428 basechar 0
AnchorPoint: "top_accl" 250 609 basechar 0
AnchorPoint: "dotabove" 250 609 basechar 0
LayerCount: 2
Fore
SplineSet
-64 -266 m 1
 -59 -238 -56 -219 -54 -187 c 1
 -40 -184 l 1
 -26 -207 -12 -217 4 -217 c 0
 24 -217 39 -193 50 -139 c 2
 136 269 l 2
 146 316 150 342 150 357 c 0
 150 366 147 370 140 370 c 0
 131 370 91 350 71 336 c 2
 49 320 l 1
 36 346 l 1
 99 393 l 2
 161 439 220 469 248 469 c 0
 264 469 274 454 274 429 c 0
 274 410 271 390 265 365 c 2
 198 91 l 2
 164 -46 133 -126 88 -188 c 0
 48 -245 10 -271 -30 -271 c 0
 -40 -271 -48 -270 -64 -266 c 1
EndSplineSet
Validated: 1
AlternateSubs2: "'aalt' Access All Alternates lookup 0 subtable" dotlessj.sc
AlternateSubs2: "'aalt' Access All Alternates in Latin lookup 0 subtable" dotlessj.sc
Substitution2: "'smcp' Lowercase to Small Capitals in Latin lookup 2 subtable" dotlessj.sc
EndChar

StartChar: j
Encoding: 106 106 20
Width: 333
VWidth: 0
GlyphClass: 2
Flags: W
TeX: 668 -271
HStem: -271 54<-32.2119 30.9573> 449 20G<234 256> 544 131<207.625 292.49>
VStem: 150 124<312.812 434.484> 188 123<562.267 655.023>
AnchorPoint: "bot_acc" 67 -428 basechar 0
AnchorPoint: "dotbelow" 67 -428 basechar 0
AnchorPoint: "ogon_acc" 3 -428 basechar 0
LayerCount: 2
Fore
SplineSet
-64 -266 m 1xf0
 -59 -238 -56 -219 -54 -187 c 1
 -40 -184 l 1
 -26 -207 -12 -217 4 -217 c 0
 24 -217 39 -193 50 -139 c 2
 136 269 l 2
 146 316 150 342 150 357 c 0
 150 366 147 370 140 370 c 0
 131 370 91 350 71 336 c 2
 49 320 l 1
 36 346 l 1
 99 393 l 2
 161 439 220 469 248 469 c 0
 264 469 274 454 274 429 c 0
 274 410 271 390 265 365 c 2
 198 91 l 2
 164 -46 133 -126 88 -188 c 0
 48 -245 10 -271 -30 -271 c 0
 -40 -271 -48 -270 -64 -266 c 1xf0
188 601 m 0xe8
 188 642 218 675 255 675 c 0
 288 675 311 650 311 615 c 0
 311 574 282 544 242 544 c 0
 209 544 188 566 188 601 c 0xe8
EndSplineSet
Validated: 1
AlternateSubs2: "'aalt' Access All Alternates lookup 0 subtable" dotlessj j.sc
AlternateSubs2: "'aalt' Access All Alternates in Latin lookup 0 subtable" dotlessj j.sc
Substitution2: "ccmp_sub_acc subtable" dotlessj
Substitution2: "'smcp' Lowercase to Small Capitals in Latin lookup 2 subtable" j.sc
EndChar

StartChar: f_f
Encoding: 275 64256 21
Width: 593
VWidth: 0
GlyphClass: 3
Flags: W
TeX: 726 -271
HStem: -271 75<-102.88 -12 157.12 248> 403 59<512.007 627.846> 403 51<250 385 510 626.225> 403 25<39 78.7245> 646 80<313.5 409 573.5 669>
LayerCount: 2
Fore
SplineSet
-130 -262 m 1x98
 -119 -238 -103 -183 -98 -155 c 1
 -81 -152 l 1
 -67 -183 -52 -196 -30 -196 c 0
 6 -196 17 -168 46 -14 c 2
 125 403 l 1
 34 403 l 1
 39 428 l 1x98
 73 439 107 448 139 463 c 1
 140 469 141 472 143 483 c 0
 155 542 165 562 210 602 c 2
 266 651 l 2
 282 665 319 691 350 710 c 0
 371 723 382 726 402 726 c 0
 416 726 428 724 449 718 c 1
 436 671 429 640 421 593 c 1
 406 590 l 1
 375 634 359 646 333 646 c 0
 294 646 283 615 256 483 c 2
 250 454 l 1
 397 454 l 1
 400 467 402 479 403 483 c 0
 415 542 425 562 470 602 c 2
 526 651 l 2
 542 665 579 691 610 710 c 0
 631 723 642 726 662 726 c 0
 676 726 688 724 709 718 c 1
 696 671 689 640 681 593 c 1
 666 590 l 1
 635 634 619 646 593 646 c 0
 554 646 543 615 516 483 c 2
 510 454 l 1xa8
 553 455 584 457 633 462 c 1xc8
 638 454 l 1xa8
 632 440 629 429 622 403 c 1xc8
 499 403 l 1x98
 444 168 l 2
 396 -37 366 -113 304 -185 c 0
 263 -232 202 -271 168 -271 c 0
 155 -271 139 -267 130 -262 c 1
 141 -238 157 -183 162 -155 c 1
 179 -152 l 1
 193 -183 208 -196 230 -196 c 0
 266 -196 277 -168 306 -14 c 2
 385 403 l 1xa8
 239 403 l 1
 184 168 l 2
 136 -37 106 -113 44 -185 c 0
 3 -232 -58 -271 -92 -271 c 0
 -105 -271 -121 -267 -130 -262 c 1x98
EndSplineSet
Validated: 1
Ligature2: "liga_f_f_l subtable" f f
EndChar

StartChar: f_f_i
Encoding: 276 64259 22
Width: 869
VWidth: 0
GlyphClass: 3
Flags: W
TeX: 726 -271
HStem: -271 75<-102.88 -12 157.12 247.5> -17 82<618.5 726.5> 403 25<39 78.7245> 413 41<510.025 668> 449 20G<748.5 770.5> 544 131<739.625 824.49> 646 80<313.5 409 575.5 670.5>
VStem: 596 114<12.2499 140.999> 677 118<326.727 444.368> 720 123<562.267 655.023>
LayerCount: 2
Fore
SplineSet
-130 -262 m 1xe080
 -119 -238 -103 -183 -98 -155 c 1
 -81 -152 l 1
 -67 -183 -52 -196 -30 -196 c 0
 6 -196 17 -168 46 -14 c 2
 125 403 l 1
 34 403 l 1
 39 428 l 1xe080
 73 439 107 448 139 463 c 1
 140 469 141 472 143 483 c 0
 155 542 165 562 210 602 c 2
 266 651 l 2
 282 665 319 691 350 710 c 0
 371 723 382 726 402 726 c 0
 416 726 428 724 449 718 c 1
 436 671 429 640 421 593 c 1
 406 590 l 1
 375 634 359 646 333 646 c 0
 294 646 283 615 256 483 c 2
 250 454 l 1
 396 454 l 1
 403 483 l 2
 420 553 432 574 522 647 c 0
 599 710 628 726 664 726 c 0
 677 726 687 724 708 718 c 1
 695 669 689 639 681 593 c 1
 666 590 l 1
 642 625 613 646 588 646 c 0
 563 646 544 620 533 569 c 2
 508 454 l 1
 668 454 l 1xd280
 668 454 739 469 758 469 c 0
 783 469 795 456 795 429 c 0xc880
 795 412 792 393 784 365 c 2
 730 169 l 2
 717 123 710 89 710 76 c 0
 710 70 715 65 721 65 c 0
 732 65 748 73 783 95 c 2
 810 112 l 1
 822 84 l 1
 811 76 807 74 794 64 c 0
 713 6 666 -17 628 -17 c 0
 609 -17 596 0 596 26 c 0xc9
 596 42 599 64 602 78 c 2
 671 359 l 2
 676 381 677 385 677 396 c 0
 677 407 673 413 666 413 c 2
 602 413 l 2xd080
 571 413 548 411 499 403 c 1
 444 168 l 2
 396 -37 366 -113 304 -185 c 0
 263 -232 202 -271 168 -271 c 0
 155 -271 139 -267 130 -262 c 1
 141 -238 157 -183 162 -155 c 1
 179 -152 l 1
 193 -183 208 -196 230 -196 c 0
 265 -196 276 -167 304 -22 c 2
 385 403 l 1
 239 403 l 1
 184 168 l 2
 136 -37 106 -113 44 -185 c 0
 3 -232 -58 -271 -92 -271 c 0
 -105 -271 -121 -267 -130 -262 c 1xe080
720 601 m 0xc440
 720 642 750 675 787 675 c 0
 820 675 843 650 843 615 c 0
 843 574 814 544 774 544 c 0
 741 544 720 566 720 601 c 0xc440
EndSplineSet
Validated: 1
Ligature2: "liga_PLK subtable" f_f i
Ligature2: "liga_NLDb subtable" f_f i
Ligature2: "liga_f_i subtable" f_f i
EndChar

StartChar: f_f_l
Encoding: 277 64260 23
Width: 906
VWidth: 0
GlyphClass: 3
Flags: W
TeX: 726 -271
HStem: -271 75<-102.88 -12 157.12 247.5> -26 82<658.5 772.5> 403 59<512.007 627.846> 403 51<250 385 510 626.225> 403 25<39 78.7245> 646 80<317.573 397.167 580.462 656.561> 652 33<700 753.843>
VStem: 637 118<8.61944 159.753>
LayerCount: 2
Fore
SplineSet
-130 -262 m 1xc9
 -119 -238 -103 -183 -98 -155 c 1
 -81 -152 l 1
 -67 -183 -52 -196 -30 -196 c 0
 6 -196 17 -168 46 -14 c 2
 125 403 l 1
 34 403 l 1
 39 428 l 1xc9
 73 439 107 448 139 463 c 1
 140 469 141 472 143 483 c 0
 155 542 165 562 210 602 c 2
 266 651 l 2
 282 665 319 691 350 710 c 0
 371 723 382 726 402 726 c 0
 416 726 428 724 449 718 c 1
 436 671 429 640 421 593 c 1
 406 590 l 1
 375 634 359 646 333 646 c 0
 294 646 283 615 256 483 c 2
 250 454 l 1
 397 454 l 1
 399 463 l 2
 415 534 421 554 466 600 c 0
 494 628 557 678 601 706 c 0
 621 719 643 726 664 726 c 0xd5
 677 726 687 724 708 718 c 1
 704 708 703 700 700 685 c 1
 746 686 839 704 879 720 c 1
 891 708 l 1
 886 687 879 664 874 643 c 2
 767 161 l 2
 759 126 755 94 755 70 c 0
 755 61 760 56 767 56 c 0
 778 56 801 67 820 82 c 2
 850 105 l 1
 864 78 l 1
 747 -7 712 -26 669 -26 c 0
 648 -26 637 -9 637 26 c 0
 637 61 638 70 653 137 c 2
 754 596 l 2
 757 608 758 618 758 627 c 0
 758 643 746 652 723 652 c 2
 693 652 l 1xc3
 681 593 l 1
 666 590 l 1
 642 625 613 646 588 646 c 0
 562 646 545 622 534 569 c 2
 510 454 l 1xd5
 553 455 584 457 633 462 c 1xe1
 638 454 l 1xd1
 632 440 629 429 622 403 c 1xe1
 499 403 l 1xc9
 444 168 l 2
 396 -37 366 -113 304 -185 c 0
 263 -232 202 -271 168 -271 c 0
 155 -271 139 -267 130 -262 c 1
 141 -238 157 -183 162 -155 c 1
 179 -152 l 1
 193 -183 208 -196 230 -196 c 0
 265 -196 276 -167 304 -22 c 2
 385 403 l 1xd1
 239 403 l 1
 184 168 l 2
 136 -37 106 -113 44 -185 c 0
 3 -232 -58 -271 -92 -271 c 0
 -105 -271 -121 -267 -130 -262 c 1xc9
EndSplineSet
Validated: 1
Ligature2: "liga_f_f_l subtable" f f l
EndChar

StartChar: f_k
Encoding: 278 -1 24
Width: 883
VWidth: 0
GlyphClass: 3
Flags: W
TeX: 726 -271
HStem: -271 75<-102.88 -12> -17 82<669.5 769.5> 398 71<737.958 838.597> 403 59<252.007 367.846> 403 51<250 366.225> 403 25<39 78.7245> 646 80<317.573 397.167> 652 32<440 489.411>
VStem: 361 115<2.02591 65.1897>
LayerCount: 2
Fore
SplineSet
-130 -262 m 1xc480
 -119 -238 -103 -183 -98 -155 c 1
 -81 -152 l 1
 -67 -183 -52 -196 -30 -196 c 0
 6 -196 17 -168 46 -14 c 2
 125 403 l 1
 34 403 l 1
 39 428 l 1
 73 439 107 448 139 463 c 1
 140 469 141 472 143 483 c 0
 155 542 165 562 210 602 c 2
 266 651 l 2
 282 665 319 691 350 710 c 0
 371 723 382 726 402 726 c 0xc680
 416 726 428 724 449 718 c 1
 440 684 l 1xc180
 523 697 568 708 613 726 c 1xc280
 623 717 l 1
 618 695 611 674 606 652 c 2
 511 221 l 1
 553 278 610 341 666 393 c 0
 726 447 767 469 812 469 c 0
 824 469 839 466 855 460 c 1
 835 390 l 1
 813 396 801 398 786 398 c 0
 733 398 686 372 640 318 c 1
 705 145 l 2
 723 97 747 65 764 65 c 0
 775 65 787 70 810 85 c 2
 837 102 l 1
 847 73 l 1
 803 42 l 2
 748 3 706 -17 681 -17 c 0
 658 -17 642 6 615 80 c 2
 558 235 l 1
 527 201 l 2
 505 177 503 170 490 104 c 0
 479 50 478 36 476 4 c 1
 447 2 431 -1 371 -14 c 1
 361 -5 l 1
 390 68 492 556 492 626 c 0
 492 644 476 652 453 652 c 2
 432 652 l 1xe180
 428 634 425 615 421 593 c 1
 406 590 l 1
 375 634 359 646 333 646 c 0
 294 646 283 615 256 483 c 2
 250 454 l 1xca80
 293 454 324 457 373 462 c 1xd080
 378 454 l 1xc880
 372 440 369 429 362 403 c 1xd080
 239 403 l 1
 184 168 l 2
 136 -37 106 -113 44 -185 c 0
 3 -232 -58 -271 -92 -271 c 0
 -105 -271 -121 -267 -130 -262 c 1xc480
EndSplineSet
Validated: 1
Ligature2: "liga_PLK subtable" f k
EndChar

StartChar: exclam
Encoding: 33 33 25
Width: 333
VWidth: 0
Flags: W
TeX: 681 0
HStem: -17 152<82.7769 172.294> 675 20G<222.414 322>
VStem: 58 139<7.875 109.302>
LayerCount: 2
Fore
SplineSet
58 49 m 0
 58 99 91 135 135 135 c 0
 173 135 197 110 197 71 c 0
 197 20 166 -17 123 -17 c 0
 84 -17 58 9 58 49 c 0
127 203 m 1
 170 633 l 1
 170 666 l 1
 183 666 l 1
 310 695 l 1
 322 686 l 1
 212 340 l 2
 201 304 192 273 179 218 c 1
 140 194 l 1
 127 203 l 1
EndSplineSet
Validated: 1
EndChar

StartChar: numbersign
Encoding: 35 35 26
Width: 500
VWidth: 0
Flags: W
TeX: 673 0
HStem: 215 75<4 107 194 290 376 470> 397 75<32 135 221 317 403 496> 653 20G<173.015 251 354.114 432>
LayerCount: 2
Fore
SplineSet
4 215 m 1
 4 290 l 1
 119 290 l 1
 135 397 l 1
 32 397 l 1
 32 472 l 1
 146 472 l 1
 176 673 l 1
 251 673 l 1
 221 472 l 1
 328 472 l 1
 357 673 l 1
 432 673 l 1
 403 472 l 1
 496 472 l 1
 496 397 l 1
 392 397 l 1
 376 290 l 1
 470 290 l 1
 470 215 l 1
 365 215 l 1
 333 0 l 1
 258 0 l 1
 290 215 l 1
 182 215 l 1
 150 0 l 1
 75 0 l 1
 107 215 l 1
 4 215 l 1
194 290 m 1
 301 290 l 1
 317 397 l 1
 210 397 l 1
 194 290 l 1
EndSplineSet
Validated: 1
EndChar

StartChar: dollar
Encoding: 36 36 27
Width: 500
VWidth: 0
Flags: W
TeX: 737 -108
HStem: -7 48<123.438 174 223 303.329> 620 49<213.076 287>
VStem: 46 34<79.4949 183> 69 88<434.64 533.27> 361 99<136.921 237.553> 420 30<495 585.531>
LayerCount: 2
Fore
SplineSet
20 40 m 1xc8
 34 87 40 121 46 183 c 1
 80 183 l 1xe8
 77 123 l 2
 76 94 79 89 98 77 c 0
 127 59 142 53 183 41 c 1
 227 285 l 1
 117 304 69 351 69 439 c 0
 69 515 107 584 173 626 c 0
 208 649 236 659 295 669 c 1
 306 737 l 1
 344 737 l 1
 334 672 l 1
 383 671 407 665 456 640 c 0
 468 634 470 633 477 630 c 1
 466 597 459 564 450 495 c 1
 420 495 l 1
 420 566 l 2xd4
 420 585 381 608 326 620 c 1
 286 389 l 1
 361 373 396 357 423 329 c 0
 447 303 460 269 460 228 c 0
 460 148 413 74 334 28 c 0
 296 6 269 -2 215 -8 c 1
 198 -108 l 1
 155 -108 l 1
 174 -7 l 1
 90 5 58 15 20 40 c 1xc8
157 490 m 0xd0
 157 445 185 417 247 399 c 1
 287 620 l 1
 255 618 239 614 218 602 c 0
 182 580 157 535 157 490 c 0xd0
223 39 m 1
 255 39 272 43 294 56 c 0
 335 79 361 124 361 174 c 0xc8
 361 228 335 256 265 275 c 1
 223 39 l 1
EndSplineSet
Validated: 33
AlternateSubs2: "'aalt' Access All Alternates lookup 0 subtable" dollar.oldstyle
AlternateSubs2: "'aalt' Access All Alternates in Latin lookup 0 subtable" dollar.oldstyle
Substitution2: "'onum' Oldstyle Figures in Latin lookup 3 subtable" dollar.oldstyle
EndChar

StartChar: percent
Encoding: 37 37 28
Width: 889
VWidth: 0
Flags: W
TeX: 681 0
HStem: -4 28<574.092 640.576> 290 28<616.005 683.127> 350 28<162.092 228.576> 644 28<204.005 271.127>
VStem: 56 86<410.904 565.413> 292 86<457.662 611.704> 468 86<56.9042 211.413> 704 86<103.662 257.704>
LayerCount: 2
Fore
SplineSet
56 498 m 0
 56 601 133 672 244 672 c 0
 326 672 378 615 378 525 c 0
 378 422 303 350 198 350 c 0
 109 350 56 406 56 498 c 0
142 446 m 0
 142 406 164 378 195 378 c 0
 218 378 239 393 255 422 c 0
 276 459 292 527 292 576 c 0
 292 616 270 644 239 644 c 0
 216 644 196 629 179 600 c 0
 159 566 142 495 142 446 c 0
176 -17 m 1
 620 697 l 1
 671 697 l 1
 229 -17 l 1
 176 -17 l 1
468 144 m 0
 468 247 545 318 656 318 c 0
 738 318 790 261 790 171 c 0
 790 68 715 -4 610 -4 c 0
 521 -4 468 52 468 144 c 0
554 92 m 0
 554 52 576 24 607 24 c 0
 630 24 651 39 667 68 c 0
 688 105 704 173 704 222 c 0
 704 262 682 290 651 290 c 0
 628 290 608 275 591 246 c 0
 571 212 554 141 554 92 c 0
EndSplineSet
Validated: 1
EndChar

StartChar: ampersand
Encoding: 38 38 29
Width: 833
VWidth: 0
Flags: W
TeX: 681 0
HStem: -17 53<285.485 457.491> 371 54<324.997 407.037> 640 55<340.939 473.541>
VStem: 74 117<121.19 260.304> 184 98<463.814 561.424> 403 24<199 214> 501 30<539 608.646> 587 91<139.399 253.198> 773 38<411.547 491.62>
LayerCount: 2
Fore
SplineSet
74 174 m 0xf780
 74 225 92 269 128 304 c 0
 166 341 199 359 280 386 c 1
 219 396 184 434 184 492 c 0
 184 542 213 587 275 633 c 0
 334 677 384 695 438 695 c 0
 482 695 516 687 552 667 c 1
 537 610 532 581 531 539 c 1
 501 539 l 1
 501 599 l 1
 463 629 435 640 397 640 c 0
 331 640 282 592 282 526 c 0xef80
 282 457 338 425 406 425 c 2
 420 425 l 1
 406 368 l 1
 397 370 391 371 379 371 c 0
 268 371 191 303 191 203 c 0
 191 103 268 36 385 36 c 0
 501 36 587 104 587 195 c 0
 587 245 553 278 502 278 c 0
 465 278 443 259 431 214 c 2
 427 199 l 1
 403 199 l 1
 413 304 l 1
 434 328 488 353 537 360 c 2
 657 378 l 2
 740 390 773 412 773 454 c 0
 773 476 762 491 737 501 c 1
 751 526 l 1
 794 505 811 480 811 439 c 0
 811 373 768 326 695 312 c 2
 615 297 l 1
 656 287 678 261 678 220 c 0
 678 160 645 105 584 63 c 0
 515 14 409 -17 314 -17 c 0
 166 -17 74 57 74 174 c 0xf780
EndSplineSet
Validated: 1
AlternateSubs2: "'aalt' Access All Alternates lookup 0 subtable" ampersand
AlternateSubs2: "'aalt' Access All Alternates in Latin lookup 0 subtable" ampersand
Substitution2: "'lnum' Lining Figures in Latin lookup 4 subtable" ampersand
Substitution2: "'onum' Oldstyle Figures in Latin lookup 3 subtable" ampersand
EndChar

StartChar: comma
Encoding: 44 44 30
Width: 250
VWidth: 0
Flags: W
TeX: 147 -164
HStem: -164 311
VStem: -33 241
LayerCount: 2
Fore
SplineSet
-33 -150 m 1
 8 -72 l 2
 30 -29 58 59 66 112 c 1
 127 125 155 133 192 147 c 1
 208 132 l 1
 171 59 157 33 144 11 c 0
 115 -35 45 -128 38 -128 c 2
 -15 -164 l 1
 -33 -150 l 1
EndSplineSet
Validated: 1
EndChar

StartChar: hyphen
Encoding: 45 45 31
Width: 389
VWidth: 0
Flags: W
TeX: 300 0
HStem: 203 91<59.7114 337.739>
VStem: 37 325
LayerCount: 2
Fore
SplineSet
37 208 m 1
 55 253 61 273 66 300 c 1
 115 295 155 294 212 294 c 2
 355 297 l 1
 362 288 l 1
 349 268 343 249 332 198 c 1
 263 200 249 203 196 203 c 0
 136 203 100 203 43 199 c 1
 37 208 l 1
EndSplineSet
Validated: 1
EndChar

StartChar: period
Encoding: 46 46 32
Width: 250
VWidth: 0
Flags: W
TeX: 135 0
HStem: -17 152<72.7769 162.294>
VStem: 48 139<8.25 109.302>
LayerCount: 2
Fore
SplineSet
48 49 m 0
 48 99 81 135 125 135 c 0
 163 135 187 110 187 71 c 0
 187 21 156 -17 113 -17 c 0
 74 -17 48 9 48 49 c 0
EndSplineSet
Validated: 1
EndChar

StartChar: zero
Encoding: 48 48 33
Width: 500
VWidth: 0
Flags: W
TeX: 681 0
HStem: -17 37<178.686 262.375> 646 37<272.528 351.601>
VStem: 42 114<90.4342 319.989> 376 114<353.255 575.52>
LayerCount: 2
Fore
SplineSet
42 228 m 0
 42 344 70 459 120 549 c 0
 172 642 232 683 314 683 c 0
 428 683 490 597 490 437 c 0
 490 322 461 205 411 115 c 0
 361 26 299 -17 220 -17 c 0
 104 -17 42 68 42 228 c 0
156 114 m 0
 156 56 180 20 219 20 c 0
 256 20 283 50 303 116 c 0
 338 228 376 456 376 553 c 0
 376 610 352 646 313 646 c 0
 264 646 239 595 208 470 c 2
 199 431 l 2
 175 327 156 185 156 114 c 0
EndSplineSet
Validated: 1
AlternateSubs2: "'aalt' Access All Alternates lookup 0 subtable" zero.slash zero.prop zero.oldstyle
AlternateSubs2: "'aalt' Access All Alternates in Latin lookup 0 subtable" zero.slash zero.prop zero.oldstyle
Substitution2: "'zero' Slashed Zero in Latin lookup 21 subtable" zero.slash
Substitution2: "'pnum' Proportional Numbers in Latin lookup 5 subtable" zero.prop
Substitution2: "'onum' Oldstyle Figures in Latin lookup 3 subtable" zero.oldstyle
EndChar

StartChar: one
Encoding: 49 49 34
Width: 500
VWidth: 0
Flags: W
TeX: 681 0
HStem: -3 21G<41 44.0303 428 431.636> 0 33<304.618 427.914>
LayerCount: 2
Fore
SplineSet
41 -3 m 1x80
 46 30 l 1
 100 33 l 2
 165 37 169 40 178 92 c 2
 266 578 l 1
 83 500 l 1
 74 509 l 1
 90 572 l 1
 90 572 212 603 286 632 c 0
 327 648 335 650 389 678 c 1
 406 669 l 1
 401 648 397 630 393 606 c 2
 304 100 l 2
 301 85 300 75 300 71 c 0
 300 43 312 35 357 33 c 2x40
 434 30 l 1
 428 -3 l 1x80
 428 -3 310 0 234 0 c 0x40
 159 0 41 -3 41 -3 c 1x80
EndSplineSet
Validated: 1
AlternateSubs2: "'aalt' Access All Alternates lookup 0 subtable" one.prop one.oldstyle
AlternateSubs2: "'aalt' Access All Alternates in Latin lookup 0 subtable" one.prop one.oldstyle
Substitution2: "'pnum' Proportional Numbers in Latin lookup 5 subtable" one.prop
Substitution2: "'onum' Oldstyle Figures in Latin lookup 3 subtable" one.oldstyle
EndChar

StartChar: two
Encoding: 50 50 35
Width: 500
VWidth: 0
Flags: W
TeX: 681 0
HStem: -3 21G<1 1> 0 98<138 420.913 421 426.785> 593 90<167.845 291.409>
VStem: 328 122<420.749 555.145>
LayerCount: 2
Fore
SplineSet
1 -3 m 1xb0
 1 22 l 1
 98 116 l 2
 250 263 328 391 328 491 c 0
 328 553 286 593 221 593 c 0
 171 593 145 574 108 511 c 2
 94 487 l 1
 64 496 l 1
 120 632 l 1
 171 669 212 683 266 683 c 0
 377 683 450 615 450 513 c 0
 450 448 417 378 359 320 c 2
 138 98 l 1
 364 98 l 2x70
 392 98 413 100 446 106 c 1
 454 100 l 1
 441 75 436 58 421 -3 c 1xb0
 421 -3 302 0 226 0 c 0x70
 138 0 1 -3 1 -3 c 1xb0
EndSplineSet
Validated: 1
AlternateSubs2: "'aalt' Access All Alternates lookup 0 subtable" two.prop two.oldstyle
AlternateSubs2: "'aalt' Access All Alternates in Latin lookup 0 subtable" two.prop two.oldstyle
Substitution2: "'pnum' Proportional Numbers in Latin lookup 5 subtable" two.prop
Substitution2: "'onum' Oldstyle Figures in Latin lookup 3 subtable" two.oldstyle
EndChar

StartChar: three
Encoding: 51 51 36
Width: 500
VWidth: 0
Flags: W
TeX: 681 0
HStem: -17 37<112.476 240.337> 340 38<148.373 266.421> 603 80<177.561 301.945>
VStem: 38 34<147.433 183.412> 320 128<127.349 297.992> 331 119<473.033 574.194>
LayerCount: 2
Fore
SplineSet
8 24 m 1xf8
 38 185 l 1
 72 183 l 1
 69 164 67 143 67 128 c 0
 67 64 110 20 175 20 c 0
 224 20 262 44 290 93 c 0
 310 128 320 169 320 211 c 0xf8
 320 294 282 340 214 340 c 0
 196 340 179 337 138 325 c 1
 132 331 l 1
 148 382 l 1
 156 379 161 378 177 378 c 0
 219 378 243 383 267 397 c 0
 307 421 331 464 331 512 c 0
 331 569 296 603 236 603 c 0
 180 603 142 577 110 515 c 1
 81 526 l 1
 137 637 l 1
 183 670 224 683 282 683 c 0
 386 683 450 631 450 548 c 0xf4
 450 510 436 477 408 447 c 0
 379 416 354 400 295 375 c 1
 294 371 l 1
 398 358 448 309 448 221 c 0
 448 87 326 -17 170 -17 c 0
 113 -17 71 -7 8 24 c 1xf8
EndSplineSet
Validated: 1
AlternateSubs2: "'aalt' Access All Alternates lookup 0 subtable" three.prop three.oldstyle
AlternateSubs2: "'aalt' Access All Alternates in Latin lookup 0 subtable" three.prop three.oldstyle
Substitution2: "'pnum' Proportional Numbers in Latin lookup 5 subtable" three.prop
Substitution2: "'onum' Oldstyle Figures in Latin lookup 3 subtable" three.oldstyle
EndChar

StartChar: four
Encoding: 52 52 37
Width: 500
VWidth: 0
Flags: W
TeX: 681 0
HStem: -3 21G<98 101.03 454 457.03> 0 33<103 221.382 349.1 453.921> 176 76<86 249 376 469> 663 20G<417 453>
LayerCount: 2
Fore
SplineSet
3 176 m 1x70
 8 214 l 1
 103 370 197 503 318 652 c 1
 364 656 394 664 440 683 c 1
 453 673 l 1
 376 252 l 1
 483 255 l 1
 487 253 l 1
 469 176 l 1
 362 176 l 1
 349 93 l 2
 347 80 346 70 346 61 c 0
 346 46 360 34 378 33 c 2x70
 459 30 l 1
 454 -3 l 1xb0
 454 -3 345 0 276 0 c 0x70
 207 0 98 -3 98 -3 c 1xb0
 103 30 l 1
 166 33 l 2
 220 36 226 41 235 95 c 2
 249 176 l 1
 3 176 l 1x70
86 252 m 1
 264 252 l 1
 325 597 l 1
 220 463 153 367 86 252 c 1
EndSplineSet
Validated: 1
AlternateSubs2: "'aalt' Access All Alternates lookup 0 subtable" four.prop four.oldstyle
AlternateSubs2: "'aalt' Access All Alternates in Latin lookup 0 subtable" four.prop four.oldstyle
Substitution2: "'pnum' Proportional Numbers in Latin lookup 5 subtable" four.prop
Substitution2: "'onum' Oldstyle Figures in Latin lookup 3 subtable" four.oldstyle
EndChar

StartChar: five
Encoding: 53 53 38
Width: 500
VWidth: 0
Flags: W
TeX: 681 0
HStem: -17 37<116.992 242.364> 362 55<173.438 285.469> 566 109<174 377.853> 566 102<174 435>
VStem: 41 29<144.376 174.207> 328 128<140.756 317.262>
LayerCount: 2
Fore
SplineSet
14 30 m 1xec
 25 76 31 110 41 178 c 1
 70 173 l 1
 69 161 68 152 68 144 c 0
 68 69 113 20 180 20 c 0
 232 20 271 49 299 108 c 0
 317 146 328 195 328 239 c 0
 328 315 286 362 219 362 c 0
 175 362 147 347 112 302 c 1
 81 314 l 1
 145 667 l 1
 150 675 l 1xec
 238 670 293 668 382 668 c 2
 475 668 l 1xdc
 481 659 l 1
 435 570 l 1
 276 566 l 1
 174 566 l 1
 131 366 l 1
 176 404 212 417 270 417 c 0
 385 417 456 351 456 244 c 0
 456 97 335 -17 178 -17 c 0
 114 -17 65 -3 14 30 c 1xec
EndSplineSet
Validated: 1
AlternateSubs2: "'aalt' Access All Alternates lookup 0 subtable" five.prop five.oldstyle
AlternateSubs2: "'aalt' Access All Alternates in Latin lookup 0 subtable" five.prop five.oldstyle
Substitution2: "'pnum' Proportional Numbers in Latin lookup 5 subtable" five.prop
Substitution2: "'onum' Oldstyle Figures in Latin lookup 3 subtable" five.oldstyle
EndChar

StartChar: six
Encoding: 54 54 39
Width: 500
VWidth: 0
Flags: W
TeX: 681 0
HStem: -17 46<188.853 296.776> 348 67<247.958 371> 631 52<314.892 442.199>
VStem: 39 120<81.6219 276.854> 351 125<154.272 319.587>
LayerCount: 2
Fore
SplineSet
39 206 m 0
 39 342 89 473 175 563 c 0
 248 639 335 683 415 683 c 0
 439 683 467 678 488 669 c 1
 466 600 l 1
 458 596 l 1
 433 620 406 631 373 631 c 0
 318 631 270 594 234 522 c 0
 210 474 195 425 176 334 c 1
 232 393 274 415 328 415 c 0
 414 415 476 350 476 260 c 0
 476 112 354 -17 214 -17 c 0
 101 -17 39 62 39 206 c 0
159 151 m 0
 159 71 188 29 244 29 c 0
 275 29 296 42 315 75 c 0
 336 110 351 177 351 234 c 0
 351 308 324 348 273 348 c 0
 202 348 159 273 159 151 c 0
EndSplineSet
Validated: 1
AlternateSubs2: "'aalt' Access All Alternates lookup 0 subtable" six.prop six.oldstyle
AlternateSubs2: "'aalt' Access All Alternates in Latin lookup 0 subtable" six.prop six.oldstyle
Substitution2: "'pnum' Proportional Numbers in Latin lookup 5 subtable" six.prop
Substitution2: "'onum' Oldstyle Figures in Latin lookup 3 subtable" six.oldstyle
EndChar

StartChar: seven
Encoding: 55 55 40
Width: 500
VWidth: 0
Flags: W
TeX: 681 0
HStem: -3 21G<69 98.5 171.5 223.5> 557 111<100 439>
LayerCount: 2
Fore
SplineSet
69 10 m 1
 360 448 l 1
 439 557 l 1
 170 557 l 2
 145 557 123 555 81 550 c 1
 73 556 l 1
 81 593 87 620 94 665 c 1
 100 674 l 1
 284 668 l 1
 544 668 l 1
 544 629 l 1
 486 548 l 2
 377 396 256 156 191 -3 c 1
 152 0 143 0 133 0 c 0
 123 0 121 0 76 -3 c 1
 69 10 l 1
EndSplineSet
Validated: 1
AlternateSubs2: "'aalt' Access All Alternates lookup 0 subtable" seven.prop seven.oldstyle
AlternateSubs2: "'aalt' Access All Alternates in Latin lookup 0 subtable" seven.prop seven.oldstyle
Substitution2: "'pnum' Proportional Numbers in Latin lookup 5 subtable" seven.prop
Substitution2: "'onum' Oldstyle Figures in Latin lookup 3 subtable" seven.oldstyle
EndChar

StartChar: eight
Encoding: 56 56 41
Width: 500
VWidth: 0
Flags: W
TeX: 681 0
HStem: -17 46<150.626 291.973> 637 46<239.022 369.718>
VStem: 26 82<72.7524 211.273> 97 97<458.296 552.121> 348 106<126.74 226.504> 404 80<479.01 603.19>
LayerCount: 2
Fore
SplineSet
26 130 m 0xe8
 26 203 67 259 157 309 c 2
 191 328 l 1
 177 337 l 2
 121 373 97 413 97 469 c 0
 97 534 132 591 201 639 c 0
 243 668 287 683 332 683 c 0
 424 683 484 632 484 554 c 0xd4
 484 498 455 453 391 409 c 2
 338 373 l 1
 352 365 l 2
 421 325 454 279 454 218 c 0
 454 153 426 97 369 51 c 0
 314 7 254 -17 196 -17 c 0
 93 -17 26 41 26 130 c 0xe8
108 143 m 0xe8
 108 75 153 29 220 29 c 0
 292 29 348 84 348 155 c 0
 348 214 311 263 236 300 c 2
 218 309 l 1
 139 257 108 210 108 143 c 0xe8
194 522 m 0xd4
 194 468 220 439 309 390 c 1
 382 446 404 479 404 533 c 0
 404 598 366 637 305 637 c 0
 240 637 194 589 194 522 c 0xd4
EndSplineSet
Validated: 1
AlternateSubs2: "'aalt' Access All Alternates lookup 0 subtable" eight.prop eight.oldstyle
AlternateSubs2: "'aalt' Access All Alternates in Latin lookup 0 subtable" eight.prop eight.oldstyle
Substitution2: "'pnum' Proportional Numbers in Latin lookup 5 subtable" eight.prop
Substitution2: "'onum' Oldstyle Figures in Latin lookup 3 subtable" eight.oldstyle
EndChar

StartChar: nine
Encoding: 57 57 42
Width: 500
VWidth: 0
Flags: W
TeX: 681 0
HStem: -17 49<95.0835 232.514> 246 71<156.5 282.484> 634 49<228.548 334.254>
VStem: 27 23<90.5512 104.043> 56 120<350.536 522.979> 366 125<384.046 577.794>
LayerCount: 2
Fore
SplineSet
27 101 m 1
 50 111 l 1
 74 59 113 32 165 32 c 0
 222 32 267 70 299 146 c 0
 318 190 326 216 348 313 c 2
 352 331 l 1
 302 270 260 246 201 246 c 0
 112 246 56 312 56 417 c 0
 56 510 94 579 175 632 c 0
 229 667 272 683 313 683 c 0
 425 683 491 599 491 456 c 0
 491 218 318 -17 143 -17 c 0
 116 -17 94 -13 52 -2 c 1
 27 101 l 1
176 452 m 0
 176 363 204 317 259 317 c 0
 326 317 366 386 366 503 c 0
 366 587 337 634 285 634 c 0
 218 634 176 564 176 452 c 0
EndSplineSet
Validated: 1
AlternateSubs2: "'aalt' Access All Alternates lookup 0 subtable" nine.prop nine.oldstyle
AlternateSubs2: "'aalt' Access All Alternates in Latin lookup 0 subtable" nine.prop nine.oldstyle
Substitution2: "'pnum' Proportional Numbers in Latin lookup 5 subtable" nine.prop
Substitution2: "'onum' Oldstyle Figures in Latin lookup 3 subtable" nine.oldstyle
EndChar

StartChar: colon
Encoding: 58 58 43
Width: 250
VWidth: 0
Flags: W
TeX: 452 0
HStem: -17 152<62.7769 152.294> 300 152<121.777 211.294>
VStem: 38 139<8.25 109.302> 97 139<324.875 427.75>
LayerCount: 2
Fore
SplineSet
38 49 m 0xe0
 38 99 71 135 115 135 c 0
 153 135 177 110 177 71 c 0
 177 21 146 -17 103 -17 c 0
 64 -17 38 9 38 49 c 0xe0
97 366 m 0xd0
 97 416 129 452 174 452 c 0
 212 452 236 427 236 388 c 0
 236 337 205 300 162 300 c 0
 123 300 97 326 97 366 c 0xd0
EndSplineSet
Validated: 1
EndChar

StartChar: semicolon
Encoding: 59 59 44
Width: 250
VWidth: 0
Flags: W
TeX: 452 -164
HStem: 300 152<133.44 222.294>
VStem: 108 139<324.875 427.074>
LayerCount: 2
Fore
SplineSet
-33 -150 m 1
 8 -72 l 2
 30 -29 58 59 66 112 c 1
 127 125 155 133 192 147 c 1
 208 132 l 1
 171 59 157 33 144 11 c 0
 115 -35 45 -128 38 -128 c 2
 -15 -164 l 1
 -33 -150 l 1
108 364 m 0
 108 415 140 452 184 452 c 0
 223 452 247 428 247 388 c 0
 247 337 216 300 173 300 c 0
 135 300 108 326 108 364 c 0
EndSplineSet
Validated: 1
EndChar

StartChar: question
Encoding: 63 63 45
Width: 444
VWidth: 0
Flags: W
TeX: 681 0
HStem: -17 152<121.777 211.294> 615 80<174.335 298.934>
VStem: 97 139<7.875 109.302> 159 44<208.869 292.746> 324 126<468.366 591.405>
LayerCount: 2
Fore
SplineSet
91 526 m 1xd8
 111 570 122 600 134 652 c 1
 194 686 225 695 274 695 c 0
 381 695 450 636 450 543 c 0
 450 488 427 445 376 408 c 2
 273 332 l 2
 217 291 203 274 203 249 c 0
 203 234 209 222 223 207 c 1
 201 189 l 1
 171 214 159 237 159 266 c 0
 159 297 176 329 210 365 c 2
 273 431 l 2
 308 468 324 501 324 536 c 0
 324 585 289 615 233 615 c 0
 215 615 197 611 177 601 c 0
 158 592 146 575 131 539 c 2
 124 522 l 1
 91 526 l 1xd8
97 49 m 0xe8
 97 99 130 135 174 135 c 0
 212 135 236 110 236 71 c 0
 236 20 205 -17 162 -17 c 0
 123 -17 97 9 97 49 c 0xe8
EndSplineSet
Validated: 1
EndChar

StartChar: at
Encoding: 64 64 46
Width: 833
VWidth: 0
Flags: W
TeX: 681 0
HStem: -12 56<323.82 549.221> 143 29<323.341 391.236 505.974 587.052> 625 56<317.552 547.908>
VStem: 82 56<225.764 443.515> 210 95<196.992 352.839> 693 51<297.575 490.564>
LayerCount: 2
Fore
SplineSet
82 329 m 0
 82 527 235 681 431 681 c 0
 607 681 744 558 744 399 c 0
 744 329 717 261 671 213 c 0
 626 168 566 137 521 137 c 0
 482 137 458 166 452 219 c 1
 408 159 382 143 334 143 c 0
 260 143 210 198 210 278 c 0
 210 395 307 501 416 501 c 0
 460 501 487 477 497 429 c 1
 513 493 l 1
 607 493 l 1
 533 219 l 2
 531 210 529 200 529 194 c 0
 529 180 537 170 548 170 c 0
 570 170 599 190 628 225 c 0
 669 274 693 340 693 403 c 0
 693 528 581 625 436 625 c 0
 265 625 138 501 138 335 c 0
 138 167 267 44 443 44 c 0
 483 44 517 51 550 66 c 0
 602 89 630 113 675 173 c 1
 739 173 l 1
 710 123 694 102 663 75 c 0
 598 18 519 -12 432 -12 c 0
 235 -12 82 137 82 329 c 0
305 242 m 0
 305 201 325 172 354 172 c 0
 382 172 409 195 434 240 c 0
 460 285 478 353 478 403 c 0
 478 442 460 469 432 471 c 0
 374 475 305 350 305 242 c 0
EndSplineSet
Validated: 33
AlternateSubs2: "'aalt' Access All Alternates lookup 0 subtable" at.alt
AlternateSubs2: "'aalt' Access All Alternates in Latin lookup 0 subtable" at.alt
Substitution2: "'ss02' Style Set 2 in Latin lookup 16 subtable" at.alt
Substitution2: "'ss01' Style Set 1 in Latin lookup 15 subtable" at.alt
Substitution2: "'salt' Stylistic Alternatives in Latin lookup 14 subtable" at.alt
EndChar

StartChar: at.alt
Encoding: 279 -1 47
Width: 833
VWidth: 0
Flags: W
TeX: 538 -155
HStem: -155 56<323.82 549.221> 0 29<323.341 391.236 505.974 587.052> 482 56<317.552 547.908>
VStem: 82 56<82.7644 300.515> 210 95<53.992 209.839> 693 51<154.575 347.564>
LayerCount: 2
Fore
SplineSet
82 186 m 0
 82 384 235 538 431 538 c 0
 607 538 744 415 744 256 c 0
 744 186 717 118 671 70 c 0
 626 25 566 -6 521 -6 c 0
 482 -6 458 23 452 76 c 1
 408 16 382 0 334 0 c 0
 260 0 210 55 210 135 c 0
 210 252 307 358 416 358 c 0
 460 358 487 334 497 286 c 1
 513 350 l 1
 607 350 l 1
 533 76 l 2
 531 67 529 57 529 51 c 0
 529 37 537 27 548 27 c 0
 570 27 599 47 628 82 c 0
 669 131 693 197 693 260 c 0
 693 385 581 482 436 482 c 0
 265 482 138 358 138 192 c 0
 138 24 267 -99 443 -99 c 0
 483 -99 517 -92 550 -77 c 0
 602 -54 630 -30 675 30 c 1
 739 30 l 1
 710 -20 694 -41 663 -68 c 0
 598 -125 519 -155 432 -155 c 0
 235 -155 82 -6 82 186 c 0
305 99 m 0
 305 58 325 29 354 29 c 0
 382 29 409 52 434 97 c 0
 460 142 478 210 478 260 c 0
 478 299 460 326 432 328 c 0
 374 332 305 207 305 99 c 0
EndSplineSet
Validated: 33
EndChar

StartChar: A
Encoding: 65 65 48
Width: 722
VWidth: 0
GlyphClass: 2
Flags: W
TeX: 681 0
HStem: -3 21G<-35 -32.1429 199 201.857 384 384 685 685> 267 40<245 438> 663 20G<402.157 511.5>
AnchorPoint: "bot_acc" 314 -157 basechar 0
AnchorPoint: "dotbelow" 314 -157 basechar 0
AnchorPoint: "ogon_acc" 504 -157 basechar 0
AnchorPoint: "top_accu" 486 821 basechar 0
AnchorPoint: "dotabove" 486 821 basechar 0
LayerCount: 2
Fore
SplineSet
-35 -3 m 1
 -30 32 l 1
 4 35 l 2
 22 37 38 48 51 70 c 2
 414 683 l 1
 510 683 l 1
 513 660 515 635 518 612 c 2
 594 90 l 2
 599 54 616 38 648 35 c 2
 685 32 l 1
 685 -3 l 1
 685 -3 596 0 539 0 c 0
 479 0 384 -3 384 -3 c 1
 384 32 l 1
 426 35 l 2
 454 37 470 48 468 66 c 2
 443 264 l 1
 406 265 376 267 333 267 c 0
 290 267 222 264 222 264 c 1
 136 112 l 2
 122 87 117 72 117 55 c 0
 117 43 130 37 160 35 c 2
 204 32 l 1
 199 -3 l 1
 199 -3 123 0 75 0 c 0
 32 0 -35 -3 -35 -3 c 1
245 307 m 1
 438 307 l 1
 400 573 l 1
 245 307 l 1
EndSplineSet
Validated: 33
AlternateSubs2: "'aalt' Access All Alternates lookup 0 subtable" a.sc
AlternateSubs2: "'aalt' Access All Alternates in Latin lookup 0 subtable" a.sc
Substitution2: "'c2sc' Capitals to Small Capitals in Latin lookup 13 subtable" a.sc
Position2: "'cpsp' Capital Spacing in Latin lookup 12 subtable" dx=7 dy=0 dh=14 dv=0
EndChar

StartChar: B
Encoding: 66 66 49
Width: 667
VWidth: 0
GlyphClass: 2
Flags: W
TeX: 681 0
HStem: -3 43<212.735 400.279> 335 40<264 410.49> 649 32<91 132>
VStem: 469 132<129.495 286.674> 497 132<465.728 604.503>
AnchorPoint: "bot_acc" 241 -157 basechar 0
AnchorPoint: "dotbelow" 241 -157 basechar 0
AnchorPoint: "ogon_acc" 241 -157 basechar 0
AnchorPoint: "top_accu" 413 821 basechar 0
AnchorPoint: "dotabove" 413 821 basechar 0
LayerCount: 2
Fore
SplineSet
8 -3 m 1xf0
 13 29 l 1
 41 32 l 2
 72 35 81 47 89 92 c 2
 176 594 l 2
 177 601 178 609 178 615 c 0
 178 636 167 644 132 646 c 2
 86 649 l 1
 91 681 l 1
 249 678 l 2
 323 678 365 682 439 682 c 0
 480 682 516 677 544 666 c 0
 598 644 629 598 629 542 c 0xe8
 629 502 611 460 582 434 c 0
 545 401 513 385 427 359 c 1
 492 353 520 344 551 322 c 0
 583 298 601 260 601 214 c 0
 601 131 544 55 454 18 c 0
 418 3 380 -4 332 -3 c 0
 270 -2 219 0 146 0 c 0
 92 0 8 -3 8 -3 c 1xf0
211 51 m 1
 248 45 286 40 323 40 c 0
 414 40 469 104 469 208 c 0xf0
 469 249 460 276 439 296 c 0
 414 321 372 335 322 335 c 0
 300 335 278 333 256 332 c 1
 211 51 l 1
264 375 m 1
 307 375 l 2
 432 375 497 430 497 535 c 0xe8
 497 574 487 598 464 615 c 0
 445 629 403 641 367 639 c 2
 367 639 357 639 350 638 c 2
 311 635 l 1
 264 375 l 1
EndSplineSet
Validated: 33
AlternateSubs2: "'aalt' Access All Alternates lookup 0 subtable" b.sc
AlternateSubs2: "'aalt' Access All Alternates in Latin lookup 0 subtable" b.sc
Substitution2: "'c2sc' Capitals to Small Capitals in Latin lookup 13 subtable" b.sc
Position2: "'cpsp' Capital Spacing in Latin lookup 12 subtable" dx=7 dy=0 dh=14 dv=0
EndChar

StartChar: C
Encoding: 67 67 50
Width: 685
VWidth: 0
GlyphClass: 2
Flags: W
TeX: 681 0
HStem: -17 65<296.843 472.124> 636 59<371.303 580.858>
VStem: 69 138<143.169 385.594> 622 35<484 572>
AnchorPoint: "bot_acc" 313 -157 basechar 0
AnchorPoint: "dotbelow" 313 -157 basechar 0
AnchorPoint: "ogon_acc" 313 -157 basechar 0
AnchorPoint: "top_accu" 486 821 basechar 0
AnchorPoint: "dotabove" 486 821 basechar 0
LayerCount: 2
Fore
SplineSet
69 250 m 0
 69 497 263 695 504 695 c 0
 573 695 630 682 695 652 c 1
 669 560 662 531 657 484 c 1
 622 484 l 1
 627 572 l 2
 629 605 545 636 453 636 c 0
 302 636 207 495 207 272 c 0
 207 119 268 48 399 48 c 0
 462 48 521 67 597 112 c 2
 619 125 l 1
 629 116 l 1
 616 77 l 1
 506 8 434 -17 340 -17 c 0
 262 -17 194 4 149 41 c 0
 96 86 69 155 69 250 c 0
EndSplineSet
Validated: 33
AlternateSubs2: "'aalt' Access All Alternates lookup 0 subtable" c.sc
AlternateSubs2: "'aalt' Access All Alternates in Latin lookup 0 subtable" c.sc
Substitution2: "'c2sc' Capitals to Small Capitals in Latin lookup 13 subtable" c.sc
Position2: "'cpsp' Capital Spacing in Latin lookup 12 subtable" dx=7 dy=0 dh=14 dv=0
EndChar

StartChar: D
Encoding: 68 68 51
Width: 778
VWidth: 0
GlyphClass: 2
Flags: W
TeX: 681 0
HStem: -3 43<205.922 442.658> 640 42<303 506.638> 649 32<83 124>
VStem: 609 138<287.73 536.186>
AnchorPoint: "bot_acc" 279 -157 basechar 0
AnchorPoint: "dotbelow" 279 -157 basechar 0
AnchorPoint: "ogon_acc" 279 -157 basechar 0
AnchorPoint: "top_accu" 452 821 basechar 0
AnchorPoint: "dotabove" 452 821 basechar 0
LayerCount: 2
Fore
SplineSet
0 -3 m 1xd0
 5 29 l 1
 33 32 l 2
 63 35 73 47 81 92 c 2
 168 594 l 2
 169 601 170 609 170 614 c 0
 170 636 159 644 124 646 c 2
 78 649 l 1
 83 681 l 1xb0
 243 678 l 2
 324 678 346 682 451 682 c 0
 567 682 634 658 685 601 c 0
 725 556 747 494 747 422 c 0
 747 300 695 179 608 100 c 0
 535 33 430 -6 330 -3 c 0
 245 0 215 0 141 0 c 0
 86 0 0 -3 0 -3 c 1xd0
203 51 m 1
 266 42 286 40 314 40 c 0
 430 40 497 73 541 151 c 0
 583 225 609 336 609 434 c 0
 609 521 584 578 533 608 c 0
 499 627 462 640 376 640 c 0xd0
 371 640 357 639 342 638 c 2
 303 635 l 1
 203 51 l 1
EndSplineSet
Validated: 33
AlternateSubs2: "'aalt' Access All Alternates lookup 0 subtable" d.sc
AlternateSubs2: "'aalt' Access All Alternates in Latin lookup 0 subtable" d.sc
Substitution2: "'c2sc' Capitals to Small Capitals in Latin lookup 13 subtable" d.sc
Position2: "'cpsp' Capital Spacing in Latin lookup 12 subtable" dx=7 dy=0 dh=14 dv=0
EndChar

StartChar: E
Encoding: 69 69 52
Width: 611
VWidth: 0
GlyphClass: 2
Flags: W
TeX: 681 0
HStem: -3 32<16 44> 0 56<214 489.635> 330 48<270 487> 630 48<315 536.193> 661 20G<90.875 94>
VStem: 520 36<145.727 168> 549 32<520 562.56>
AnchorPoint: "bot_acc" 242 -157 basechar 0
AnchorPoint: "dotbelow" 242 -157 basechar 0
AnchorPoint: "ogon_acc" 388 -157 basechar 0
AnchorPoint: "top_accu" 414 821 basechar 0
AnchorPoint: "dotabove" 414 821 basechar 0
LayerCount: 2
Fore
SplineSet
11 -3 m 1xa4
 16 29 l 1
 44 32 l 2
 74 35 84 47 92 92 c 2
 179 594 l 2
 180 601 181 609 181 615 c 0
 181 636 170 644 135 646 c 2
 89 649 l 1
 94 681 l 1xac
 94 681 190 678 251 678 c 0x34
 322 678 363 681 434 681 c 2x2c
 596 678 l 1
 606 672 l 1
 581 520 l 1
 549 520 l 1
 549 573 l 2
 549 607 546 616 537 620 c 0
 521 625 426 634 381 634 c 0
 372 634 363 634 354 633 c 2
 315 630 l 1
 270 378 l 1
 356 378 l 1
 496 381 l 1
 501 372 l 1
 487 325 l 1
 317 330 l 1
 262 330 l 1
 214 56 l 1x72
 249 49 274 49 312 51 c 0
 480 56 485 58 498 98 c 2
 520 168 l 1
 556 168 l 1
 545 123 538 89 521 -3 c 1xa4
 469 -3 421 0 356 0 c 2
 152 0 l 1x64
 11 -3 l 1xa4
EndSplineSet
Validated: 33
AlternateSubs2: "'aalt' Access All Alternates lookup 0 subtable" e.sc
AlternateSubs2: "'aalt' Access All Alternates in Latin lookup 0 subtable" e.sc
Substitution2: "'c2sc' Capitals to Small Capitals in Latin lookup 13 subtable" e.sc
Position2: "'cpsp' Capital Spacing in Latin lookup 12 subtable" dx=7 dy=0 dh=14 dv=0
EndChar

StartChar: F
Encoding: 70 70 53
Width: 556
VWidth: 0
GlyphClass: 2
Flags: W
TeX: 681 0
HStem: -3 21G<-6 -3.14286 313 315.857> 0 35<220.599 312.927> 296 48<267 484> 632 49<317 528.433>
VStem: 536 32<520 562.56>
AnchorPoint: "bot_acc" 197 -157 basechar 0
AnchorPoint: "dotbelow" 197 -157 basechar 0
AnchorPoint: "ogon_acc" 126 -157 basechar 0
AnchorPoint: "top_accu" 369 821 basechar 0
AnchorPoint: "dotabove" 369 821 basechar 0
LayerCount: 2
Fore
SplineSet
-6 -3 m 1xb8
 -1 32 l 1
 42 35 l 2
 74 37 86 54 100 132 c 2
 182 594 l 2
 183 601 184 609 184 614 c 0
 184 637 174 644 138 646 c 2
 88 649 l 1
 93 681 l 1
 93 681 190 678 252 678 c 0
 313 678 348 681 409 681 c 2
 583 678 l 1
 593 672 l 1
 568 520 l 1
 536 520 l 1
 536 573 l 2
 536 601 534 611 529 617 c 0
 518 626 436 632 410 632 c 0
 378 632 350 633 317 630 c 1
 267 344 l 1
 353 344 l 1
 493 347 l 1
 498 338 l 1
 484 291 l 1
 314 296 l 1
 259 296 l 1
 223 100 l 2
 220 85 219 74 219 65 c 0
 219 44 228 36 255 35 c 2x78
 318 32 l 1
 313 -3 l 1xb8
 313 -3 212 0 148 0 c 0x78
 88 0 -6 -3 -6 -3 c 1xb8
EndSplineSet
Validated: 33
AlternateSubs2: "'aalt' Access All Alternates lookup 0 subtable" f.sc
AlternateSubs2: "'aalt' Access All Alternates in Latin lookup 0 subtable" f.sc
Substitution2: "'c2sc' Capitals to Small Capitals in Latin lookup 13 subtable" f.sc
Position2: "'cpsp' Capital Spacing in Latin lookup 12 subtable" dx=7 dy=0 dh=14 dv=0
EndChar

StartChar: G
Encoding: 71 71 54
Width: 778
VWidth: 0
GlyphClass: 2
Flags: W
TeX: 681 0
HStem: -17 47<304.913 500.98> 251 32<453.066 549.625> 633 62<387.036 611.713>
VStem: 72 138<134.516 394.724> 649 35<484 574>
AnchorPoint: "bot_acc" 343 -157 basechar 0
AnchorPoint: "dotbelow" 343 -157 basechar 0
AnchorPoint: "ogon_acc" 343 -157 basechar 0
AnchorPoint: "top_accu" 515 821 basechar 0
AnchorPoint: "dotabove" 515 821 basechar 0
LayerCount: 2
Fore
SplineSet
72 256 m 0
 72 440 177 592 352 661 c 0
 411 684 466 695 523 695 c 0
 596 695 653 683 722 652 c 1
 696 560 689 531 684 484 c 1
 649 484 l 1
 654 574 l 2
 655 605 574 633 482 633 c 0
 418 633 354 613 316 580 c 0
 253 526 210 395 210 259 c 0
 210 111 276 30 396 30 c 0
 443 30 483 40 517 59 c 1
 549 200 l 2
 551 208 552 217 552 223 c 0
 552 242 540 250 508 251 c 2
 448 253 l 1
 453 286 l 1
 453 286 544 283 602 283 c 0
 660 283 750 286 750 286 c 1
 745 253 l 1
 720 251 l 2
 693 249 682 238 675 206 c 2
 655 110 l 2
 650 86 647 72 652 48 c 1
 508 -4 452 -17 368 -17 c 0
 269 -17 191 9 140 60 c 0
 94 105 72 170 72 256 c 0
EndSplineSet
Validated: 33
AlternateSubs2: "'aalt' Access All Alternates lookup 0 subtable" g.sc
AlternateSubs2: "'aalt' Access All Alternates in Latin lookup 0 subtable" g.sc
Substitution2: "'c2sc' Capitals to Small Capitals in Latin lookup 13 subtable" g.sc
Position2: "'cpsp' Capital Spacing in Latin lookup 12 subtable" dx=7 dy=0 dh=14 dv=0
EndChar

StartChar: H
Encoding: 72 72 55
Width: 778
VWidth: 0
GlyphClass: 2
Flags: W
TeX: 681 0
HStem: -3 21G<-12 -9.14286 298 300.857 407 409.857 723 725.857> 338 48<268 552> 661 20G<89.1429 92 404.143 407 508.143 511 823.143 826>
AnchorPoint: "bot_acc" 317 -157 basechar 0
AnchorPoint: "dotbelow" 317 -157 basechar 0
AnchorPoint: "ogon_acc" 537 -157 basechar 0
AnchorPoint: "top_accu" 489 821 basechar 0
AnchorPoint: "dotabove" 489 821 basechar 0
LayerCount: 2
Fore
SplineSet
-12 -3 m 1
 -7 32 l 1
 42 35 l 2
 76 37 81 45 96 132 c 2
 168 541 l 2
 173 572 176 596 176 614 c 0
 176 634 167 641 138 643 c 2
 87 646 l 1
 92 681 l 1
 92 681 188 678 249 678 c 0
 311 678 407 681 407 681 c 1
 402 646 l 1
 360 643 l 2
 326 641 315 631 307 588 c 2
 268 386 l 1
 562 386 l 1
 587 541 l 2
 592 572 595 600 595 617 c 0
 595 634 584 641 557 643 c 2
 506 646 l 1
 511 681 l 1
 511 681 604 678 663 678 c 0
 727 678 826 681 826 681 c 1
 821 646 l 1
 779 643 l 2
 744 641 734 632 726 588 c 2
 639 102 l 2
 636 88 635 74 635 64 c 0
 635 45 647 36 673 35 c 2
 728 32 l 1
 723 -3 l 1
 723 -3 621 0 555 0 c 0
 497 0 407 -3 407 -3 c 1
 412 32 l 1
 461 35 l 2
 495 37 499 45 515 132 c 2
 552 338 l 1
 261 338 l 1
 220 102 l 2
 217 87 216 73 216 63 c 0
 216 45 227 37 254 35 c 2
 303 32 l 1
 298 -3 l 1
 298 -3 207 0 148 0 c 0
 86 0 -12 -3 -12 -3 c 1
EndSplineSet
Validated: 1
AlternateSubs2: "'aalt' Access All Alternates lookup 0 subtable" h.sc
AlternateSubs2: "'aalt' Access All Alternates in Latin lookup 0 subtable" h.sc
Substitution2: "'c2sc' Capitals to Small Capitals in Latin lookup 13 subtable" h.sc
Position2: "'cpsp' Capital Spacing in Latin lookup 12 subtable" dx=7 dy=0 dh=14 dv=0
EndChar

StartChar: I
Encoding: 73 73 56
Width: 389
VWidth: 0
GlyphClass: 2
Flags: W
TeX: 681 0
HStem: -3 21G<-1 1.28571 319 321.286> 0 35<228.984 318.928> 661 20G<98.7143 101 409.714 412>
AnchorPoint: "bot_acc" 119 -157 basechar 0
AnchorPoint: "dotbelow" 119 -157 basechar 0
AnchorPoint: "ogon_acc" 119 -157 basechar 0
AnchorPoint: "top_accu" 292 821 basechar 0
AnchorPoint: "dotabove" 292 821 basechar 0
LayerCount: 2
Fore
SplineSet
-1 -3 m 1xa0
 3 32 l 1
 52 35 l 2
 85 37 91 47 106 132 c 2
 178 541 l 2
 184 577 187 598 187 613 c 0
 187 632 175 641 149 643 c 2
 97 646 l 1
 101 681 l 1
 101 681 194 678 253 678 c 0
 315 678 412 681 412 681 c 1
 408 646 l 1
 363 643 l 2
 330 641 323 636 317 599 c 2
 230 100 l 2
 228 89 227 77 227 66 c 0
 227 44 237 36 264 35 c 2x60
 323 32 l 1
 319 -3 l 1xa0
 319 -3 220 0 156 0 c 0x60
 95 0 -1 -3 -1 -3 c 1xa0
EndSplineSet
Validated: 1
AlternateSubs2: "'aalt' Access All Alternates lookup 0 subtable" i.sc
AlternateSubs2: "'aalt' Access All Alternates in Latin lookup 0 subtable" i.sc
Substitution2: "'c2sc' Capitals to Small Capitals in Latin lookup 13 subtable" i.sc
Position2: "'cpsp' Capital Spacing in Latin lookup 12 subtable" dx=7 dy=0 dh=14 dv=0
EndChar

StartChar: J
Encoding: 74 74 57
Width: 389
VWidth: 0
GlyphClass: 2
Flags: W
TeX: 681 -207
HStem: -207 37<-28.1599 47.9046> 661 20G<103.143 106 414.143 417>
AnchorPoint: "bot_acc" 85 -364 basechar 0
AnchorPoint: "dotbelow" 85 -364 basechar 0
AnchorPoint: "ogon_acc" 45 -364 basechar 0
AnchorPoint: "top_accu" 294 821 basechar 0
AnchorPoint: "dotabove" 294 821 basechar 0
AnchorPoint: "ccmped" 513 603 basechar 0
LayerCount: 2
Fore
SplineSet
-29 -162 m 1
 -15 -168 -6 -170 7 -170 c 0
 32 -170 51 -157 63 -131 c 0
 71 -114 73 -101 84 -35 c 2
 180 541 l 2
 185 570 190 608 190 614 c 0
 190 632 178 641 152 643 c 2
 101 646 l 1
 106 681 l 1
 106 681 199 678 259 678 c 0
 321 678 417 681 417 681 c 1
 412 646 l 1
 366 643 l 2
 333 641 326 635 320 599 c 2
 222 43 l 2
 199 -88 104 -207 23 -207 c 0
 10 -207 -7 -204 -29 -197 c 1
 -29 -162 l 1
EndSplineSet
Validated: 1
AlternateSubs2: "'aalt' Access All Alternates lookup 0 subtable" j.sc
AlternateSubs2: "'aalt' Access All Alternates in Latin lookup 0 subtable" j.sc
Substitution2: "'c2sc' Capitals to Small Capitals in Latin lookup 13 subtable" j.sc
Position2: "'cpsp' Capital Spacing in Latin lookup 12 subtable" dx=7 dy=0 dh=14 dv=0
EndChar

StartChar: K
Encoding: 75 75 58
Width: 722
VWidth: 0
GlyphClass: 2
Flags: W
TeX: 681 0
HStem: -3 21G<-10 -7.71429 300 302.286 494 498 684 685.818> 648 30<676.083 745.964> 661 20G<89.7143 92>
AnchorPoint: "bot_acc" 291 -157 basechar 0
AnchorPoint: "dotbelow" 291 -157 basechar 0
AnchorPoint: "ogon_acc" 564 -157 basechar 0
AnchorPoint: "top_accu" 463 821 basechar 0
AnchorPoint: "dotabove" 463 821 basechar 0
LayerCount: 2
Fore
SplineSet
-10 -3 m 1xc0
 -6 32 l 1
 43 35 l 2
 76 37 82 47 97 132 c 2
 169 541 l 2
 175 575 178 599 178 613 c 0
 178 632 166 641 140 643 c 2
 88 646 l 1
 92 681 l 1xa0
 92 681 185 678 244 678 c 0xc0
 306 678 403 681 403 681 c 1
 399 646 l 1
 354 643 l 2
 321 641 314 635 308 599 c 2
 261 334 l 1
 281 345 300 361 370 426 c 2
 510 557 l 2
 526 568 561 616 577 632 c 0
 591 649 587 658 587 681 c 1xa0
 587 681 635 678 666 678 c 0xc0
 697 678 746 681 746 681 c 1xa0
 746 648 l 1
 711 648 l 2
 694 648 669 632 629 596 c 2
 384 373 l 1
 580 101 l 2
 620 46 627 39 648 36 c 2
 687 30 l 1
 684 -3 l 1
 684 -3 628 0 592 0 c 0
 555 0 498 -3 498 -3 c 1
 490 11 488 14 449 70 c 2
 320 253 l 2
 305 275 286 298 261 328 c 1
 221 100 l 2
 219 88 218 79 218 70 c 0
 218 45 226 37 255 35 c 2
 304 32 l 1
 300 -3 l 1
 300 -3 209 0 150 0 c 0
 88 0 -10 -3 -10 -3 c 1xc0
EndSplineSet
Validated: 33
AlternateSubs2: "'aalt' Access All Alternates lookup 0 subtable" k.sc
AlternateSubs2: "'aalt' Access All Alternates in Latin lookup 0 subtable" k.sc
Substitution2: "'c2sc' Capitals to Small Capitals in Latin lookup 13 subtable" k.sc
Position2: "'cpsp' Capital Spacing in Latin lookup 12 subtable" dx=7 dy=0 dh=14 dv=0
EndChar

StartChar: L
Encoding: 76 76 59
Width: 611
VWidth: 0
GlyphClass: 2
Flags: W
TeX: 681 0
HStem: -3 21G<26 28.5> 0 56<226 509.27> 661 20G<106.714 109 417.714 420>
VStem: 542 36<150.87 174>
AnchorPoint: "bot_acc" 127 -157 basechar 0
AnchorPoint: "dotbelow" 127 -157 basechar 0
AnchorPoint: "ogon_acc" 408 -157 basechar 0
AnchorPoint: "top_accu" 300 821 basechar 0
AnchorPoint: "dotabove" 300 821 basechar 0
AnchorPoint: "ccmped" 517 603 basechar 0
LayerCount: 2
Fore
SplineSet
26 -3 m 1xb0
 30 29 l 1
 58 32 l 2
 87 35 96 46 104 92 c 2
 186 541 l 2
 192 573 195 599 195 615 c 0
 195 632 183 642 157 643 c 2
 105 646 l 1
 109 681 l 1
 109 681 202 678 261 678 c 0
 323 678 420 681 420 681 c 1
 416 646 l 1
 371 643 l 2
 338 641 332 635 325 599 c 2
 226 56 l 1
 250 51 261 50 288 50 c 0
 337 50 423 53 462 56 c 0
 496 59 510 70 519 98 c 2
 542 174 l 1
 578 174 l 1
 559 81 552 50 544 0 c 1x70
 372 -3 l 2xb0
 294 -3 249 0 171 0 c 0x70
 114 0 26 -3 26 -3 c 1xb0
EndSplineSet
Validated: 1
AlternateSubs2: "'aalt' Access All Alternates lookup 0 subtable" l.sc
AlternateSubs2: "'aalt' Access All Alternates in Latin lookup 0 subtable" l.sc
Substitution2: "'c2sc' Capitals to Small Capitals in Latin lookup 13 subtable" l.sc
Position2: "'cpsp' Capital Spacing in Latin lookup 12 subtable" dx=7 dy=0 dh=14 dv=0
EndChar

StartChar: M
Encoding: 77 77 60
Width: 944
VWidth: 0
GlyphClass: 2
Flags: W
TeX: 681 0
HStem: -3 38<114.995 193.952 799.288 883.932> 661 20G<98.875 102 323 328.01 718.5 758 981.875 985>
AnchorPoint: "bot_acc" 401 -157 basechar 0
AnchorPoint: "dotbelow" 401 -157 basechar 0
AnchorPoint: "ogon_acc" 703 -157 basechar 0
AnchorPoint: "top_accu" 574 821 basechar 0
AnchorPoint: "dotabove" 574 821 basechar 0
LayerCount: 2
Fore
SplineSet
-23 -3 m 1
 -21 32 l 1
 21 35 l 2
 38 36 51 55 61 91 c 2
 186 552 l 2
 192 574 195 595 195 613 c 0
 195 634 179 644 142 646 c 2
 97 649 l 1
 102 681 l 1
 102 681 169 678 212 678 c 0
 255 678 323 681 323 681 c 1
 450 174 l 1
 620 441 679 538 758 681 c 1
 758 681 827 678 871 678 c 0
 915 678 985 681 985 681 c 1
 980 649 l 1
 941 646 l 2
 904 643 894 631 885 577 c 2
 805 110 l 1
 803 102 l 2
 800 83 798 72 798 65 c 0
 798 44 808 36 834 35 c 2
 889 32 l 1
 884 -3 l 1
 884 -3 791 0 732 0 c 0
 672 0 577 -3 577 -3 c 1
 582 32 l 1
 631 35 l 2
 662 40 665 44 673 81 c 2
 675 90 l 2
 676 94 677 101 677 101 c 1
 759 586 l 1
 468 108 l 1
 397 -17 l 1
 372 -17 l 1
 229 548 l 1
 122 108 l 2
 114 76 114 75 114 64 c 0
 114 44 123 36 148 35 c 2
 199 32 l 1
 194 -3 l 1
 194 -3 128 0 86 0 c 0
 43 0 -23 -3 -23 -3 c 1
EndSplineSet
Validated: 1
AlternateSubs2: "'aalt' Access All Alternates lookup 0 subtable" m.sc
AlternateSubs2: "'aalt' Access All Alternates in Latin lookup 0 subtable" m.sc
Substitution2: "'c2sc' Capitals to Small Capitals in Latin lookup 13 subtable" m.sc
Position2: "'cpsp' Capital Spacing in Latin lookup 12 subtable" dx=7 dy=0 dh=14 dv=0
EndChar

StartChar: N
Encoding: 78 78 61
Width: 778
VWidth: 0
GlyphClass: 2
Flags: W
TeX: 681 0
HStem: -3 21G<-2 -0.857143> 0 35<0 76.0563 149.062 225.951> 661 20G<65.125 67 282 293.651 589.875 593 825.25 829>
AnchorPoint: "bot_acc" 325 -157 basechar 0
AnchorPoint: "dotbelow" 325 -157 basechar 0
AnchorPoint: "ogon_acc" 550 -157 basechar 0
AnchorPoint: "top_accu" 497 821 basechar 0
AnchorPoint: "dotabove" 497 821 basechar 0
LayerCount: 2
Fore
SplineSet
-2 -3 m 1xa0
 0 32 l 1
 48 35 l 2x60
 70 36 80 50 88 91 c 2
 186 582 l 2
 188 592 171 617 153 629 c 0
 139 638 119 645 103 646 c 2
 64 649 l 1
 67 681 l 1
 67 681 132 678 174 678 c 0
 216 678 282 681 282 681 c 1
 596 142 l 1
 670 542 l 2
 673 561 676 590 676 612 c 0
 676 633 661 644 630 646 c 2
 588 649 l 1
 593 681 l 1
 593 681 665 678 711 678 c 0
 757 678 829 681 829 681 c 1
 823 649 l 1
 786 646 l 2
 767 644 760 642 752 636 c 0
 744 629 739 612 722 528 c 2
 636 100 l 2
 629 67 625 37 620 -3 c 1
 535 -3 l 1xa0
 225 534 l 1
 152 138 l 2
 147 111 144 88 144 76 c 0
 144 50 156 36 180 35 c 2x60
 231 32 l 1
 226 -3 l 1xa0
 226 -3 158 0 114 0 c 0x60
 69 0 -2 -3 -2 -3 c 1xa0
EndSplineSet
Validated: 33
AlternateSubs2: "'aalt' Access All Alternates lookup 0 subtable" n.sc
AlternateSubs2: "'aalt' Access All Alternates in Latin lookup 0 subtable" n.sc
Substitution2: "'c2sc' Capitals to Small Capitals in Latin lookup 13 subtable" n.sc
Position2: "'cpsp' Capital Spacing in Latin lookup 12 subtable" dx=7 dy=0 dh=14 dv=0
EndChar

StartChar: O
Encoding: 79 79 62
Width: 833
VWidth: 0
GlyphClass: 2
Flags: W
TeX: 681 0
HStem: -17 43<298.585 478.607> 652 43<382.183 570.69>
VStem: 76 138<141.151 408.604> 656 138<273.579 535.138>
AnchorPoint: "bot_acc" 343 -157 basechar 0
AnchorPoint: "dotbelow" 343 -157 basechar 0
AnchorPoint: "ogon_acc" 343 -157 basechar 0
AnchorPoint: "top_accu" 515 821 basechar 0
AnchorPoint: "dotabove" 515 821 basechar 0
LayerCount: 2
Fore
SplineSet
76 268 m 0
 76 518 249 695 493 695 c 0
 588 695 667 666 721 612 c 0
 770 563 794 499 794 414 c 0
 794 170 608 -17 365 -17 c 0
 182 -17 76 87 76 268 c 0
214 239 m 0
 214 99 274 26 388 26 c 0
 473 26 541 69 589 153 c 0
 631 226 656 332 656 435 c 0
 656 579 596 652 480 652 c 0
 394 652 332 616 285 537 c 0
 243 467 214 346 214 239 c 0
EndSplineSet
Validated: 1
AlternateSubs2: "'aalt' Access All Alternates lookup 0 subtable" o.sc
AlternateSubs2: "'aalt' Access All Alternates in Latin lookup 0 subtable" o.sc
Substitution2: "'c2sc' Capitals to Small Capitals in Latin lookup 13 subtable" o.sc
Position2: "'cpsp' Capital Spacing in Latin lookup 12 subtable" dx=7 dy=0 dh=14 dv=0
EndChar

StartChar: P
Encoding: 80 80 63
Width: 667
VWidth: 0
GlyphClass: 2
Flags: W
TeX: 681 0
HStem: -3 21G<11 13.2857 331 333.286> 0 35<240.984 330.928> 281 41<325.959 459.927> 638 43<337 492.372>
VStem: 541 132<424.534 592.549>
AnchorPoint: "bot_acc" 257 -157 basechar 0
AnchorPoint: "dotbelow" 257 -157 basechar 0
AnchorPoint: "ogon_acc" 143 -157 basechar 0
AnchorPoint: "top_accu" 430 821 basechar 0
AnchorPoint: "dotabove" 430 821 basechar 0
LayerCount: 2
Fore
SplineSet
11 -3 m 1xb8
 15 32 l 1
 64 35 l 2
 97 37 103 47 118 132 c 2
 200 594 l 2
 201 601 202 609 202 614 c 0
 202 637 192 644 156 646 c 2
 100 649 l 1
 105 681 l 1
 105 681 207 678 273 678 c 0
 349 678 391 681 467 681 c 0
 564 681 673 626 673 518 c 0
 673 387 561 281 422 281 c 0
 389 281 361 286 325 299 c 1
 323 334 l 1
 347 326 366 322 389 322 c 0
 476 322 541 403 541 511 c 0
 541 599 497 638 399 638 c 0
 381 638 364 637 337 635 c 1
 242 100 l 2
 240 89 239 77 239 66 c 0
 239 45 249 36 276 35 c 2x78
 335 32 l 1
 331 -3 l 1xb8
 331 -3 232 0 168 0 c 0x78
 107 0 11 -3 11 -3 c 1xb8
EndSplineSet
Validated: 1
AlternateSubs2: "'aalt' Access All Alternates lookup 0 subtable" p.sc
AlternateSubs2: "'aalt' Access All Alternates in Latin lookup 0 subtable" p.sc
Substitution2: "'c2sc' Capitals to Small Capitals in Latin lookup 13 subtable" p.sc
Position2: "'cpsp' Capital Spacing in Latin lookup 12 subtable" dx=7 dy=0 dh=14 dv=0
EndChar

StartChar: Q
Encoding: 81 81 64
Width: 833
VWidth: 0
GlyphClass: 2
Flags: W
TeX: 681 -222
HStem: -222 89<565.199 684.165> -70 58<206.356 332.882> -17 43<298.585 478.607> 652 43<382.183 570.69>
VStem: 76 138<141.151 408.604> 150 29<-154 -111.033> 656 138<273.579 535.138> 738 31<-86.7324 -50.7419>
AnchorPoint: "bot_acc" 337 -355 basechar 0
AnchorPoint: "dotbelow" 337 -355 basechar 0
AnchorPoint: "ogon_acc" 400 3956 basechar 0
AnchorPoint: "top_accu" 544 821 basechar 0
AnchorPoint: "dotabove" 544 821 basechar 0
LayerCount: 2
Fore
SplineSet
76 268 m 0xba
 76 518 249 695 493 695 c 0
 588 695 667 666 721 612 c 0
 770 563 794 499 794 414 c 0
 794 170 608 -17 365 -17 c 0
 182 -17 76 87 76 268 c 0xba
150 -154 m 1xd5
 151 -64 199 -12 282 -12 c 0
 314 -12 365 -26 420 -50 c 2
 514 -91 l 2
 574 -117 628 -133 657 -133 c 0
 700 -133 726 -104 738 -43 c 1
 769 -53 l 1
 747 -161 690 -222 610 -222 c 0
 584 -222 566 -216 528 -196 c 2
 329 -89 l 2
 306 -77 281 -70 257 -70 c 0
 210 -70 180 -109 179 -168 c 1
 174 -170 l 1
 150 -154 l 1xd5
214 239 m 0xba
 214 99 274 26 388 26 c 0
 473 26 541 69 589 153 c 0
 631 226 656 332 656 435 c 0
 656 579 596 652 480 652 c 0
 394 652 332 616 285 537 c 0
 243 467 214 346 214 239 c 0xba
EndSplineSet
Validated: 1
AlternateSubs2: "'aalt' Access All Alternates lookup 0 subtable" q.sc
AlternateSubs2: "'aalt' Access All Alternates in Latin lookup 0 subtable" q.sc
Substitution2: "'c2sc' Capitals to Small Capitals in Latin lookup 13 subtable" q.sc
Position2: "'cpsp' Capital Spacing in Latin lookup 12 subtable" dx=7 dy=0 dh=14 dv=0
EndChar

StartChar: R
Encoding: 82 82 65
Width: 722
VWidth: 0
GlyphClass: 2
Flags: W
TeX: 681 0
HStem: -3 21G<4 6.28571 697 697> 0 35<233.984 323.928> 638 43<328 485.708>
VStem: 527 132<455.402 600.928>
AnchorPoint: "bot_acc" 250 -157 basechar 0
AnchorPoint: "dotbelow" 250 -157 basechar 0
AnchorPoint: "ogon_acc" 579 -157 basechar 0
AnchorPoint: "top_accu" 422 821 basechar 0
AnchorPoint: "dotabove" 422 821 basechar 0
LayerCount: 2
Fore
SplineSet
4 -3 m 1xb0
 8 32 l 1
 57 35 l 2x70
 90 37 96 47 111 132 c 2
 192 594 l 2
 193 601 194 609 194 614 c 0
 194 637 184 644 148 646 c 2
 102 649 l 1
 107 681 l 1
 107 681 211 678 277 678 c 0
 348 678 389 681 460 681 c 0
 550 681 659 633 659 538 c 0
 659 480 632 430 582 398 c 0
 548 376 518 365 454 353 c 1
 610 86 l 2
 624 61 649 35 660 34 c 2
 697 27 l 1
 697 -3 l 1xb0
 697 -3 637 0 599 0 c 0x70
 566 0 515 -3 515 -3 c 1xb0
 370 258 l 2
 351 292 330 321 309 353 c 1
 314 370 l 1
 369 370 l 2
 461 370 527 437 527 529 c 0
 527 606 487 638 390 638 c 0
 371 638 354 637 328 635 c 1
 235 100 l 2
 233 89 232 77 232 66 c 0
 232 45 242 36 269 35 c 2x70
 328 32 l 1
 324 -3 l 1xb0
 324 -3 225 0 161 0 c 0x70
 100 0 4 -3 4 -3 c 1xb0
EndSplineSet
Validated: 1
AlternateSubs2: "'aalt' Access All Alternates lookup 0 subtable" r.sc
AlternateSubs2: "'aalt' Access All Alternates in Latin lookup 0 subtable" r.sc
Substitution2: "'c2sc' Capitals to Small Capitals in Latin lookup 13 subtable" r.sc
Position2: "'cpsp' Capital Spacing in Latin lookup 12 subtable" dx=7 dy=0 dh=14 dv=0
EndChar

StartChar: S
Encoding: 83 83 66
Width: 556
VWidth: 0
GlyphClass: 2
Flags: W
TeX: 681 0
HStem: -17 56<151.038 330.912> 639 56<264.547 424.2>
VStem: 71 27<133.667 189> 104 92<407 544.215> 389 106<144.792 256.5> 465 30<504 599.348>
AnchorPoint: "bot_acc" 215 -157 basechar 0
AnchorPoint: "dotbelow" 215 -157 basechar 0
AnchorPoint: "ogon_acc" 215 -157 basechar 0
AnchorPoint: "top_accu" 388 821 basechar 0
AnchorPoint: "dotabove" 388 821 basechar 0
LayerCount: 2
Fore
SplineSet
50 23 m 1xf8
 71 189 l 1
 98 189 l 1
 98 113 l 1
 124 64 175 39 250 39 c 0
 340 39 389 83 389 162 c 0xf8
 389 192 380 218 364 232 c 0
 345 250 334 255 266 280 c 0
 141 325 104 364 104 450 c 0
 104 583 225 695 370 695 c 0
 424 695 474 680 517 651 c 1
 503 600 495 552 495 504 c 1
 465 504 l 1
 465 589 l 1xf4
 424 624 383 639 331 639 c 0
 252 639 196 592 196 526 c 0
 196 467 227 437 324 401 c 0
 407 370 428 359 457 333 c 0
 480 312 495 274 495 239 c 0
 495 161 451 82 381 32 c 0
 332 -2 279 -17 210 -17 c 0
 140 -17 96 -6 50 23 c 1xf8
EndSplineSet
Validated: 1
AlternateSubs2: "'aalt' Access All Alternates lookup 0 subtable" s.sc
AlternateSubs2: "'aalt' Access All Alternates in Latin lookup 0 subtable" s.sc
Substitution2: "'c2sc' Capitals to Small Capitals in Latin lookup 13 subtable" s.sc
Position2: "'cpsp' Capital Spacing in Latin lookup 12 subtable" dx=7 dy=0 dh=14 dv=0
EndChar

StartChar: T
Encoding: 84 84 67
Width: 611
VWidth: 0
GlyphClass: 2
Flags: W
TeX: 681 0
HStem: -3 21G<103 105.857 427 429.857> 630 48<125.563 304 436 607.281> 661 20G<667 674>
VStem: 56 38<508 537> 606 38<508 547.2>
AnchorPoint: "bot_acc" 231 -157 basechar 0
AnchorPoint: "dotbelow" 231 -157 basechar 0
AnchorPoint: "ogon_acc" 231 -157 basechar 0
AnchorPoint: "top_accu" 404 821 basechar 0
AnchorPoint: "dotabove" 404 821 basechar 0
LayerCount: 2
Fore
SplineSet
56 508 m 1xd8
 81 676 l 1
 87 681 l 1xb8
 87 681 264 678 377 678 c 0xd8
 490 678 667 681 667 681 c 1xb8
 674 676 l 1
 644 508 l 1
 606 508 l 1
 610 592 l 2
 611 618 594 630 553 630 c 2
 436 630 l 1
 341 100 l 2
 338 83 337 75 337 65 c 0
 337 44 346 36 373 35 c 2
 432 32 l 1
 427 -3 l 1
 427 -3 325 0 259 0 c 0
 198 0 103 -3 103 -3 c 1
 108 32 l 1
 161 35 l 2
 193 37 205 53 219 132 c 2
 304 630 l 1
 180 630 l 2
 160 630 136 620 123 606 c 0
 118 599 113 587 108 566 c 2
 94 508 l 1
 56 508 l 1xd8
EndSplineSet
Validated: 33
AlternateSubs2: "'aalt' Access All Alternates lookup 0 subtable" t.sc
AlternateSubs2: "'aalt' Access All Alternates in Latin lookup 0 subtable" t.sc
Substitution2: "'c2sc' Capitals to Small Capitals in Latin lookup 13 subtable" t.sc
Position2: "'cpsp' Capital Spacing in Latin lookup 12 subtable" dx=7 dy=0 dh=14 dv=0
EndChar

StartChar: U
Encoding: 85 85 68
Width: 778
VWidth: 0
GlyphClass: 2
Flags: W
TeX: 681 0
HStem: -17 80<261.507 366.33> -3 21G<492 497 721 723.857> 0 35<632.599 720.948> 643 38<88.0589 169.931 514.068 595.931>
VStem: 94 130<99.243 306.695>
AnchorPoint: "bot_acc" 315 -157 basechar 0
AnchorPoint: "dotbelow" 315 -157 basechar 0
AnchorPoint: "ogon_acc" 579 -157 basechar 0
AnchorPoint: "top_accu" 487 821 basechar 0
AnchorPoint: "dotabove" 487 821 basechar 0
LayerCount: 2
Fore
SplineSet
83 646 m 1x98
 88 681 l 1
 88 681 169 677 220 678 c 0
 254 678 307 681 307 681 c 1
 313 674 l 1
 227 214 l 2
 225 203 224 192 224 179 c 0
 224 150 229 125 238 110 c 0
 254 82 290 63 327 63 c 0x98
 356 63 385 72 421 93 c 0
 469 120 518 164 521 182 c 2
 586 541 l 2
 595 590 597 606 597 617 c 0
 597 633 585 642 560 643 c 2
 509 646 l 1
 514 681 l 1
 514 681 607 678 666 678 c 0
 728 678 825 681 825 681 c 1
 820 646 l 1
 774 643 l 2
 739 641 732 635 725 599 c 2
 635 100 l 2
 632 83 631 75 631 65 c 0
 631 44 640 36 667 35 c 2x38
 726 32 l 1
 721 -3 l 1x58
 721 -3 649 0 603 0 c 0x38
 562 0 497 -3 497 -3 c 1x58
 492 5 l 1
 519 133 l 1
 461 71 438 51 403 26 c 0
 365 -1 318 -17 271 -17 c 0
 208 -17 153 9 122 53 c 0
 103 79 94 113 94 156 c 0
 94 180 97 205 102 234 c 2
 160 541 l 2
 168 585 171 592 171 617 c 0
 171 633 159 642 134 643 c 2
 83 646 l 1x98
EndSplineSet
Validated: 33
AlternateSubs2: "'aalt' Access All Alternates lookup 0 subtable" u.sc
AlternateSubs2: "'aalt' Access All Alternates in Latin lookup 0 subtable" u.sc
Substitution2: "'c2sc' Capitals to Small Capitals in Latin lookup 13 subtable" u.sc
Position2: "'cpsp' Capital Spacing in Latin lookup 12 subtable" dx=7 dy=0 dh=14 dv=0
EndChar

StartChar: V
Encoding: 86 86 69
Width: 667
VWidth: 0
GlyphClass: 2
Flags: W
TeX: 681 0
HStem: -3 21G<245.769 343.115> 643 35<528.048 605.525> 661 20G<67 67>
AnchorPoint: "bot_acc" 260 -157 basechar 0
AnchorPoint: "dotbelow" 260 -157 basechar 0
AnchorPoint: "ogon_acc" 260 -157 basechar 0
AnchorPoint: "top_accu" 432 821 basechar 0
AnchorPoint: "dotabove" 432 821 basechar 0
LayerCount: 2
Fore
SplineSet
67 646 m 1xc0
 67 681 l 1xa0
 67 681 157 678 215 678 c 0xc0
 273 678 363 681 363 681 c 1xa0
 363 646 l 1
 313 643 l 2
 288 641 283 636 283 607 c 0
 283 602 283 600 284 594 c 2
 352 132 l 1
 585 567 l 2
 602 599 606 609 606 621 c 0
 606 635 596 642 573 643 c 2xc0
 523 646 l 1
 528 681 l 1xa0
 528 681 594 678 637 678 c 0xc0
 679 678 745 681 745 681 c 1xa0
 742 646 l 1
 716 643 l 2
 695 641 686 634 666 598 c 2
 332 -3 l 1
 249 -3 l 1
 154 585 l 2
 147 627 136 641 110 643 c 2
 67 646 l 1xc0
EndSplineSet
Validated: 1
AlternateSubs2: "'aalt' Access All Alternates lookup 0 subtable" v.sc
AlternateSubs2: "'aalt' Access All Alternates in Latin lookup 0 subtable" v.sc
Substitution2: "'c2sc' Capitals to Small Capitals in Latin lookup 13 subtable" v.sc
Position2: "'cpsp' Capital Spacing in Latin lookup 12 subtable" dx=7 dy=0 dh=14 dv=0
EndChar

StartChar: W
Encoding: 87 87 70
Width: 1000
VWidth: 0
GlyphClass: 2
Flags: W
TeX: 681 0
HStem: -3 21G<206.081 301.96 663.696 761.037> 661 20G<69.1429 72 363 363 571.257 617.324 852.143 855 1070.14 1073>
AnchorPoint: "bot_acc" 447 -157 basechar 0
AnchorPoint: "dotbelow" 447 -157 basechar 0
AnchorPoint: "ogon_acc" 684 -157 basechar 0
AnchorPoint: "top_accu" 620 821 basechar 0
AnchorPoint: "dotabove" 620 821 basechar 0
LayerCount: 2
Fore
SplineSet
67 646 m 1
 72 681 l 1
 72 681 160 678 217 678 c 0
 274 678 363 681 363 681 c 1
 363 646 l 1
 318 643 l 2
 289 641 278 628 281 593 c 2
 316 145 l 1
 581 689 l 1
 612 689 l 1
 760 133 l 1
 929 579 l 2
 939 605 940 609 940 619 c 0
 940 635 929 641 895 643 c 2
 850 646 l 1
 855 681 l 1
 855 681 921 678 964 678 c 0
 1007 678 1073 681 1073 681 c 1
 1068 646 l 1
 1034 643 l 2
 1016 641 1007 629 972 542 c 2
 753 -3 l 1
 669 -3 l 1
 538 491 l 1
 292 -3 l 1
 208 -3 l 1
 156 539 l 2
 149 630 146 640 108 643 c 2
 67 646 l 1
EndSplineSet
Validated: 33
AlternateSubs2: "'aalt' Access All Alternates lookup 0 subtable" w.sc
AlternateSubs2: "'aalt' Access All Alternates in Latin lookup 0 subtable" w.sc
Substitution2: "'c2sc' Capitals to Small Capitals in Latin lookup 13 subtable" w.sc
Position2: "'cpsp' Capital Spacing in Latin lookup 12 subtable" dx=7 dy=0 dh=14 dv=0
EndChar

StartChar: X
Encoding: 88 88 71
Width: 722
VWidth: 0
GlyphClass: 2
Flags: W
TeX: 681 0
HStem: -3 38<170.009 253.943 380.068 460.994 610.659 683.933> 661 20G<82 82 402 402 509.143 512 770.857 772>
AnchorPoint: "bot_acc" 296 -157 basechar 0
AnchorPoint: "dotbelow" 296 -157 basechar 0
AnchorPoint: "ogon_acc" 502 -157 basechar 0
AnchorPoint: "top_accu" 468 821 basechar 0
AnchorPoint: "dotabove" 468 821 basechar 0
LayerCount: 2
Fore
SplineSet
-9 -3 m 1
 -4 32 l 1
 36 35 l 2
 53 36 76 48 88 61 c 2
 330 323 l 1
 178 614 l 2
 170 629 147 641 122 643 c 2
 82 646 l 1
 82 681 l 1
 82 681 180 678 242 678 c 0
 304 678 402 681 402 681 c 1
 402 646 l 1
 362 643 l 2
 331 641 323 637 323 626 c 0
 323 616 326 605 332 593 c 2
 421 418 l 1
 573 590 l 1
 574 591 l 2
 589 606 594 616 594 624 c 0
 594 635 580 641 555 643 c 2
 507 646 l 1
 512 681 l 1
 512 681 591 678 642 678 c 0
 693 678 772 681 772 681 c 1
 770 646 l 1
 726 643 l 2
 712 644 675 619 648 590 c 2
 443 377 l 1
 594 82 l 2
 614 44 622 36 642 35 c 2
 689 32 l 1
 684 -3 l 1
 684 -3 592 0 533 0 c 0
 473 0 380 -3 380 -3 c 1
 380 32 l 1
 442 34 l 2
 453 34 461 41 461 50 c 0
 461 59 458 73 454 81 c 2
 353 280 l 1
 185 88 l 2
 175 77 170 64 170 52 c 0
 170 42 182 36 204 35 c 2
 259 32 l 1
 254 -3 l 1
 254 -3 175 0 125 0 c 0
 73 0 -9 -3 -9 -3 c 1
EndSplineSet
Validated: 33
AlternateSubs2: "'aalt' Access All Alternates lookup 0 subtable" x.sc
AlternateSubs2: "'aalt' Access All Alternates in Latin lookup 0 subtable" x.sc
Substitution2: "'c2sc' Capitals to Small Capitals in Latin lookup 13 subtable" x.sc
Position2: "'cpsp' Capital Spacing in Latin lookup 12 subtable" dx=7 dy=0 dh=14 dv=0
EndChar

StartChar: Y
Encoding: 89 89 72
Width: 611
VWidth: 0
GlyphClass: 2
Flags: W
TeX: 681 0
HStem: -3 21G<139 141.286 459 461.286> 0 35<368.844 458.928> 593 88<619.506 669> 597 98<93.5 184.5>
VStem: 266 101<67 245>
AnchorPoint: "bot_acc" 261 -157 basechar 0
AnchorPoint: "dotbelow" 261 -157 basechar 0
AnchorPoint: "ogon_acc" 261 -157 basechar 0
AnchorPoint: "top_accu" 433 821 basechar 0
AnchorPoint: "dotabove" 433 821 basechar 0
LayerCount: 2
Fore
SplineSet
54 620 m 1x58
 79 637 91 646 144 690 c 1
 159 694 164 695 172 695 c 0x58
 197 695 225 684 245 666 c 0
 281 634 315 557 334 466 c 2
 370 297 l 1
 460 518 593 686 675 681 c 1
 669 593 l 1
 635 589 589 557 553 517 c 0
 487 442 403 283 392 217 c 0
 390 208 390 206 370 100 c 0
 368 89 367 78 367 67 c 0
 367 44 376 36 404 35 c 2x68
 463 32 l 1
 459 -3 l 1x88
 459 -3 360 0 296 0 c 0x48
 235 0 139 -3 139 -3 c 1x88
 143 32 l 1
 192 35 l 2
 226 37 226 39 246 132 c 0
 253 163 266 209 266 245 c 0
 266 289 219 429 211 456 c 0
 185 541 142 597 102 597 c 0
 85 597 67 593 57 587 c 1
 54 620 l 1x58
EndSplineSet
Validated: 33
AlternateSubs2: "'aalt' Access All Alternates lookup 0 subtable" y.sc
AlternateSubs2: "'aalt' Access All Alternates in Latin lookup 0 subtable" y.sc
Substitution2: "'c2sc' Capitals to Small Capitals in Latin lookup 13 subtable" y.sc
Position2: "'cpsp' Capital Spacing in Latin lookup 12 subtable" dx=7 dy=0 dh=14 dv=0
EndChar

StartChar: Z
Encoding: 90 90 73
Width: 667
VWidth: 0
GlyphClass: 2
Flags: W
TeX: 681 0
HStem: -3 21G<1 1 595 599.262> 0 49<188 550.376> 629 49<171.748 496> 661 20G<120 127 673.143 676>
VStem: 94 35<510 532.167> 598 36<147.154 180>
AnchorPoint: "bot_acc" 254 -157 basechar 0
AnchorPoint: "dotbelow" 254 -157 basechar 0
AnchorPoint: "ogon_acc" 453 -157 basechar 0
AnchorPoint: "top_accu" 426 821 basechar 0
AnchorPoint: "dotabove" 426 821 basechar 0
LayerCount: 2
Fore
SplineSet
1 -3 m 1x8c
 1 24 l 1
 496 629 l 1
 332 629 l 2xac
 263 629 186 622 171 615 c 0
 164 612 158 603 153 586 c 2
 129 510 l 1
 94 510 l 1
 106 563 112 601 120 670 c 1
 127 681 l 1x1c
 127 681 292 678 397 678 c 0x2c
 506 678 676 681 676 681 c 1
 671 646 l 1
 188 49 l 1
 368 49 l 2x5c
 442 49 497 53 553 64 c 1
 574 108 585 136 598 180 c 1
 634 180 l 1
 595 -3 l 1x8c
 595 -3 408 0 289 0 c 0x4c
 177 0 1 -3 1 -3 c 1x8c
EndSplineSet
Validated: 1
AlternateSubs2: "'aalt' Access All Alternates lookup 0 subtable" z.sc
AlternateSubs2: "'aalt' Access All Alternates in Latin lookup 0 subtable" z.sc
Substitution2: "'c2sc' Capitals to Small Capitals in Latin lookup 13 subtable" z.sc
Position2: "'cpsp' Capital Spacing in Latin lookup 12 subtable" dx=7 dy=0 dh=14 dv=0
EndChar

StartChar: asciicircum
Encoding: 94 94 74
Width: 606
VWidth: 0
Flags: W
TeX: 681 0
LayerCount: 2
Fore
SplineSet
63 275 m 1
 263 678 l 1
 342 678 l 1
 543 275 l 1
 446 275 l 1
 303 554 l 1
 160 275 l 1
 63 275 l 1
EndSplineSet
Validated: 1
EndChar

StartChar: underscore
Encoding: 95 95 75
Width: 500
VWidth: 0
Flags: W
TeX: 0 -125
HStem: -145 70<0 496>
LayerCount: 2
Fore
SplineSet
-4 -145 m 1
 0 -75 l 1
 500 -75 l 1
 496 -145 l 1
 -4 -145 l 1
EndSplineSet
Validated: 1
EndChar

StartChar: a
Encoding: 97 97 76
Width: 556
VWidth: 0
GlyphClass: 2
Flags: W
TeX: 452 0
HStem: -17 82<111.781 184.5> 417 52<256.415 375.899>
VStem: 44 112<27.0589 199.677>
AnchorPoint: "bot_acc" 219 -157 basechar 0
AnchorPoint: "dotbelow" 219 -157 basechar 0
AnchorPoint: "ogon_acc" 320 -157 basechar 0
AnchorPoint: "top_accl" 354 609 basechar 0
AnchorPoint: "dotabove" 354 609 basechar 0
LayerCount: 2
Fore
SplineSet
44 58 m 0
 44 137 79 271 114 326 c 0
 130 351 192 405 248 442 c 0
 279 463 301 469 342 469 c 0
 375 469 397 463 444 443 c 1
 489 470 l 1
 505 458 l 1
 487 408 480 385 473 353 c 2
 428 139 l 1
 418 90 l 1
 420 72 423 65 432 65 c 0
 443 65 465 79 487 96 c 2
 507 112 l 1
 519 82 l 1
 443 15 387 -17 345 -17 c 0
 325 -17 313 0 313 27 c 0
 313 45 315 64 320 83 c 2
 357 234 l 1
 264 71 174 -17 98 -17 c 0
 66 -17 44 14 44 58 c 0
156 102 m 0
 156 82 164 65 173 65 c 0
 195 65 233 99 274 153 c 0
 330 228 363 305 377 395 c 1
 343 411 322 417 295 417 c 0
 253 417 225 388 203 318 c 0
 178 240 156 139 156 102 c 0
EndSplineSet
Validated: 1
AlternateSubs2: "'aalt' Access All Alternates lookup 0 subtable" a.sc
AlternateSubs2: "'aalt' Access All Alternates in Latin lookup 0 subtable" a.sc
Substitution2: "'smcp' Lowercase to Small Capitals in Latin lookup 2 subtable" a.sc
EndChar

StartChar: b
Encoding: 98 98 77
Width: 537
VWidth: 0
GlyphClass: 2
Flags: W
TeX: 726 0
HStem: -17 46<127.5 268.384> 403 66<330.666 444> 652 28<57 126.848> 706 20G<230.5 265>
VStem: 44 110<48.9997 233.363> 380 114<213.98 395.671>
AnchorPoint: "bot_acc" 160 -157 basechar 0
AnchorPoint: "dotbelow" 160 -157 basechar 0
AnchorPoint: "ogon_acc" 160 -157 basechar 0
AnchorPoint: "top_accu" 233 883 basechar 0
AnchorPoint: "dotabove" 387 609 basechar 0
LayerCount: 2
Fore
SplineSet
44 93 m 0
 44 109 45 120 53 165 c 2
 126 596 l 2
 128 608 129 618 129 627 c 0
 129 644 118 652 95 652 c 2
 50 652 l 1
 57 680 l 1
 157 695 206 706 255 726 c 1
 265 717 l 1
 251 652 l 1
 180 304 l 1
 220 363 242 389 279 416 c 0
 327 451 374 469 420 469 c 0
 468 469 494 428 494 353 c 0
 494 206 436 96 324 31 c 0
 272 1 212 -17 165 -17 c 0
 90 -17 44 24 44 93 c 0
154 118 m 0
 154 63 180 29 222 29 c 0
 263 29 301 61 331 121 c 0
 356 172 380 268 380 319 c 0
 380 369 367 403 341 403 c 0
 301 403 223 340 193 277 c 0
 169 226 154 163 154 118 c 0
EndSplineSet
Validated: 1
AlternateSubs2: "'aalt' Access All Alternates lookup 0 subtable" b.sc
AlternateSubs2: "'aalt' Access All Alternates in Latin lookup 0 subtable" b.sc
Substitution2: "'smcp' Lowercase to Small Capitals in Latin lookup 2 subtable" b.sc
EndChar

StartChar: c
Encoding: 99 99 78
Width: 444
VWidth: 0
GlyphClass: 2
Flags: W
TeX: 452 0
HStem: -17 67<119.5 257.768> 407 62<238.618 352.136>
VStem: 32 114<75.0016 259.145> 368 33<304 360>
AnchorPoint: "bot_acc" 179 -157 basechar 0
AnchorPoint: "dotbelow" 179 -157 basechar 0
AnchorPoint: "ogon_acc" 179 -157 basechar 0
AnchorPoint: "top_accl" 314 609 basechar 0
AnchorPoint: "dotabove" 314 609 basechar 0
LayerCount: 2
Fore
SplineSet
32 119 m 0
 32 191 55 285 84 331 c 0
 102 358 136 387 185 417 c 0
 252 458 281 469 322 469 c 0
 358 469 382 464 436 445 c 1
 422 408 417 388 401 304 c 1
 368 304 l 1
 374 360 l 1
 370 374 l 1
 338 397 309 407 278 407 c 0
 237 407 205 383 185 337 c 0
 164 289 146 198 146 140 c 0
 146 85 177 50 225 50 c 0
 273 50 312 67 391 120 c 1
 401 90 l 1
 283 8 227 -17 158 -17 c 0
 81 -17 32 36 32 119 c 0
EndSplineSet
Validated: 1
AlternateSubs2: "'aalt' Access All Alternates lookup 0 subtable" c.sc
AlternateSubs2: "'aalt' Access All Alternates in Latin lookup 0 subtable" c.sc
Substitution2: "'smcp' Lowercase to Small Capitals in Latin lookup 2 subtable" c.sc
EndChar

StartChar: d
Encoding: 100 100 79
Width: 556
VWidth: 0
GlyphClass: 2
Flags: W
TeX: 726 0
HStem: 419 50<246.963 382.786> 652 28<342 411.751> 706 20G<515.5 550>
VStem: 38 114<34.3427 222.357> 315 109<13.7168 131.117>
AnchorPoint: "bot_acc" 235 -157 basechar 0
AnchorPoint: "dotbelow" 235 -157 basechar 0
AnchorPoint: "ogon_acc" 325 -157 basechar 0
AnchorPoint: "top_accu" 521 883 basechar 0
AnchorPoint: "dotabove" 220 609 basechar 0
AnchorPoint: "ccmped" 654 603 basechar 0
LayerCount: 2
Fore
SplineSet
38 70 m 0
 38 168 72 297 112 348 c 0
 137 381 199 426 256 452 c 0
 282 464 304 469 331 469 c 0
 351 469 367 467 396 460 c 1
 414 572 l 2
 417 593 418 599 418 610 c 0
 418 639 407 652 380 652 c 2
 335 652 l 1
 342 680 l 1
 442 695 491 706 540 726 c 1
 550 717 l 1
 545 695 540 674 536 652 c 2
 429 121 l 2
 426 105 424 91 424 81 c 0
 424 73 430 65 438 65 c 0
 443 65 453 71 487 93 c 2
 513 110 l 1
 522 82 l 1
 486 56 l 2
 427 14 372 -17 350 -17 c 0
 331 -17 315 1 315 24 c 0
 315 38 317 55 322 74 c 2
 362 238 l 1
 297 130 264 86 217 45 c 0
 168 3 132 -17 101 -17 c 0
 65 -17 38 20 38 70 c 0
152 92 m 0
 152 76 162 65 176 65 c 0
 195 65 225 87 254 124 c 0
 307 190 349 262 360 306 c 2
 384 401 l 1
 347 415 327 419 299 419 c 0
 249 419 231 406 208 353 c 0
 179 287 152 159 152 92 c 0
EndSplineSet
Validated: 1
AlternateSubs2: "'aalt' Access All Alternates lookup 0 subtable" d.sc
AlternateSubs2: "'aalt' Access All Alternates in Latin lookup 0 subtable" d.sc
Substitution2: "'smcp' Lowercase to Small Capitals in Latin lookup 2 subtable" d.sc
EndChar

StartChar: e
Encoding: 101 101 80
Width: 444
VWidth: 0
GlyphClass: 2
Flags: W
TeX: 452 0
HStem: -17 64<111.5 244.959> 421 48<234.6 353.5>
VStem: 28 114<66.3563 213.156> 324 94<310.621 414.046>
AnchorPoint: "bot_acc" 174 -157 basechar 0
AnchorPoint: "dotbelow" 174 -157 basechar 0
AnchorPoint: "ogon_acc" 174 -157 basechar 0
AnchorPoint: "top_accl" 309 609 basechar 0
AnchorPoint: "dotabove" 309 609 basechar 0
LayerCount: 2
Fore
SplineSet
28 98 m 0
 28 169 55 272 88 331 c 0
 127 400 246 469 325 469 c 0
 382 469 418 435 418 382 c 0
 418 323 383 277 311 243 c 0
 269 223 233 212 147 193 c 1
 143 164 142 149 142 129 c 0
 142 77 168 47 215 47 c 0
 256 47 302 66 377 114 c 1
 387 86 l 1
 375 78 370 76 358 68 c 0
 258 4 210 -17 149 -17 c 0
 74 -17 28 27 28 98 c 0
151 219 m 1
 192 231 l 2
 274 255 324 307 324 368 c 0
 324 401 306 421 276 421 c 0
 227 421 187 370 165 277 c 2
 151 219 l 1
EndSplineSet
Validated: 1
AlternateSubs2: "'aalt' Access All Alternates lookup 0 subtable" e.sc
AlternateSubs2: "'aalt' Access All Alternates in Latin lookup 0 subtable" e.sc
Substitution2: "'smcp' Lowercase to Small Capitals in Latin lookup 2 subtable" e.sc
EndChar

StartChar: f
Encoding: 102 102 81
Width: 333
VWidth: 0
GlyphClass: 2
Flags: W
TeX: 726 -271
HStem: -271 75<-102.88 -12> 403 59<252.007 367.846> 403 51<250 366.225> 403 25<39 60.875> 646 80<313.5 409>
AnchorPoint: "bot_acc" 44 -428 basechar 0
AnchorPoint: "dotbelow" 44 -428 basechar 0
AnchorPoint: "ogon_acc" -139 -428 basechar 0
AnchorPoint: "top_accl" 271 859 basechar 0
AnchorPoint: "dotabove" 271 859 basechar 0
LayerCount: 2
Fore
SplineSet
-130 -262 m 1x98
 -119 -238 -103 -183 -98 -155 c 1
 -81 -152 l 1
 -67 -183 -52 -196 -30 -196 c 0
 6 -196 17 -168 46 -14 c 2
 125 403 l 1
 34 403 l 1
 39 428 l 1x98
 89 444 l 2
 114 452 128 458 139 463 c 1
 140 469 141 472 143 483 c 0
 155 542 165 562 210 602 c 2
 266 651 l 2
 282 665 319 691 350 710 c 0
 371 723 382 726 402 726 c 0
 416 726 428 724 449 718 c 1
 436 671 429 640 421 593 c 1
 406 590 l 1
 375 634 359 646 333 646 c 0
 294 646 283 615 256 483 c 2
 250 454 l 1xa8
 293 454 324 457 373 462 c 1xc8
 378 454 l 1xa8
 372 440 369 429 362 403 c 1xc8
 239 403 l 1
 184 168 l 2
 136 -37 106 -113 44 -185 c 0
 3 -232 -58 -271 -92 -271 c 0
 -105 -271 -121 -267 -130 -262 c 1x98
EndSplineSet
Validated: 1
AlternateSubs2: "'aalt' Access All Alternates lookup 0 subtable" f.sc
AlternateSubs2: "'aalt' Access All Alternates in Latin lookup 0 subtable" f.sc
Substitution2: "'smcp' Lowercase to Small Capitals in Latin lookup 2 subtable" f.sc
EndChar

StartChar: longs
Encoding: 280 383 82
Width: 333
VWidth: 0
Flags: W
TeX: 726 -271
HStem: -271 75<-102.88 -12> 403 25<39 60.875> 646 80<313.5 409>
LayerCount: 2
Fore
SplineSet
-130 -262 m 1
 -119 -238 -103 -183 -98 -155 c 1
 -81 -152 l 1
 -67 -183 -52 -196 -30 -196 c 0
 6 -196 17 -168 46 -14 c 2
 125 403 l 1
 34 403 l 1
 39 428 l 1
 89 444 l 2
 114 452 128 458 139 463 c 1
 140 469 141 472 143 483 c 0
 155 542 165 562 210 602 c 2
 266 651 l 2
 282 665 319 691 350 710 c 0
 371 723 382 726 402 726 c 0
 416 726 428 724 449 718 c 1
 436 671 429 640 421 593 c 1
 406 590 l 1
 375 634 359 646 333 646 c 0
 294 646 283 615 256 483 c 2
 184 168 l 2
 136 -37 106 -113 44 -185 c 0
 3 -232 -58 -271 -92 -271 c 0
 -105 -271 -121 -267 -130 -262 c 1
EndSplineSet
Validated: 1
EndChar

StartChar: g
Encoding: 103 103 83
Width: 500
VWidth: 0
GlyphClass: 2
Flags: W
TeX: 452 -271
HStem: -271 36<96.4338 255.997> 137 35<181.777 212> 394 52<431.098 519> 425 44<207.028 315.588>
VStem: -50 89<-188.93 -83.3301> 54 103<192.57 353.781> 309 104<-175.579 -94.6546> 334 108<249.403 393.385>
AnchorPoint: "bot_acc" 132 -428 basechar 0
AnchorPoint: "dotbelow" 132 -428 basechar 0
AnchorPoint: "ogon_acc" 132 -428 basechar 0
AnchorPoint: "top_accl" 315 609 basechar 0
AnchorPoint: "dotabove" 315 609 basechar 0
AnchorPoint: "ccmped" 315 609 basechar 0
LayerCount: 2
Fore
SplineSet
-50 -146 m 0xee
 -50 -109 -30 -75 9 -47 c 0
 39 -25 73 -10 142 12 c 1
 127 23 117 42 116 61 c 1
 120 81 l 1
 212 137 l 1
 148 138 117 146 90 169 c 0
 65 191 54 220 54 266 c 0
 54 326 76 371 120 404 c 0
 169 440 245 469 290 469 c 0xde
 317 469 352 461 380 449 c 1
 398 447 428 445 453 446 c 2
 524 449 l 1
 529 440 l 1
 519 390 l 1
 431 394 l 1
 439 370 442 355 442 335 c 0xed
 442 272 413 219 360 185 c 0
 342 173 321 163 285 149 c 0
 244 134 227 121 227 103 c 0
 227 92 236 79 250 69 c 2
 335 9 l 2
 390 -30 413 -63 413 -105 c 0
 413 -201 306 -271 159 -271 c 0
 33 -271 -50 -222 -50 -146 c 0xee
39 -131 m 0
 39 -193 95 -235 178 -235 c 0
 252 -235 309 -196 309 -144 c 0
 309 -114 292 -92 245 -60 c 2
 163 -5 l 1
 135 -18 l 2
 69 -49 39 -84 39 -131 c 0
157 256 m 0
 157 204 185 172 230 172 c 0
 292 172 334 240 334 340 c 0xdd
 334 394 310 425 266 425 c 0
 232 425 205 409 187 379 c 0
 170 352 157 296 157 256 c 0
EndSplineSet
Validated: 33
AlternateSubs2: "'aalt' Access All Alternates lookup 0 subtable" g.sc
AlternateSubs2: "'aalt' Access All Alternates in Latin lookup 0 subtable" g.sc
Substitution2: "'smcp' Lowercase to Small Capitals in Latin lookup 2 subtable" g.sc
EndChar

StartChar: h
Encoding: 104 104 84
Width: 556
VWidth: 0
GlyphClass: 2
Flags: W
TeX: 726 0
HStem: -17 82<323.282 440.5> 381 88<337 474.5> 652 28<78 147.848> 706 20G<251.5 286>
VStem: 306 118<14.1495 140.925> 379 122<319.518 440.13>
AnchorPoint: "bot_acc" 204 -157 basechar 0
AnchorPoint: "dotbelow" 204 -157 basechar 0
AnchorPoint: "ogon_acc" 312 -157 basechar 0
AnchorPoint: "top_accu" 252 883 basechar 0
AnchorPoint: "dotabove" 408 609 basechar 0
LayerCount: 2
Fore
SplineSet
22 -2 m 1xf4
 40 35 69 158 102 334 c 0
 131 488 150 604 150 627 c 0
 150 644 139 652 116 652 c 2
 71 652 l 1
 78 680 l 1
 178 695 227 706 276 726 c 1
 286 717 l 1
 281 696 274 674 269 652 c 2
 180 244 l 1
 264 378 378 469 463 469 c 0
 486 469 501 451 501 425 c 0xf4
 501 378 482 333 470 288 c 2
 432 144 l 2
 427 124 424 103 424 81 c 0
 424 71 428 65 436 65 c 0
 445 65 462 73 497 95 c 2
 513 105 l 1
 522 79 l 1
 418 8 371 -17 337 -17 c 0
 319 -17 306 1 306 24 c 0xf8
 306 55 320 117 354 237 c 0
 371 295 379 333 379 352 c 0
 379 370 372 381 359 381 c 0
 315 381 240 302 194 208 c 0
 167 153 147 80 138 4 c 1
 102 2 54 -6 32 -13 c 1
 22 -2 l 1xf4
EndSplineSet
Validated: 1
AlternateSubs2: "'aalt' Access All Alternates lookup 0 subtable" h.sc
AlternateSubs2: "'aalt' Access All Alternates in Latin lookup 0 subtable" h.sc
Substitution2: "'smcp' Lowercase to Small Capitals in Latin lookup 2 subtable" h.sc
EndChar

StartChar: k
Encoding: 107 107 85
Width: 556
VWidth: 0
GlyphClass: 2
Flags: W
TeX: 726 0
HStem: -17 82<342.5 442> 398 71<411.517 511.452> 652 28<88 157.848> 706 20G<261.5 296>
VStem: 34 115<2.02591 68.3456>
AnchorPoint: "bot_acc" 209 -157 basechar 0
AnchorPoint: "dotbelow" 209 -157 basechar 0
AnchorPoint: "ogon_acc" 329 -157 basechar 0
AnchorPoint: "top_accu" 262 883 basechar 0
AnchorPoint: "dotabove" 418 609 basechar 0
LayerCount: 2
Fore
SplineSet
34 -5 m 1
 51 38 81 169 112 334 c 0
 141 488 160 604 160 627 c 0
 160 644 149 652 126 652 c 2
 81 652 l 1
 88 680 l 1
 188 695 237 706 286 726 c 1
 296 717 l 1
 290 696 284 674 279 652 c 2
 184 221 l 1
 224 276 273 330 331 385 c 0
 394 445 438 469 485 469 c 0
 497 469 513 466 528 460 c 1
 508 390 l 1
 486 396 474 398 459 398 c 0
 407 398 359 372 313 318 c 1
 378 145 l 2
 396 98 420 65 437 65 c 0
 447 65 460 71 483 85 c 2
 510 102 l 1
 520 73 l 1
 476 42 l 2
 421 3 379 -17 354 -17 c 0
 331 -17 315 7 288 80 c 2
 231 235 l 1
 200 201 l 2
 178 177 177 170 165 110 c 0
 153 53 151 37 149 4 c 1
 120 2 104 -1 44 -14 c 1
 34 -5 l 1
EndSplineSet
Validated: 1
AlternateSubs2: "'aalt' Access All Alternates lookup 0 subtable" k.sc
AlternateSubs2: "'aalt' Access All Alternates in Latin lookup 0 subtable" k.sc
Substitution2: "'smcp' Lowercase to Small Capitals in Latin lookup 2 subtable" k.sc
EndChar

StartChar: l
Encoding: 108 108 86
Width: 333
VWidth: 0
GlyphClass: 2
Flags: W
TeX: 726 0
HStem: -17 82<85.5 199.5> 652 28<110 179.848> 706 20G<283.5 318>
VStem: 64 118<17.6194 168.542>
AnchorPoint: "bot_acc" 104 -157 basechar 0
AnchorPoint: "dotbelow" 104 -157 basechar 0
AnchorPoint: "ogon_acc" 104 -157 basechar 0
AnchorPoint: "top_accu" 321 883 basechar 0
AnchorPoint: "dotabove" 321 883 basechar 0
AnchorPoint: "ccmped" 422 603 basechar 0
LayerCount: 2
Fore
SplineSet
64 35 m 0
 64 70 65 78 80 146 c 2
 179 596 l 2
 182 608 183 618 183 627 c 0
 183 643 171 652 148 652 c 2
 103 652 l 1
 110 680 l 1
 210 695 259 706 308 726 c 1
 318 717 l 1
 313 696 308 673 301 652 c 2
 194 170 l 2
 186 135 182 103 182 79 c 0
 182 70 187 65 194 65 c 0
 205 65 228 76 247 91 c 2
 277 114 l 1
 291 87 l 1
 174 2 139 -17 96 -17 c 0
 75 -17 64 0 64 35 c 0
EndSplineSet
Validated: 1
AlternateSubs2: "'aalt' Access All Alternates lookup 0 subtable" l.sc
AlternateSubs2: "'aalt' Access All Alternates in Latin lookup 0 subtable" l.sc
Substitution2: "'smcp' Lowercase to Small Capitals in Latin lookup 2 subtable" l.sc
EndChar

StartChar: m
Encoding: 109 109 87
Width: 833
VWidth: 0
GlyphClass: 2
Flags: W
TeX: 452 0
HStem: 449 20G<200 220.5 449.5 475 718.5 749>
VStem: 41 114<2.28833 61.9471> 124 113<324.259 441.842> 389 113<317.265 438.377> 577 118<12.2054 144.618> 652 123<309.524 436.266>
AnchorPoint: "bot_acc" 345 -157 basechar 0
AnchorPoint: "dotbelow" 345 -157 basechar 0
AnchorPoint: "ogon_acc" 627 -157 basechar 0
AnchorPoint: "top_accl" 480 609 basechar 0
AnchorPoint: "dotabove" 480 609 basechar 0
LayerCount: 2
Fore
SplineSet
19 348 m 1xb0
 103 416 l 2
 142 447 187 469 213 469 c 0
 228 469 237 457 237 439 c 0
 237 422 233 398 218 336 c 2
 189 212 l 1
 243 313 291 370 367 426 c 0
 411 458 436 469 463 469 c 0
 487 469 502 452 502 423 c 0
 502 402 497 376 483 327 c 2
 449 207 l 1
 485 284 524 338 582 388 c 0
 637 437 699 469 738 469 c 0
 760 469 775 451 775 422 c 0xb4
 775 401 772 377 765 353 c 2
 715 169 l 2
 702 122 695 89 695 77 c 0
 695 71 701 65 706 65 c 0
 716 65 738 76 767 97 c 2
 791 114 l 1
 803 89 l 1
 750 45 729 31 695 12 c 0
 658 -8 635 -17 614 -17 c 0
 592 -17 577 -1 577 23 c 0x98
 577 61 590 121 631 263 c 0
 643 306 652 342 652 354 c 0
 652 363 645 370 636 370 c 0
 599 370 526 299 482 220 c 0
 446 156 425 85 419 4 c 1
 383 2 336 -6 315 -13 c 1
 305 -2 l 1
 347 125 389 298 389 343 c 0
 389 360 382 370 370 370 c 0
 333 370 292 333 242 255 c 0
 196 184 171 109 155 4 c 1
 119 2 72 -6 51 -13 c 1
 41 -2 l 1xd4
 85 130 124 298 124 354 c 0
 124 364 119 370 111 370 c 0
 102 370 87 363 70 350 c 2
 33 322 l 1
 19 348 l 1xb0
EndSplineSet
Validated: 1
AlternateSubs2: "'aalt' Access All Alternates lookup 0 subtable" m.sc
AlternateSubs2: "'aalt' Access All Alternates in Latin lookup 0 subtable" m.sc
Substitution2: "'smcp' Lowercase to Small Capitals in Latin lookup 2 subtable" m.sc
EndChar

StartChar: n
Encoding: 110 110 88
Width: 556
VWidth: 0
GlyphClass: 2
Flags: W
TeX: 452 0
HStem: -17 82<330.5 439> 449 20G<191 211.5 437.5 472.5>
VStem: 305 118<12.6684 140.537> 378 122<322.728 438.718>
AnchorPoint: "bot_acc" 205 -157 basechar 0
AnchorPoint: "dotbelow" 205 -157 basechar 0
AnchorPoint: "ogon_acc" 316 -157 basechar 0
AnchorPoint: "top_accl" 340 609 basechar 0
AnchorPoint: "dotabove" 340 609 basechar 0
LayerCount: 2
Fore
SplineSet
17 358 m 1xd0
 101 420 l 2
 146 453 179 469 203 469 c 0
 220 469 230 458 230 439 c 0
 230 411 224 382 196 282 c 2
 179 222 l 1
 214 282 232 306 266 344 c 0
 334 418 414 469 461 469 c 0
 484 469 500 452 500 427 c 0xd0
 500 414 494 382 484 344 c 2
 436 160 l 2
 428 128 423 100 423 82 c 0
 423 71 427 65 434 65 c 0
 444 65 455 71 479 87 c 2
 508 107 l 1
 521 80 l 1
 511 73 506 69 492 59 c 0
 417 3 377 -17 341 -17 c 0
 320 -17 305 1 305 25 c 0xe0
 305 54 321 125 353 237 c 0
 368 288 378 333 378 349 c 0
 378 363 371 370 358 370 c 0
 310 370 220 260 181 154 c 0
 169 120 151 50 145 4 c 1
 109 2 61 -6 39 -13 c 1
 29 -2 l 1
 75 136 114 298 114 353 c 0
 114 364 110 370 103 370 c 0
 92 370 78 364 62 353 c 2
 30 331 l 1
 17 358 l 1xd0
EndSplineSet
Validated: 1
AlternateSubs2: "'aalt' Access All Alternates lookup 0 subtable" n.sc
AlternateSubs2: "'aalt' Access All Alternates in Latin lookup 0 subtable" n.sc
Substitution2: "'smcp' Lowercase to Small Capitals in Latin lookup 2 subtable" n.sc
EndChar

StartChar: o
Encoding: 111 111 89
Width: 556
VWidth: 0
GlyphClass: 2
Flags: W
TeX: 452 0
HStem: -17 44<190.366 300.628> 425 44<250.28 359.677>
VStem: 48 114<54.9332 264.015> 388 114<185.45 395.725>
AnchorPoint: "bot_acc" 205 -157 basechar 0
AnchorPoint: "dotbelow" 205 -157 basechar 0
AnchorPoint: "ogon_acc" 205 -157 basechar 0
AnchorPoint: "top_accl" 340 609 basechar 0
AnchorPoint: "dotabove" 340 609 basechar 0
LayerCount: 2
Fore
SplineSet
48 135 m 0
 48 176 56 223 72 272 c 0
 93 337 127 380 189 419 c 0
 241 452 297 469 350 469 c 0
 446 469 502 414 502 319 c 0
 502 256 483 174 456 126 c 0
 434 86 377 36 321 10 c 0
 281 -9 242 -17 196 -17 c 0
 98 -17 48 34 48 135 c 0
162 130 m 0
 162 67 193 27 243 27 c 0
 275 27 303 44 327 78 c 0
 362 128 388 233 388 323 c 0
 388 385 356 425 308 425 c 0
 275 425 247 408 223 374 c 0
 188 324 162 220 162 130 c 0
EndSplineSet
Validated: 1
AlternateSubs2: "'aalt' Access All Alternates lookup 0 subtable" o.sc
AlternateSubs2: "'aalt' Access All Alternates in Latin lookup 0 subtable" o.sc
Substitution2: "'smcp' Lowercase to Small Capitals in Latin lookup 2 subtable" o.sc
EndChar

StartChar: p
Encoding: 112 112 90
Width: 556
VWidth: 0
GlyphClass: 2
Flags: W
TeX: 452 -271
HStem: -271 21G<-21 -4.5> -17 49<170.296 299.56> 391 78<357.066 447.271>
VStem: -21 122<-252.672 -185.137> 114 116<312.965 440.693> 402 114<225.811 388.879>
AnchorPoint: "bot_acc" 131 -428 basechar 0
AnchorPoint: "dotbelow" 224 -157 basechar 0
AnchorPoint: "ogon_acc" 10 -428 basechar 0
AnchorPoint: "top_accl" 314 609 basechar 0
AnchorPoint: "dotabove" 314 609 basechar 0
LayerCount: 2
Fore
SplineSet
-21 -264 m 1
 -9 -224 -2 -197 11 -142 c 2
 90 198 l 2
 119 323 114 324 114 354 c 0
 114 364 110 370 103 370 c 0
 92 370 78 364 62 353 c 2
 30 331 l 1
 17 358 l 1
 101 420 l 2
 146 453 179 469 203 469 c 0
 221 469 230 458 230 438 c 0
 230 417 223 381 210 321 c 2
 195 253 l 1
 242 332 268 366 312 403 c 0
 366 448 413 469 460 469 c 0
 497 469 516 436 516 370 c 0
 516 251 474 138 409 82 c 0
 371 50 318 13 291 0 c 0
 266 -11 238 -17 205 -17 c 0
 184 -17 170 -15 149 -10 c 1
 113 -152 105 -190 101 -250 c 1
 83 -252 64 -254 21 -264 c 0
 6 -267 2 -269 -11 -271 c 1
 -21 -264 l 1
161 59 m 1
 194 40 223 32 255 32 c 0
 287 32 316 52 335 86 c 0
 372 152 402 264 402 333 c 0
 402 371 392 391 374 391 c 0
 337 391 284 346 237 274 c 0
 203 222 191 191 175 121 c 2
 161 59 l 1
EndSplineSet
Validated: 33
AlternateSubs2: "'aalt' Access All Alternates lookup 0 subtable" p.sc
AlternateSubs2: "'aalt' Access All Alternates in Latin lookup 0 subtable" p.sc
Substitution2: "'smcp' Lowercase to Small Capitals in Latin lookup 2 subtable" p.sc
EndChar

StartChar: q
Encoding: 113 113 91
Width: 537
VWidth: 0
GlyphClass: 2
Flags: W
TeX: 452 -271
HStem: -271 21G<219 255.5> -17 82<68.5 180.5> 417 52<254.743 381.058>
VStem: 32 114<26.1388 197.443>
AnchorPoint: "bot_acc" 149 -428 basechar 0
AnchorPoint: "dotbelow" 129 -157 basechar 0
AnchorPoint: "ogon_acc" 259 -428 basechar 0
AnchorPoint: "top_accl" 331 609 basechar 0
AnchorPoint: "dotabove" 331 609 basechar 0
LayerCount: 2
Fore
SplineSet
32 56 m 0
 32 137 68 276 103 328 c 0
 120 353 171 395 236 436 c 0
 281 464 294 469 332 469 c 0
 377 469 409 462 448 443 c 1
 495 469 l 1
 513 458 l 1
 499 428 489 396 472 315 c 2
 380 -113 l 2
 371 -154 359 -199 359 -241 c 2
 359 -241 359 -246 360 -252 c 1
 315 -255 283 -259 228 -271 c 1
 219 -253 l 1
 234 -241 l 2
 246 -231 258 -182 262 -165 c 2
 345 194 l 1
 237 51 154 -17 83 -17 c 0
 54 -17 32 15 32 56 c 0
146 98 m 0
 146 78 155 65 168 65 c 0
 193 65 229 94 279 154 c 0
 331 218 356 271 374 357 c 2
 382 396 l 1
 347 412 325 417 298 417 c 0
 262 417 240 406 223 379 c 0
 191 326 146 164 146 98 c 0
EndSplineSet
Validated: 1
AlternateSubs2: "'aalt' Access All Alternates lookup 0 subtable" q.sc
AlternateSubs2: "'aalt' Access All Alternates in Latin lookup 0 subtable" q.sc
Substitution2: "'smcp' Lowercase to Small Capitals in Latin lookup 2 subtable" q.sc
EndChar

StartChar: r
Encoding: 114 114 92
Width: 389
VWidth: 0
GlyphClass: 2
Flags: W
TeX: 452 0
HStem: 339 130<324.457 388.34>
VStem: 121 113<329.94 441.132>
AnchorPoint: "bot_acc" 128 -157 basechar 0
AnchorPoint: "dotbelow" 128 -157 basechar 0
AnchorPoint: "ogon_acc" 76 -157 basechar 0
AnchorPoint: "top_accl" 263 609 basechar 0
AnchorPoint: "dotabove" 263 609 basechar 0
LayerCount: 2
Fore
SplineSet
20 352 m 1
 101 416 l 2
 146 451 182 469 209 469 c 0
 225 469 234 458 234 437 c 0
 234 423 229 401 219 359 c 0
 200 277 206 303 187 219 c 1
 264 375 280 404 307 432 c 0
 331 457 356 469 384 469 c 0
 394 469 401 467 411 463 c 1
 396 397 392 368 391 326 c 1
 379 320 l 1
 358 334 344 339 327 339 c 0
 281 339 242 291 204 188 c 0
 188 143 177 93 163 2 c 1
 105 -4 82 -8 55 -17 c 1
 44 -5 l 1
 58 38 65 62 71 87 c 2
 95 194 l 2
 125 327 121 328 121 354 c 0
 121 364 116 370 109 370 c 0
 100 370 85 362 67 350 c 2
 33 326 l 1
 20 352 l 1
EndSplineSet
Validated: 33
AlternateSubs2: "'aalt' Access All Alternates lookup 0 subtable" r.sc
AlternateSubs2: "'aalt' Access All Alternates in Latin lookup 0 subtable" r.sc
Substitution2: "'smcp' Lowercase to Small Capitals in Latin lookup 2 subtable" r.sc
EndChar

StartChar: s
Encoding: 115 115 93
Width: 444
VWidth: 0
GlyphClass: 2
Flags: W
TeX: 452 0
HStem: -17 55<121.157 258.938> 414 55<198.698 321.315>
VStem: 46 30<81.2578 141> 68 93<268.359 366.403> 294 100<92.4433 186> 359 30<322 370>
AnchorPoint: "bot_acc" 158 -157 basechar 0
AnchorPoint: "dotbelow" 158 -157 basechar 0
AnchorPoint: "ogon_acc" 158 -157 basechar 0
AnchorPoint: "top_accl" 293 609 basechar 0
AnchorPoint: "dotabove" 293 609 basechar 0
LayerCount: 2
Fore
SplineSet
25 10 m 1xd8
 38 73 42 100 46 141 c 1
 76 141 l 1
 76 94 l 1
 110 58 156 38 206 38 c 0
 260 38 294 66 294 110 c 0xe8
 294 146 272 168 226 177 c 2
 182 186 l 2
 106 202 68 239 68 298 c 0
 68 343 85 372 131 405 c 0
 198 453 236 469 284 469 c 0
 331 469 365 460 406 438 c 1
 400 405 l 2
 391 357 389 346 389 322 c 1
 359 322 l 1xd4
 353 370 l 1
 314 402 283 414 243 414 c 0
 194 414 161 385 161 341 c 0
 161 306 180 291 237 278 c 2
 296 265 l 2
 357 252 394 212 394 160 c 0
 394 122 381 96 345 63 c 0
 286 9 227 -17 162 -17 c 0
 124 -17 92 -11 25 10 c 1xd8
EndSplineSet
Validated: 1
AlternateSubs2: "'aalt' Access All Alternates lookup 0 subtable" s.sc
AlternateSubs2: "'aalt' Access All Alternates in Latin lookup 0 subtable" s.sc
Substitution2: "'smcp' Lowercase to Small Capitals in Latin lookup 2 subtable" s.sc
EndChar

StartChar: t
Encoding: 116 116 94
Width: 389
VWidth: 0
GlyphClass: 2
Flags: W
TeX: 636 0
HStem: -17 81<115.5 229.5> 401 51<269 395.549> 401 27<49 74.1562>
VStem: 79 117<17.3506 163.464>
AnchorPoint: "bot_acc" 123 -157 basechar 0
AnchorPoint: "dotbelow" 123 -157 basechar 0
AnchorPoint: "ogon_acc" 108 -157 basechar 0
AnchorPoint: "top_accl" 279 793 basechar 0
AnchorPoint: "dotabove" 279 793 basechar 0
AnchorPoint: "ccmped" 433 603 basechar 0
LayerCount: 2
Fore
SplineSet
42 401 m 1xb0
 49 428 l 1xb0
 164 460 l 1
 178 538 180 556 180 582 c 2
 180 598 l 1
 202 601 218 605 237 612 c 2
 303 636 l 1
 313 624 l 1
 282 508 l 1
 269 452 l 1
 403 457 l 1
 409 452 l 1
 395 396 l 1
 363 400 343 401 303 401 c 2xd0
 256 401 l 1
 205 164 l 2
 199 135 196 113 196 92 c 0
 196 71 202 64 220 64 c 0
 239 64 252 69 274 85 c 2
 330 125 l 1
 343 99 l 1
 266 42 l 2
 210 1 170 -17 133 -17 c 0
 98 -17 79 4 79 43 c 0
 79 60 79 63 89 108 c 2
 151 401 l 1
 42 401 l 1xb0
EndSplineSet
Validated: 1
AlternateSubs2: "'aalt' Access All Alternates lookup 0 subtable" t.sc
AlternateSubs2: "'aalt' Access All Alternates in Latin lookup 0 subtable" t.sc
Substitution2: "'smcp' Lowercase to Small Capitals in Latin lookup 2 subtable" t.sc
EndChar

StartChar: u
Encoding: 117 117 95
Width: 556
VWidth: 0
GlyphClass: 2
Flags: W
TeX: 452 0
VStem: 53 117<18.0254 130.105> 312 108<15.2529 127.44>
AnchorPoint: "bot_acc" 208 -157 basechar 0
AnchorPoint: "dotbelow" 208 -157 basechar 0
AnchorPoint: "ogon_acc" 321 -157 basechar 0
AnchorPoint: "top_accl" 343 609 basechar 0
AnchorPoint: "dotabove" 343 609 basechar 0
LayerCount: 2
Fore
SplineSet
22 365 m 1
 101 419 l 2
 147 450 190 469 217 469 c 0
 234 469 244 456 244 434 c 0
 244 405 240 386 215 287 c 2
 180 150 l 2
 174 125 170 101 170 84 c 0
 170 76 177 71 186 71 c 0
 215 71 268 124 317 202 c 0
 365 280 395 371 397 447 c 1
 430 446 464 452 507 465 c 1
 516 454 l 1
 474 313 l 1
 434 158 l 2
 424 125 420 98 420 86 c 0
 420 79 426 74 434 74 c 0
 448 74 469 83 489 99 c 2
 511 116 l 1
 521 88 l 1
 494 68 500 73 486 62 c 0
 426 17 367 -17 346 -17 c 0
 326 -17 312 0 312 26 c 0
 312 42 317 67 328 107 c 2
 360 224 l 1
 261 68 168 -17 97 -17 c 0
 71 -17 53 6 53 40 c 0
 53 57 57 80 66 114 c 0
 73 140 69 125 87 193 c 0
 111 284 121 333 121 354 c 0
 121 364 115 370 104 370 c 0
 94 370 82 367 71 360 c 2
 35 339 l 1
 22 365 l 1
EndSplineSet
Validated: 33
AlternateSubs2: "'aalt' Access All Alternates lookup 0 subtable" u.sc
AlternateSubs2: "'aalt' Access All Alternates in Latin lookup 0 subtable" u.sc
Substitution2: "'smcp' Lowercase to Small Capitals in Latin lookup 2 subtable" u.sc
EndChar

StartChar: v
Encoding: 118 118 96
Width: 556
VWidth: 0
GlyphClass: 2
Flags: W
TeX: 452 0
HStem: -17 63<168 289.631> 392 63<75.1011 252.405> 449 20G<304 324 439 461.5>
VStem: 87 110<66.6747 225.524> 436 77<261.439 383.064>
AnchorPoint: "bot_acc" 179 -157 basechar 0
AnchorPoint: "dotbelow" 179 -157 basechar 0
AnchorPoint: "ogon_acc" 179 -157 basechar 0
AnchorPoint: "top_accl" 314 609 basechar 0
AnchorPoint: "dotabove" 314 609 basechar 0
LayerCount: 2
Fore
SplineSet
19 324 m 1xd8
 60 456 l 1
 82 460 95 462 111 461 c 0
 135 460 203 455 246 455 c 0xd8
 270 455 298 461 310 469 c 1
 324 450 l 1
 265 380 239 338 217 269 c 0
 203 227 197 187 197 147 c 0
 197 82 220 46 263 46 c 0
 306 46 344 76 378 135 c 0
 412 195 436 278 436 334 c 0
 436 366 420 389 397 389 c 0
 383 389 370 385 361 377 c 1
 351 398 l 1
 370 412 385 428 417 465 c 1
 429 468 435 469 443 469 c 0xb8
 480 469 513 423 513 370 c 0
 513 279 452 149 368 63 c 0
 319 12 260 -17 205 -17 c 0
 131 -17 87 35 87 123 c 0
 87 207 119 268 213 362 c 2
 254 403 l 1
 220 395 184 392 117 392 c 0
 89 392 77 390 75 384 c 2
 47 324 l 1
 19 324 l 1xd8
EndSplineSet
Validated: 33
AlternateSubs2: "'aalt' Access All Alternates lookup 0 subtable" v.sc
AlternateSubs2: "'aalt' Access All Alternates in Latin lookup 0 subtable" v.sc
Substitution2: "'smcp' Lowercase to Small Capitals in Latin lookup 2 subtable" v.sc
EndChar

StartChar: w
Encoding: 119 119 97
Width: 833
VWidth: 0
GlyphClass: 2
Flags: W
TeX: 452 0
HStem: -17 63<161 263.87 464.5 575.513> 392 63<83.1011 260.405> 449 20G<312 332 531.5 564 728 750.5>
VStem: 91 114<60.1791 222.078> 399 97<61.2102 226.177> 725 77<263.881 383.371>
AnchorPoint: "bot_acc" 341 -157 basechar 0
AnchorPoint: "dotbelow" 341 -157 basechar 0
AnchorPoint: "ogon_acc" 468 -157 basechar 0
AnchorPoint: "top_accl" 476 609 basechar 0
AnchorPoint: "dotabove" 476 609 basechar 0
LayerCount: 2
Fore
SplineSet
27 324 m 1xdc
 68 456 l 1
 90 460 103 462 119 461 c 0
 143 460 211 455 254 455 c 0xdc
 278 455 306 461 318 469 c 1
 332 450 l 1
 272 380 247 338 225 269 c 0
 211 227 205 186 205 146 c 0
 205 85 224 46 253 46 c 0
 309 46 386 154 411 269 c 2
 435 378 l 2
 440 403 442 413 445 442 c 1
 484 447 511 453 552 469 c 1
 564 460 l 1
 519 299 496 188 496 127 c 0
 496 79 519 46 553 46 c 0
 593 46 631 77 665 137 c 0
 700 198 725 282 725 335 c 0
 725 368 709 389 683 389 c 0
 670 389 658 386 647 381 c 1
 635 404 l 1
 669 427 685 441 706 465 c 1
 718 468 724 469 732 469 c 0xbc
 769 469 802 423 802 371 c 0
 802 281 741 152 657 65 c 0
 606 13 546 -17 493 -17 c 0
 436 -17 399 25 399 90 c 0
 399 115 401 133 408 177 c 1
 365 94 333 53 282 17 c 0
 249 -7 222 -17 192 -17 c 0
 130 -17 91 36 91 120 c 0
 91 204 124 265 221 362 c 2
 262 403 l 1
 228 395 192 392 125 392 c 0
 97 392 85 390 83 384 c 2
 55 324 l 1
 27 324 l 1xdc
EndSplineSet
Validated: 33
AlternateSubs2: "'aalt' Access All Alternates lookup 0 subtable" w.sc
AlternateSubs2: "'aalt' Access All Alternates in Latin lookup 0 subtable" w.sc
Substitution2: "'smcp' Lowercase to Small Capitals in Latin lookup 2 subtable" w.sc
EndChar

StartChar: x
Encoding: 120 120 98
Width: 500
VWidth: 0
GlyphClass: 2
Flags: W
TeX: 452 0
HStem: -17 80<28.5 88.2092 294 376> 384 85<95.5006 187 408.548 472.331>
VStem: 8 24<69 98> 456 21<353 369.778>
AnchorPoint: "bot_acc" 184 -157 basechar 0
AnchorPoint: "dotbelow" 184 -157 basechar 0
AnchorPoint: "ogon_acc" 251 -157 basechar 0
AnchorPoint: "top_accl" 319 609 basechar 0
AnchorPoint: "dotabove" 319 609 basechar 0
LayerCount: 2
Fore
SplineSet
-8 -3 m 1
 1 36 5 61 8 98 c 1
 32 100 l 1
 38 69 l 1
 49 65 57 63 66 63 c 0
 96 63 125 83 154 124 c 2
 206 197 l 1
 190 285 l 2
 179 346 156 384 131 384 c 0
 107 384 74 361 59 335 c 1
 36 348 l 1
 50 366 64 389 85 429 c 0
 90 439 90 440 95 449 c 1
 136 465 151 469 171 469 c 0
 203 469 231 456 248 433 c 0
 264 412 274 381 284 322 c 2
 288 299 l 1
 351 386 l 2
 391 441 428 469 461 469 c 0
 473 469 488 465 500 459 c 1
 488 436 484 417 477 353 c 1
 456 348 l 1
 447 376 l 1
 437 380 432 381 426 381 c 0
 402 381 364 353 334 312 c 2
 296 261 l 1
 307 197 l 2
 315 152 327 107 339 84 c 0
 345 72 358 64 371 64 c 0
 381 64 390 68 418 88 c 2
 448 109 l 1
 464 86 l 1
 446 70 l 2
 371 3 333 -17 303 -17 c 0
 285 -17 266 -7 254 10 c 0
 240 28 232 53 224 102 c 2
 214 160 l 1
 129 46 l 2
 100 7 64 -17 35 -17 c 0
 22 -17 11 -13 -8 -3 c 1
EndSplineSet
Validated: 1
AlternateSubs2: "'aalt' Access All Alternates lookup 0 subtable" x.sc
AlternateSubs2: "'aalt' Access All Alternates in Latin lookup 0 subtable" x.sc
Substitution2: "'smcp' Lowercase to Small Capitals in Latin lookup 2 subtable" x.sc
EndChar

StartChar: y
Encoding: 121 121 99
Width: 556
VWidth: 0
GlyphClass: 2
Flags: W
TeX: 452 -271
HStem: -271 46<112.548 204.985> -17 84<133.5 239> 449 20G<184.5 208>
VStem: 100 107<31.6164 306.945> 126 109<180.711 429.565>
AnchorPoint: "bot_acc" 173 -428 basechar 0
AnchorPoint: "dotbelow" 472 -157 basechar 0
AnchorPoint: "ogon_acc" 127 -428 basechar 0
AnchorPoint: "top_accl" 356 609 basechar 0
AnchorPoint: "dotabove" 356 609 basechar 0
LayerCount: 2
Fore
SplineSet
13 357 m 1xe8
 93 419 l 2
 132 449 173 469 196 469 c 0
 220 469 235 445 235 406 c 0xe8
 235 382 233 354 230 326 c 2
 211 163 l 2
 208 138 207 123 207 108 c 0
 207 82 213 67 224 67 c 0
 254 67 305 123 347 202 c 0
 388 279 417 378 419 447 c 1
 452 446 486 452 529 465 c 1
 541 453 l 1
 522 412 499 340 457 185 c 0
 405 -4 392 -43 341 -122 c 0
 283 -214 198 -271 119 -271 c 0
 84 -271 52 -254 36 -227 c 0
 28 -213 24 -200 21 -174 c 1
 83 -134 l 1
 101 -140 l 1
 100 -147 100 -156 100 -159 c 0
 100 -201 123 -225 162 -225 c 0
 227 -225 275 -154 314 4 c 2
 355 170 l 1
 316 101 294 73 255 39 c 0
 215 4 175 -17 147 -17 c 0
 120 -17 100 20 100 70 c 0xf0
 100 90 102 114 106 155 c 2
 125 337 l 2
 126 343 126 348 126 351 c 0
 126 363 119 370 108 370 c 0
 88 370 61 356 27 329 c 1
 13 357 l 1xe8
EndSplineSet
Validated: 33
AlternateSubs2: "'aalt' Access All Alternates lookup 0 subtable" y.sc
AlternateSubs2: "'aalt' Access All Alternates in Latin lookup 0 subtable" y.sc
Substitution2: "'smcp' Lowercase to Small Capitals in Latin lookup 2 subtable" y.sc
EndChar

StartChar: z
Encoding: 122 122 100
Width: 500
VWidth: 0
GlyphClass: 2
Flags: W
TeX: 452 0
HStem: -17 98<227.408 382> 22 75<102.08 243.159> 356 76<257.054 403.057> 367 102<126.557 281.813>
AnchorPoint: "bot_acc" 186 -157 basechar 0
AnchorPoint: "dotbelow" 186 -157 basechar 0
AnchorPoint: "ogon_acc" 186 -157 basechar 0
AnchorPoint: "top_accl" 321 609 basechar 0
AnchorPoint: "dotabove" 321 609 basechar 0
LayerCount: 2
Fore
SplineSet
31 25 m 1x40
 377 379 l 1
 341 362 318 356 288 356 c 0x60
 256 356 208 362 148 367 c 0
 142 367 138 368 126 369 c 1
 103 317 l 1
 74 320 l 1
 119 459 l 1
 140 465 160 469 176 469 c 0x10
 193 469 218 464 271 450 c 0
 321 437 354 432 383 432 c 0x20
 408 432 431 441 441 456 c 2
 450 469 l 1
 470 461 l 1
 456 411 l 1
 128 74 l 1
 176 91 200 97 226 97 c 0x50
 256 97 289 94 328 87 c 0
 351 83 367 80 382 81 c 2
 382 81 388 81 395 82 c 1
 423 140 l 1
 451 138 l 1
 440 108 424 51 422 33 c 0
 416 -8 407 -17 365 -17 c 0x80
 321 -17 273 -9 197 12 c 0
 173 19 149 22 124 22 c 0
 94 22 72 15 47 -5 c 1
 31 25 l 1x40
EndSplineSet
Validated: 33
AlternateSubs2: "'aalt' Access All Alternates lookup 0 subtable" z.sc
AlternateSubs2: "'aalt' Access All Alternates in Latin lookup 0 subtable" z.sc
Substitution2: "'smcp' Lowercase to Small Capitals in Latin lookup 2 subtable" z.sc
EndChar

StartChar: asciitilde
Encoding: 126 126 101
Width: 606
VWidth: 0
Flags: W
TeX: 329 0
HStem: 174 86<336.017 460.474> 243 86<145.526 269.983>
LayerCount: 2
Fore
SplineSet
51 216 m 1x40
 98 296 139 329 193 329 c 0x40
 221 329 240 323 302 296 c 0
 369 267 390 260 411 260 c 0
 443 260 464 277 494 326 c 1
 555 287 l 1
 508 207 467 174 413 174 c 0x80
 385 174 366 180 304 207 c 0
 237 236 216 243 195 243 c 0
 163 243 142 226 112 177 c 1
 51 216 l 1x40
EndSplineSet
Validated: 1
EndChar

StartChar: Euro
Encoding: 128 8364 102
Width: 500
VWidth: 0
Flags: W
TeX: 681 0
HStem: -17 50<290.875 433.418> 251 60<79.2667 130 255 411> 365 55<103.328 146 280 471> 610 50<383.122 527.3>
VStem: 130 119<95.0083 254> 163 117<420 472.811> 476 39<125.167 159> 533 39<484 530.846>
LayerCount: 2
Fore
SplineSet
51 251 m 1xfb
 83 311 l 1
 89 310 94 309 99 309 c 2
 136 309 l 1
 146 365 l 1
 121 365 93 364 75 362 c 1
 106 422 l 1
 113 421 119 420 125 420 c 2
 163 420 l 1
 201 539 289 660 459 660 c 0
 506 660 577 646 611 616 c 1
 615 605 l 1
 602 576 584 524 572 484 c 1
 533 484 l 1
 546 571 l 1
 531 591 498 610 447 610 c 0
 359 610 307 515 280 420 c 1xf7
 330 420 481 420 501 422 c 1
 471 362 l 1
 451 364 311 365 266 365 c 1
 263 350 262 345 259 331 c 2
 255 309 l 1
 298 309 422 309 443 311 c 1
 411 251 l 1
 392 253 294 254 249 254 c 1
 238 153 250 33 347 33 c 0
 398 33 436 52 458 72 c 1
 476 159 l 1
 515 159 l 1
 513 119 511 65 514 36 c 1
 506 25 l 1
 462 -5 387 -17 340 -17 c 0
 158 -17 120 124 130 254 c 1
 103 254 70 253 51 251 c 1xfb
EndSplineSet
Validated: 33
EndChar

StartChar: f_i
Encoding: 129 64257 103
Width: 611
VWidth: 0
GlyphClass: 3
Flags: W
TeX: 726 -271
HStem: -271 75<-102.88 -12.5> -17 82<358.5 466.5> 403 51<248 416.997> 403 25<39 78.7245> 413 41<250.025 416.997> 449 20G<494.5 510.5> 544 131<479.625 564.49> 646 80<315.5 410.5>
VStem: 336 114<12.2499 140.999> 417 118<326.727 444.062> 460 123<562.267 655.023>
LayerCount: 2
Fore
SplineSet
-130 -262 m 1xd040
 -119 -238 -103 -183 -98 -155 c 1
 -81 -152 l 1
 -67 -183 -52 -196 -30 -196 c 0
 5 -196 16 -167 44 -22 c 2
 125 403 l 1
 34 403 l 1
 39 428 l 1xd040
 73 439 107 448 139 463 c 1
 141 470 141 473 143 483 c 0
 157 554 172 574 262 647 c 0
 339 710 368 726 404 726 c 0
 417 726 427 724 448 718 c 1
 435 669 429 639 421 593 c 1
 406 590 l 1
 382 625 353 646 328 646 c 0
 303 646 284 620 273 569 c 2
 248 454 l 1
 408 454 l 1xe140
 468 465 l 2
 486 468 491 469 498 469 c 0
 523 469 535 456 535 429 c 0xc440
 535 412 532 393 524 365 c 2
 470 169 l 2
 457 123 450 89 450 76 c 0
 450 70 455 65 461 65 c 0
 472 65 488 73 523 95 c 2
 550 112 l 1
 562 84 l 1
 551 76 547 74 534 64 c 0
 453 6 406 -17 368 -17 c 0
 349 -17 336 0 336 26 c 0xc480
 336 42 339 64 342 78 c 2
 411 359 l 2
 416 381 417 385 417 396 c 0
 417 407 413 413 406 413 c 2
 342 413 l 2xc840
 311 413 288 411 239 403 c 1
 184 168 l 2
 136 -37 106 -113 44 -185 c 0
 3 -232 -58 -271 -92 -271 c 0
 -105 -271 -121 -267 -130 -262 c 1xd040
460 601 m 0xc220
 460 642 490 675 527 675 c 0
 560 675 583 650 583 615 c 0
 583 574 554 544 514 544 c 0
 481 544 460 566 460 601 c 0xc220
EndSplineSet
Validated: 1
Ligature2: "liga_PLK subtable" f i
Ligature2: "liga_NLDb subtable" f i
Ligature2: "liga_f_i subtable" f i
EndChar

StartChar: f_l
Encoding: 130 64258 104
Width: 611
VWidth: 0
GlyphClass: 3
Flags: W
TeX: 726 -271
HStem: -271 75<-102.88 -12.5> -26 82<398.5 512.5> 403 59<252.007 367.846> 403 51<250 366.225> 403 25<39 78.7245> 646 80<320.462 396.561> 652 33<440 493.843>
VStem: 377 118<8.61944 159.753>
LayerCount: 2
Fore
SplineSet
-130 -262 m 1xc9
 -119 -238 -103 -183 -98 -155 c 1
 -81 -152 l 1
 -67 -183 -52 -196 -30 -196 c 0
 5 -196 16 -167 44 -22 c 2
 125 403 l 1
 34 403 l 1
 39 428 l 1
 73 439 107 448 139 463 c 1
 151 535 161 554 206 600 c 0
 234 628 297 678 341 706 c 0
 361 719 383 726 404 726 c 0xcd
 417 726 427 724 448 718 c 1
 444 708 443 700 440 685 c 1
 486 686 579 704 619 720 c 1
 631 708 l 1
 624 680 l 2
 621 667 617 655 614 643 c 2
 507 161 l 2
 499 126 495 94 495 70 c 0
 495 61 500 56 507 56 c 0
 518 56 541 67 560 82 c 2
 590 105 l 1
 604 78 l 1
 487 -7 452 -26 409 -26 c 0
 388 -26 377 -9 377 26 c 0
 377 61 378 70 393 137 c 2
 494 596 l 2
 497 608 498 618 498 627 c 0
 498 643 486 652 463 652 c 2
 433 652 l 1xc3
 421 593 l 1
 406 590 l 1
 382 625 353 646 328 646 c 0
 302 646 285 622 274 569 c 2
 250 454 l 1xd5
 293 454 324 457 373 462 c 1xe1
 378 454 l 1xd1
 372 440 369 429 362 403 c 1xe1
 239 403 l 1
 184 168 l 2
 136 -37 106 -113 44 -185 c 0
 3 -232 -58 -271 -92 -271 c 0
 -105 -271 -121 -267 -130 -262 c 1xc9
EndSplineSet
Validated: 1
Ligature2: "liga_f_f_l subtable" f l
EndChar

StartChar: quotedblbase
Encoding: 132 8222 105
Width: 500
VWidth: 0
GlyphClass: 3
Flags: W
TeX: 145 -144
HStem: -144 289
LayerCount: 2
Fore
SplineSet
-18 -126 m 1
 27 -55 63 45 70 115 c 1
 192 145 l 1
 205 132 l 1
 153 36 l 2
 124 -18 66 -102 53 -110 c 2
 -3 -144 l 1
 -18 -126 l 1
201 -126 m 1
 246 -55 282 45 289 115 c 1
 411 145 l 1
 424 132 l 1
 372 36 l 2
 343 -18 285 -102 272 -110 c 2
 216 -144 l 1
 201 -126 l 1
EndSplineSet
Validated: 1
Ligature2: "'dlig' Discretionary Ligatures in Latin lookup 12 subtable" comma comma
EndChar

StartChar: dagger
Encoding: 134 8224 106
Width: 556
VWidth: 0
Flags: W
TeX: 681 0
HStem: -3 21G<149 207 240.5 270> 387 78<85.8937 228 334 476.065> 665 20G<265 294 354 381>
VStem: 265 116<602.96 681>
LayerCount: 2
Fore
SplineSet
67 381 m 1
 77 427 78 436 78 462 c 2
 78 462 78 465 77 469 c 2
 85 474 l 1
 104 467 127 465 193 465 c 2
 242 465 l 1
 257 576 l 2
 261 606 265 652 265 681 c 1
 271 685 l 1
 317 682 317 682 325 682 c 0
 332 682 332 682 376 685 c 1
 381 682 l 1
 367 635 354 587 349 556 c 2
 334 465 l 1
 403 465 l 2
 438 465 462 467 495 473 c 1
 499 469 l 1
 489 428 486 408 485 386 c 1
 479 382 l 1
 416 386 378 387 322 387 c 1
 292 222 278 119 270 2 c 1
 265 -3 l 1
 216 0 216 0 207 0 c 2
 149 -3 l 1
 149 10 l 1
 190 175 209 264 228 387 c 1
 162 387 125 384 74 377 c 1
 67 381 l 1
EndSplineSet
Validated: 1
EndChar

StartChar: daggerdbl
Encoding: 135 8225 107
Width: 556
VWidth: 0
Flags: W
TeX: 681 -250
HStem: 45 77<48.629 194 301 448.259> 418 77<118.629 264 370 517.259> 673 20G<299 326.5 387 414>
LayerCount: 2
Fore
SplineSet
33 40 m 1
 41 71 43 86 43 106 c 0
 43 110 43 118 42 127 c 1
 47 133 l 1
 82 125 101 122 122 122 c 2
 207 122 l 1
 221 189 l 2
 227 217 229 242 229 270 c 1
 241 305 248 331 253 358 c 2
 264 418 l 1
 218 418 l 2
 195 418 164 416 127 411 c 0
 118 410 117 410 109 409 c 1
 103 413 l 1
 111 444 113 459 113 479 c 0
 113 483 113 491 112 500 c 1
 117 506 l 1
 152 498 171 495 192 495 c 2
 277 495 l 1
 291 574 l 2
 297 610 300 634 300 658 c 0
 300 664 300 674 299 687 c 1
 304 693 l 1
 349 690 349 690 357 690 c 0
 366 690 366 690 408 693 c 1
 414 687 l 1
 401 654 397 637 387 586 c 2
 370 495 l 1
 417 495 l 2
 455 495 483 497 530 503 c 1
 537 501 l 1
 527 469 523 446 524 417 c 1
 520 412 l 1
 461 417 436 418 409 418 c 2
 356 418 l 1
 345 362 l 2
 343 358 339 301 339 273 c 1
 325 237 317 209 311 177 c 2
 301 122 l 1
 348 122 l 2
 386 122 414 124 461 130 c 1
 468 128 l 1
 458 96 454 73 455 44 c 1
 451 39 l 1
 392 44 367 45 340 45 c 2
 287 45 l 1
 273 -34 l 2
 267 -70 264 -94 264 -117 c 0
 264 -124 264 -134 265 -147 c 1
 260 -153 l 1
 214 -150 214 -150 206 -150 c 0
 198 -150 197 -150 156 -153 c 1
 150 -147 l 1
 163 -114 168 -96 177 -46 c 2
 194 45 l 1
 148 45 l 2
 125 45 94 43 57 38 c 0
 48 37 47 37 39 36 c 1
 33 40 l 1
EndSplineSet
Validated: 33
EndChar

StartChar: OE
Encoding: 141 338 108
Width: 944
VWidth: 0
Flags: W
TeX: 681 0
HStem: -17 47<248.403 407.559> 0 50<599.025 816.153> 330 48<656 843> 634 44<703 896.75> 648 47<315.435 488.57>
VStem: 39 123<146.369 424.722> 878 36<145.727 168> 904 32<520 562.56>
LayerCount: 2
Fore
SplineSet
39 281 m 0xa6
 39 515 196 695 400 695 c 0xae
 439 695 476 689 508 676 c 0
 544 662 563 647 594 608 c 1
 606 681 l 1
 647 679 689 678 731 678 c 0
 775 678 820 681 864 681 c 2
 951 681 l 1
 961 672 l 1
 936 520 l 1
 904 520 l 1
 904 573 l 2x35
 904 601 902 611 897 617 c 0
 892 622 866 627 831 629 c 0
 809 630 785 634 752 634 c 0
 733 634 749 634 703 630 c 1
 656 378 l 1
 712 378 l 1
 852 381 l 1
 857 372 l 1
 843 325 l 1
 673 330 l 1
 648 330 l 1
 598 56 l 1
 620 51 634 50 656 50 c 0
 714 50 800 55 817 59 c 0
 838 64 849 75 856 98 c 2
 878 168 l 1
 914 168 l 1
 901 115 894 80 880 -3 c 1
 762 -3 l 2
 719 -1 677 0 634 0 c 0x76
 583 0 531 -1 480 -3 c 1
 495 63 l 1
 431 5 376 -17 298 -17 c 0
 209 -17 139 15 95 76 c 0
 60 125 39 201 39 281 c 0xa6
162 264 m 0
 162 114 222 30 330 30 c 0
 427 30 491 99 515 228 c 2
 556 450 l 2
 559 464 560 479 560 493 c 0
 560 586 497 648 403 648 c 0
 336 648 280 618 239 559 c 0
 192 491 162 378 162 264 c 0
EndSplineSet
Validated: 1
AlternateSubs2: "'aalt' Access All Alternates lookup 0 subtable" oe.sc
AlternateSubs2: "'aalt' Access All Alternates in Latin lookup 0 subtable" oe.sc
Substitution2: "'c2sc' Capitals to Small Capitals in Latin lookup 13 subtable" oe.sc
Position2: "'cpsp' Capital Spacing in Latin lookup 12 subtable" dx=7 dy=0 dh=14 dv=0
EndChar

StartChar: quoteleft
Encoding: 145 8216 109
Width: 278
VWidth: 0
Flags: W
TeX: 681 0
HStem: 431 289
VStem: 65 226
LayerCount: 2
Fore
SplineSet
65 445 m 1
 124 560 168 627 225 692 c 1
 275 720 l 1
 291 709 l 1
 243 628 215 552 200 462 c 1
 158 458 119 443 79 431 c 1
 65 445 l 1
EndSplineSet
Validated: 1
EndChar

StartChar: quoteright
Encoding: 146 8217 110
Width: 278
VWidth: 0
Flags: W
TeX: 681 0
HStem: 431 289
VStem: 76 226
LayerCount: 2
Fore
SplineSet
76 442 m 1
 123 522 151 599 167 689 c 1
 208 692 249 708 288 720 c 1
 302 706 l 1
 242 591 199 524 142 459 c 1
 92 431 l 1
 76 442 l 1
EndSplineSet
Validated: 1
EndChar

StartChar: quotedblleft
Encoding: 147 8220 111
Width: 500
VWidth: 0
GlyphClass: 3
Flags: W
TeX: 681 0
HStem: 431 289
LayerCount: 2
Fore
SplineSet
65 445 m 1
 124 560 168 627 225 692 c 1
 275 720 l 1
 291 709 l 1
 243 628 215 552 200 462 c 1
 158 458 119 443 79 431 c 1
 65 445 l 1
285 445 m 1
 344 560 388 627 445 692 c 1
 495 720 l 1
 511 709 l 1
 463 628 435 552 420 462 c 1
 378 458 339 443 299 431 c 1
 285 445 l 1
EndSplineSet
Validated: 1
Ligature2: "'dlig' Discretionary Ligatures in Latin lookup 12 subtable" quoteleft quoteleft
EndChar

StartChar: quotedblright
Encoding: 148 8221 112
Width: 500
VWidth: 0
GlyphClass: 3
Flags: W
TeX: 681 0
HStem: 431 289
LayerCount: 2
Fore
SplineSet
73 442 m 1
 120 522 148 599 164 689 c 1
 205 692 246 708 285 720 c 1
 299 706 l 1
 239 591 196 524 139 459 c 1
 89 431 l 1
 73 442 l 1
293 442 m 1
 340 522 368 599 384 689 c 1
 425 692 466 708 505 720 c 1
 519 706 l 1
 459 591 416 524 359 459 c 1
 309 431 l 1
 293 442 l 1
EndSplineSet
Validated: 1
Ligature2: "'dlig' Discretionary Ligatures in Latin lookup 12 subtable" quoteright quoteright
EndChar

StartChar: endash
Encoding: 150 8211 113
Width: 500
VWidth: 0
GlyphClass: 3
Flags: W
TeX: 282 0
HStem: 214 68<0 500>
LayerCount: 2
Fore
SplineSet
-12 214 m 1
 0 282 l 1
 512 282 l 1
 500 214 l 1
 -12 214 l 1
EndSplineSet
Validated: 1
Ligature2: "'dlig' Discretionary Ligatures in Latin lookup 12 subtable" hyphen hyphen
EndChar

StartChar: emdash
Encoding: 151 8212 114
Width: 1000
VWidth: 0
GlyphClass: 3
Flags: W
TeX: 282 0
HStem: 214 68<0 1000>
LayerCount: 2
Fore
SplineSet
-12 214 m 1
 0 282 l 1
 1012 282 l 1
 1000 214 l 1
 -12 214 l 1
EndSplineSet
Validated: 1
Ligature2: "'dlig' Discretionary Ligatures in Latin lookup 12 subtable" hyphen hyphen hyphen hyphen
EndChar

StartChar: oe
Encoding: 157 339 115
Width: 778
VWidth: 0
Flags: W
TeX: 452 0
HStem: -17 64<464.5 583.977> -17 44<193.389 302.385> 425 44<242.91 358.803 569.013 687>
VStem: 48 114<60.1643 274.191> 388 89<158.348 197.792> 661 94<312.462 414.107>
LayerCount: 2
Fore
SplineSet
48 133 m 0x7c
 48 217 72 306 107 350 c 0
 162 418 262 469 343 469 c 0
 390 469 434 455 462 430 c 0
 472 421 477 414 487 398 c 1
 562 450 607 469 656 469 c 0
 718 469 755 437 755 385 c 0
 755 329 721 280 660 247 c 0
 616 223 569 210 483 195 c 1
 479 177 477 158 477 136 c 0
 477 79 504 47 551 47 c 0
 583 47 622 60 654 80 c 2
 712 117 l 1
 725 89 l 1
 610 9 551 -17 489 -17 c 0xbc
 440 -17 398 6 376 44 c 1
 300 -2 257 -17 199 -17 c 0
 100 -17 48 35 48 133 c 0x7c
162 139 m 0
 162 70 195 27 247 27 c 0x7c
 285 27 313 46 338 88 c 0
 366 136 388 231 388 307 c 0
 388 385 359 425 303 425 c 0
 253 425 226 401 201 333 c 0
 177 270 162 194 162 139 c 0
487 223 m 1
 542 236 l 2
 607 251 661 314 661 374 c 0
 661 402 641 421 612 421 c 0
 562 421 528 377 502 280 c 2
 487 223 l 1
EndSplineSet
Validated: 1
AlternateSubs2: "'aalt' Access All Alternates lookup 0 subtable" oe.sc
AlternateSubs2: "'aalt' Access All Alternates in Latin lookup 0 subtable" oe.sc
Substitution2: "'smcp' Lowercase to Small Capitals in Latin lookup 2 subtable" oe.sc
EndChar

StartChar: Lslash
Encoding: 163 321 116
Width: 611
VWidth: 0
GlyphClass: 2
Flags: W
TeX: 681 0
HStem: -3 21G<26 28.5> 0 56<226 509.27> 661 20G<106.714 109 417.714 420>
VStem: 542 36<150.87 174>
AnchorPoint: "bot_acc" 240 -157 basechar 0
AnchorPoint: "dotbelow" 240 -157 basechar 0
AnchorPoint: "ogon_acc" 408 -157 basechar 0
AnchorPoint: "top_accu" 300 821 basechar 0
AnchorPoint: "dotabove" 300 821 basechar 0
LayerCount: 2
Fore
SplineSet
26 -3 m 1xb0
 30 29 l 1
 58 32 l 2
 87 35 96 46 104 92 c 2
 140 288 l 1
 55 231 l 1
 40 265 l 1
 149 339 l 1
 186 541 l 2
 192 573 195 599 195 615 c 0
 195 632 183 642 157 643 c 2
 105 646 l 1
 109 681 l 1
 109 681 202 678 261 678 c 0
 323 678 420 681 420 681 c 1
 416 646 l 1
 371 643 l 2
 338 641 332 635 325 599 c 2
 294 432 l 1
 434 529 l 1
 449 496 l 1
 285 381 l 1
 226 56 l 1
 250 51 261 50 288 50 c 0
 337 50 423 53 462 56 c 0
 496 59 510 70 519 98 c 2
 542 174 l 1
 578 174 l 1
 559 81 552 50 544 0 c 1x70
 372 -3 l 2xb0
 294 -3 249 0 171 0 c 0x70
 114 0 26 -3 26 -3 c 1xb0
EndSplineSet
Validated: 1
AlternateSubs2: "'aalt' Access All Alternates lookup 0 subtable" lslash.sc
AlternateSubs2: "'aalt' Access All Alternates in Latin lookup 0 subtable" lslash.sc
Substitution2: "'c2sc' Capitals to Small Capitals in Latin lookup 13 subtable" lslash.sc
Position2: "'cpsp' Capital Spacing in Latin lookup 12 subtable" dx=7 dy=0 dh=14 dv=0
EndChar

StartChar: currency
Encoding: 164 164 117
Width: 500
VWidth: 0
Flags: W
TeX: 533 0
HStem: 102 76<178.478 322.181> 447 77<177.789 322.728>
VStem: 39 77<239.779 384.251> 384 77<240.479 385.878>
LayerCount: 2
Fore
SplineSet
32 141 m 1
 81 190 l 1
 51 228 39 262 39 313 c 0
 39 365 51 401 81 435 c 1
 32 484 l 1
 79 531 l 1
 127 483 l 1
 164 511 204 524 251 524 c 0
 297 524 334 512 371 484 c 1
 419 533 l 1
 468 484 l 1
 422 436 l 1
 449 401 461 363 461 314 c 0
 461 265 449 228 421 189 c 1
 467 141 l 1
 422 96 l 1
 375 145 l 1
 338 115 302 102 250 102 c 0
 199 102 162 114 125 144 c 1
 77 96 l 1
 32 141 l 1
116 312 m 0
 116 239 177 178 251 178 c 0
 324 178 384 239 384 314 c 0
 384 388 324 447 249 447 c 0
 177 447 116 385 116 312 c 0
EndSplineSet
Validated: 1
EndChar

StartChar: Aogonek
Encoding: 165 260 118
Width: 722
VWidth: 0
GlyphClass: 3
Flags: W
TeX: 681 -250
HStem: -250 85<481 569.06> -3 35<384 426 648 685> 267 40<245 438> 663 20G<402.157 511.5>
AnchorPoint: "bot_acc" 512 -390 basechar 0
AnchorPoint: "dotbelow" 512 -390 basechar 0
AnchorPoint: "ogon_acc" 512 -390 basechar 0
AnchorPoint: "top_accu" 487 821 basechar 0
AnchorPoint: "dotabove" 487 821 basechar 0
LayerCount: 2
Fore
SplineSet
-35 -3 m 1
 -30 32 l 1
 4 35 l 2
 22 37 38 48 51 70 c 2
 414 683 l 1
 510 683 l 1
 513 660 515 635 518 612 c 2
 594 90 l 2
 599 54 616 38 648 35 c 2
 685 32 l 1
 685 -3 l 1
 675 -3 l 2
 632 -1 588 -25 559 -63 c 0
 543 -84 532 -107 527 -132 c 0
 522 -159 542 -165 564 -165 c 0
 575 -165 606 -153 630 -136 c 2
 652 -120 l 1
 659 -150 l 1
 591 -224 544 -250 502 -250 c 0
 460 -250 436 -216 448 -149 c 0
 459 -90 521 -38 579 0 c 1
 539 0 l 1
 384 -3 l 1
 384 32 l 1
 426 35 l 2
 454 37 470 48 468 66 c 2
 443 264 l 1
 406 265 376 267 333 267 c 0
 290 267 222 264 222 264 c 1
 136 112 l 2
 122 87 117 72 117 55 c 0
 117 43 130 37 160 35 c 2
 204 32 l 1
 199 -3 l 1
 199 -3 123 0 75 0 c 0
 32 0 -35 -3 -35 -3 c 1
245 307 m 1
 438 307 l 1
 400 573 l 1
 245 307 l 1
EndSplineSet
Validated: 33
AlternateSubs2: "'aalt' Access All Alternates lookup 0 subtable" aogonek.sc
AlternateSubs2: "'aalt' Access All Alternates in Latin lookup 0 subtable" aogonek.sc
Ligature2: "ccmp_lig subtable" A ogonekcomb
Substitution2: "'c2sc' Capitals to Small Capitals in Latin lookup 13 subtable" aogonek.sc
Position2: "'cpsp' Capital Spacing in Latin lookup 12 subtable" dx=7 dy=0 dh=14 dv=0
EndChar

StartChar: section
Encoding: 167 167 119
Width: 556
VWidth: 0
Flags: W
TeX: 681 -250
HStem: -151 44<156.197 300.529> 646 49<245.04 392.299>
VStem: 76 33<15.4138 48> 81 83<268.843 361.385> 136 79<499 587.057> 354 84<-29.2574 50.5632> 411 75<210.781 297.886> 436 34<518 551.185>
LayerCount: 2
Fore
SplineSet
47 -87 m 1xc4
 76 48 l 1
 109 48 l 1xe4
 104 -37 l 1
 143 -85 183 -107 230 -107 c 0
 294 -107 354 -56 354 -1 c 0
 354 28 330 62 298 81 c 2
 163 159 l 2
 106 192 81 231 81 286 c 0xd4
 81 343 105 380 177 435 c 1
 149 461 136 486 136 512 c 0
 136 563 172 625 221 659 c 0
 257 683 294 695 336 695 c 0
 394 695 440 681 497 646 c 1
 470 518 l 1
 436 518 l 1xc9
 439 591 l 1
 393 630 356 646 311 646 c 0
 255 646 215 614 215 569 c 0
 215 536 235 511 286 481 c 2
 403 412 l 2
 457 380 486 338 486 291 c 0xca
 486 231 456 182 392 138 c 1
 424 110 438 80 438 44 c 0
 438 -2 409 -54 360 -96 c 0
 319 -131 263 -151 207 -151 c 0
 147 -151 98 -132 47 -87 c 1xc4
164 325 m 0xd2
 164 288 190 254 238 227 c 2
 355 161 l 1
 386 172 411 208 411 243 c 0
 411 266 398 291 379 309 c 0
 371 315 354 326 327 342 c 2
 211 409 l 1
 178 379 164 354 164 325 c 0xd2
EndSplineSet
Validated: 1
EndChar

StartChar: Uogonek
Encoding: 168 370 120
Width: 778
VWidth: 0
GlyphClass: 3
Flags: W
TeX: 681 -250
HStem: -250 85<517 605.06> -17 80<261.507 366.33> -3 38<642.696 721> 643 38<88.0589 169.931 514.068 595.931>
VStem: 94 130<99.243 306.695>
AnchorPoint: "bot_acc" 548 -390 basechar 0
AnchorPoint: "dotbelow" 548 -390 basechar 0
AnchorPoint: "ogon_acc" 548 -390 basechar 0
AnchorPoint: "top_accu" 489 821 basechar 0
AnchorPoint: "dotabove" 489 821 basechar 0
LayerCount: 2
Fore
SplineSet
83 646 m 1xd8
 88 681 l 1
 88 681 169 677 220 678 c 0
 254 678 307 681 307 681 c 1
 313 674 l 1
 227 214 l 2
 225 203 224 192 224 179 c 0
 224 150 229 125 238 110 c 0
 254 82 290 63 327 63 c 0xd8
 356 63 385 72 421 93 c 0
 469 120 518 164 521 182 c 2
 586 541 l 2
 595 590 597 606 597 617 c 0
 597 633 585 642 560 643 c 2
 509 646 l 1
 514 681 l 1
 514 681 607 678 666 678 c 0
 728 678 825 681 825 681 c 1
 820 646 l 1
 774 643 l 2
 739 641 732 635 725 599 c 2
 635 100 l 2
 632 83 631 75 631 65 c 0
 631 44 640 36 667 35 c 2
 726 32 l 1
 721 -3 l 1
 713 -3 l 2
 669 -1 624 -25 595 -63 c 0
 579 -84 568 -107 563 -132 c 0
 558 -159 578 -165 600 -165 c 0
 611 -165 642 -153 666 -136 c 2
 688 -120 l 1
 695 -150 l 1
 627 -224 580 -250 538 -250 c 0
 496 -250 472 -216 484 -149 c 0
 495 -89 557 -38 616 0 c 1
 603 0 l 2
 562 0 497 -3 497 -3 c 1xb8
 492 5 l 1
 519 133 l 1
 461 71 438 51 403 26 c 0
 365 -1 318 -17 271 -17 c 0
 208 -17 153 9 122 53 c 0
 103 79 94 113 94 156 c 0
 94 180 97 205 102 234 c 2
 160 541 l 2
 168 585 171 592 171 617 c 0
 171 633 159 642 134 643 c 2
 83 646 l 1xd8
EndSplineSet
Validated: 33
AlternateSubs2: "'aalt' Access All Alternates lookup 0 subtable" uogonek.sc
AlternateSubs2: "'aalt' Access All Alternates in Latin lookup 0 subtable" uogonek.sc
Ligature2: "ccmp_lig subtable" U ogonekcomb
Substitution2: "'c2sc' Capitals to Small Capitals in Latin lookup 13 subtable" uogonek.sc
Position2: "'cpsp' Capital Spacing in Latin lookup 12 subtable" dx=7 dy=0 dh=14 dv=0
EndChar

StartChar: AE
Encoding: 170 198 121
Width: 944
VWidth: 0
Flags: W
TeX: 681 0
HStem: -3 53<547 816.413> -3 32<-24 2 160 205 354 416.5> 262 46<270 460> 330 48<602 819> 633 48<647 865.781> 639 39<473.882 520.996> 646 35<316 413.443>
VStem: 853 36<145.727 168> 870 32<520 562.56>
LayerCount: 2
Fore
SplineSet
-29 -3 m 1x71
 -24 29 l 1
 2 34 l 2
 31 40 60 66 96 122 c 2
 387 573 l 2
 408 605 414 617 414 624 c 0
 414 637 402 645 381 646 c 2
 311 649 l 1
 316 681 l 1x73
 572 678 l 2x35
 634 678 669 681 731 681 c 0x39
 804 681 740 682 917 678 c 1x35
 927 672 l 1
 902 520 l 1
 870 520 l 1
 870 573 l 2
 870 607 867 616 856 619 c 0
 830 625 713 635 686 633 c 2
 647 630 l 1
 602 378 l 1
 688 378 l 1
 828 381 l 1
 833 372 l 1
 819 325 l 1
 649 330 l 1
 594 330 l 1
 547 56 l 1
 572 51 584 50 610 50 c 2xb880
 677 52 l 2
 805 56 818 58 831 98 c 2
 853 168 l 1
 889 168 l 1
 878 123 871 88 854 -3 c 1x71
 683 -3 l 2xb1
 604 -3 559 0 480 0 c 0
 429 0 348 -3 348 -3 c 1
 354 29 l 1
 394 32 l 2
 414 33 422 45 430 91 c 2
 460 262 l 1
 423 263 l 1
 360 265 l 1
 350 265 l 1
 239 262 l 1
 139 92 l 2
 132 80 124 71 124 57 c 0
 124 40 133 34 160 32 c 2
 210 29 l 1
 205 -3 l 1
 172 -3 128 1 78 1 c 0
 36 1 110 1 -29 -3 c 1x71
270 308 m 1
 467 308 l 1
 517 589 l 2
 520 603 521 616 521 625 c 0
 521 633 516 639 508 639 c 0x34
 489 639 466 617 436 570 c 2
 270 308 l 1
EndSplineSet
Validated: 33
AlternateSubs2: "'aalt' Access All Alternates lookup 0 subtable" ae.sc
AlternateSubs2: "'aalt' Access All Alternates in Latin lookup 0 subtable" ae.sc
Substitution2: "'c2sc' Capitals to Small Capitals in Latin lookup 13 subtable" ae.sc
Position2: "'cpsp' Capital Spacing in Latin lookup 12 subtable" dx=7 dy=0 dh=14 dv=0
EndChar

StartChar: guillemotleft
Encoding: 171 171 122
Width: 500
VWidth: 0
Flags: W
TeX: 446 0
LayerCount: 2
Fore
SplineSet
35 235 m 1
 35 256 l 1
 143 352 104 317 245 446 c 1
 267 426 l 1
 141 243 l 1
 228 57 l 1
 203 43 l 1
 35 235 l 1
226 235 m 1
 226 256 l 1
 334 352 295 317 436 446 c 1
 458 426 l 1
 332 243 l 1
 419 57 l 1
 394 43 l 1
 226 235 l 1
EndSplineSet
Validated: 1
EndChar

StartChar: degree
Encoding: 176 176 123
Width: 400
VWidth: 0
Flags: W
TeX: 681 0
HStem: 383 61<143.376 258.106> 622 61<141.901 255.842>
VStem: 50 61<476.458 591.813> 289 61<474.683 589.871>
LayerCount: 2
Fore
SplineSet
50 533 m 0
 50 617 117 683 202 683 c 0
 282 683 350 614 350 533 c 0
 350 450 282 383 200 383 c 0
 117 383 50 450 50 533 c 0
111 534 m 0
 111 484 151 444 200 444 c 0
 249 444 289 484 289 533 c 0
 289 581 248 622 200 622 c 0
 150 622 111 583 111 534 c 0
EndSplineSet
Validated: 1
EndChar

StartChar: lslash
Encoding: 179 322 124
Width: 333
VWidth: 0
GlyphClass: 2
Flags: W
TeX: 726 0
HStem: -17 82<85.5 199.5> 652 28<110 179.848> 706 20G<283.5 318>
VStem: 64 118<17.6194 171.432>
AnchorPoint: "bot_acc" 103 -157 basechar 0
AnchorPoint: "dotbelow" 103 -157 basechar 0
AnchorPoint: "ogon_acc" 103 -157 basechar 0
AnchorPoint: "top_accl" 321 883 basechar 0
AnchorPoint: "dotabove" 321 883 basechar 0
LayerCount: 2
Fore
SplineSet
37 341 m 1
 139 414 l 1
 179 596 l 2
 182 608 183 618 183 627 c 0
 183 643 171 652 148 652 c 2
 103 652 l 1
 110 680 l 1
 210 695 259 706 308 726 c 1
 318 717 l 1
 313 696 308 673 301 652 c 2
 267 499 l 1
 364 569 l 1
 379 536 l 1
 255 446 l 1
 194 170 l 2
 186 135 182 103 182 79 c 0
 182 70 187 65 194 65 c 0
 205 65 228 76 247 91 c 2
 277 114 l 1
 291 87 l 1
 174 2 139 -17 96 -17 c 0
 75 -17 64 0 64 35 c 0
 64 70 65 78 80 146 c 2
 127 361 l 1
 52 307 l 1
 37 341 l 1
EndSplineSet
Validated: 1
AlternateSubs2: "'aalt' Access All Alternates lookup 0 subtable" lslash.sc
AlternateSubs2: "'aalt' Access All Alternates in Latin lookup 0 subtable" lslash.sc
Substitution2: "'smcp' Lowercase to Small Capitals in Latin lookup 2 subtable" lslash.sc
EndChar

StartChar: paragraph
Encoding: 182 182 125
Width: 556
VWidth: 0
Flags: W
TeX: 681 -204
HStem: -204 35<83 166.803 405.677 492> -201 42<249 317> 634 44<389 457> 647 34<205.861 314 535.032 622>
VStem: 14 143<394.13 597.679> 317 82<-158.84 -119.35>
LayerCount: 2
Fore
SplineSet
14 505 m 0x8c
 14 621 77 683 198 681 c 2x9c
 251 680 l 1
 400 678 l 1
 419 678 l 1x2c
 629 681 l 1
 622 645 l 1
 558 642 l 2
 539 641 533 634 528 606 c 2
 402 -103 l 1
 402 -105 l 1
 401 -108 l 2
 400 -118 399 -126 399 -133 c 0
 399 -157 422 -169 466 -169 c 2
 495 -169 l 1
 492 -204 l 1x9c
 303 -201 l 1x4c
 80 -204 l 1
 83 -169 l 1
 116 -169 l 2
 141 -169 160 -162 168 -150 c 0
 178 -135 181 -123 192 -59 c 2
 244 239 l 1
 192 246 166 255 130 279 c 0
 57 328 14 412 14 505 c 0x8c
157 480 m 0
 157 374 193 298 251 278 c 1
 314 642 l 1
 289 646 277 647 261 647 c 0
 191 647 157 593 157 480 c 0
249 -159 m 1x6c
 317 -159 l 1
 457 634 l 1
 389 634 l 1
 249 -159 l 1x6c
EndSplineSet
Validated: 33
AlternateSubs2: "'aalt' Access All Alternates lookup 0 subtable" paragraph.alt
AlternateSubs2: "'aalt' Access All Alternates in Latin lookup 0 subtable" paragraph.alt
Substitution2: "'ss02' Style Set 2 in Latin lookup 16 subtable" paragraph.alt
Substitution2: "'ss01' Style Set 1 in Latin lookup 15 subtable" paragraph.alt
Substitution2: "'salt' Stylistic Alternatives in Latin lookup 14 subtable" paragraph.alt
EndChar

StartChar: paragraph.alt
Encoding: 281 -1 126
Width: 391
VWidth: 0
Flags: W
TeX: 683 -204
HStem: -204 35<83 166.803 262.677 349> 647 34<205.861 314 392.032 479>
VStem: 14 143<394.13 597.679>
LayerCount: 2
Fore
SplineSet
14 505 m 0
 14 621 77 683 198 681 c 2
 251 680 l 1
 342 678 l 1
 361 678 l 1
 486 681 l 1
 479 645 l 1
 415 642 l 2
 396 641 390 634 385 606 c 2
 259 -103 l 1
 258 -108 l 2
 257 -118 256 -126 256 -133 c 0
 256 -157 279 -169 323 -169 c 2
 352 -169 l 1
 349 -204 l 1
 202 -201 l 1
 80 -204 l 1
 83 -169 l 1
 116 -169 l 2
 141 -169 160 -162 168 -150 c 0
 178 -135 181 -123 192 -59 c 2
 244 239 l 1
 192 246 166 255 130 279 c 0
 57 328 14 412 14 505 c 0
157 480 m 0
 157 374 193 298 251 278 c 1
 314 642 l 1
 289 646 277 647 261 647 c 0
 191 647 157 593 157 480 c 0
EndSplineSet
Validated: 33
EndChar

StartChar: uogonek
Encoding: 184 371 127
Width: 556
VWidth: 0
GlyphClass: 3
Flags: W
TeX: 452 -250
HStem: -250 85<261 349.06> -17 88<84 200.5> 449 20G<203.5 225.5>
VStem: 53 117<18.0254 130.105> 312 108<8.76282 127.44>
AnchorPoint: "bot_acc" 292 -390 basechar 0
AnchorPoint: "dotbelow" 292 -390 basechar 0
AnchorPoint: "ogon_acc" 292 -390 basechar 0
AnchorPoint: "top_accl" 339 609 basechar 0
AnchorPoint: "dotabove" 339 609 basechar 0
LayerCount: 2
Fore
SplineSet
22 365 m 1
 101 419 l 2
 147 450 190 469 217 469 c 0
 234 469 244 456 244 434 c 0
 244 405 240 386 215 287 c 2
 180 150 l 2
 174 125 170 101 170 84 c 0
 170 76 177 71 186 71 c 0
 215 71 268 124 317 202 c 0
 365 280 395 371 397 447 c 1
 430 446 464 452 507 465 c 1
 516 454 l 1
 474 313 l 1
 434 158 l 2
 424 125 420 98 420 86 c 0
 420 79 426 74 434 74 c 0
 448 74 469 83 489 99 c 2
 511 116 l 1
 521 88 l 1
 494 68 500 73 486 62 c 0
 441 26 366 -33 352 -48 c 0
 330 -72 313 -101 307 -132 c 0
 302 -159 322 -165 344 -165 c 0
 355 -165 386 -153 410 -136 c 2
 432 -120 l 1
 439 -150 l 1
 371 -224 324 -250 282 -250 c 0
 240 -250 216 -216 228 -149 c 0
 237 -97 285 -51 336 -16 c 1
 322 -11 312 4 312 26 c 0
 312 42 317 67 328 107 c 2
 360 224 l 1
 261 68 168 -17 97 -17 c 0
 71 -17 53 6 53 40 c 0
 53 57 57 80 66 114 c 0
 73 140 69 125 87 193 c 0
 111 284 121 333 121 354 c 0
 121 364 115 370 104 370 c 0
 94 370 82 367 71 360 c 2
 35 339 l 1
 22 365 l 1
EndSplineSet
Validated: 33
AlternateSubs2: "'aalt' Access All Alternates lookup 0 subtable" uogonek.sc
AlternateSubs2: "'aalt' Access All Alternates in Latin lookup 0 subtable" uogonek.sc
Ligature2: "ccmp_lig subtable" u ogonekcomb
Substitution2: "'smcp' Lowercase to Small Capitals in Latin lookup 2 subtable" uogonek.sc
EndChar

StartChar: aogonek
Encoding: 185 261 128
Width: 556
VWidth: 0
GlyphClass: 3
Flags: W
TeX: 452 -250
HStem: -250 85<270 358.06> -17 82<82 184.5> 417 52<256.415 375.899>
VStem: 44 112<27.0589 199.677>
AnchorPoint: "bot_acc" 301 -390 basechar 0
AnchorPoint: "dotbelow" 301 -390 basechar 0
AnchorPoint: "ogon_acc" 301 -390 basechar 0
AnchorPoint: "top_accl" 354 609 basechar 0
AnchorPoint: "dotabove" 354 609 basechar 0
LayerCount: 2
Fore
SplineSet
44 58 m 0
 44 137 79 271 114 326 c 0
 130 351 192 405 248 442 c 0
 279 463 301 469 342 469 c 0
 375 469 397 463 444 443 c 1
 489 470 l 1
 505 458 l 1
 487 408 480 385 473 353 c 2
 428 139 l 1
 418 90 l 1
 420 72 423 65 432 65 c 0
 443 65 465 79 487 96 c 2
 507 112 l 1
 519 82 l 1
 496 62 475 45 456 31 c 0
 422 7 389 -17 361 -48 c 0
 339 -72 322 -101 316 -132 c 0
 312 -159 331 -165 353 -165 c 0
 364 -165 395 -153 419 -136 c 2
 441 -120 l 1
 448 -150 l 1
 380 -224 333 -250 291 -250 c 0
 249 -250 225 -216 237 -149 c 0
 246 -98 293 -53 343 -17 c 1
 324 -16 313 1 313 27 c 0
 313 45 315 64 320 83 c 2
 357 234 l 1
 264 71 174 -17 98 -17 c 0
 66 -17 44 14 44 58 c 0
156 102 m 0
 156 82 164 65 173 65 c 0
 195 65 233 99 274 153 c 0
 330 228 363 305 377 395 c 1
 343 411 322 417 295 417 c 0
 253 417 225 388 203 318 c 0
 178 240 156 139 156 102 c 0
EndSplineSet
Validated: 33
AlternateSubs2: "'aalt' Access All Alternates lookup 0 subtable" aogonek.sc
AlternateSubs2: "'aalt' Access All Alternates in Latin lookup 0 subtable" aogonek.sc
Ligature2: "ccmp_lig subtable" a ogonekcomb
Substitution2: "'smcp' Lowercase to Small Capitals in Latin lookup 2 subtable" aogonek.sc
EndChar

StartChar: ae
Encoding: 186 230 129
Width: 738
VWidth: 0
Flags: W
TeX: 452 0
HStem: -17 73<117 232.713> -17 64<411 539.085> 222 29<218.266 335 443 526.253> 408 61<169.694 300.163> 421 48<524.977 645.5>
VStem: 44 105<65.9859 160.107> 335 100<127.076 216.83> 617 94<314.398 414.886>
LayerCount: 2
Fore
SplineSet
44 80 m 0xa7
 44 131 71 184 109 210 c 0
 145 234 206 251 259 251 c 2
 339 251 l 1
 339 295 l 2
 339 369 300 408 226 408 c 0
 206 408 186 404 166 402 c 1
 142 335 l 1
 123 339 l 1
 116 413 l 1
 172 455 208 469 266 469 c 0xb7
 343 469 386 440 409 372 c 1
 501 443 557 469 617 469 c 0
 674 469 711 435 711 383 c 0
 711 291 627 240 439 218 c 1
 436 193 435 170 435 141 c 0
 435 77 458 47 508 47 c 0
 549 47 595 66 670 114 c 1
 680 86 l 1
 668 78 663 76 651 68 c 0
 552 4 502 -17 443 -17 c 0x6f
 379 -17 342 9 322 69 c 1
 237 -1 204 -17 149 -17 c 0
 85 -17 44 21 44 80 c 0xa7
149 113 m 0
 149 75 169 56 208 56 c 0
 282 56 330 118 335 222 c 1
 291 222 l 2
 207 222 149 177 149 113 c 0
443 248 m 1
 468 251 481 252 492 255 c 0
 538 265 573 285 593 311 c 0
 608 332 617 354 617 373 c 0
 617 403 600 421 571 421 c 0x2f
 536 421 508 400 486 358 c 0
 474 335 469 322 443 248 c 1
EndSplineSet
Validated: 1
AlternateSubs2: "'aalt' Access All Alternates lookup 0 subtable" ae.sc
AlternateSubs2: "'aalt' Access All Alternates in Latin lookup 0 subtable" ae.sc
Substitution2: "'smcp' Lowercase to Small Capitals in Latin lookup 2 subtable" ae.sc
EndChar

StartChar: guillemotright
Encoding: 187 187 130
Width: 500
VWidth: 0
Flags: W
TeX: 443 0
LayerCount: 2
Fore
SplineSet
35 60 m 1
 161 243 l 1
 74 429 l 1
 99 443 l 1
 267 251 l 1
 267 230 l 1
 159 134 198 169 57 40 c 1
 35 60 l 1
226 60 m 1
 352 243 l 1
 265 429 l 1
 290 443 l 1
 458 251 l 1
 458 230 l 1
 350 134 389 169 248 40 c 1
 226 60 l 1
EndSplineSet
Validated: 1
EndChar

StartChar: Ccedilla
Encoding: 199 199 131
Width: 685
VWidth: 0
GlyphClass: 3
Flags: W
TeX: 681 -250
HStem: -218 41<205.803 324.962> -17 65<339 469.921> 636 59<371.303 580.858>
VStem: 69 138<143.233 385.594> 332 92<-170.218 -104.738> 622 35<484 572>
AnchorPoint: "bot_acc" 310 -358 basechar 0
AnchorPoint: "dotbelow" 310 -358 basechar 0
AnchorPoint: "ogon_acc" 310 -358 basechar 0
AnchorPoint: "top_accu" 458 821 basechar 0
AnchorPoint: "dotabove" 458 821 basechar 0
LayerCount: 2
Fore
SplineSet
69 250 m 0
 69 497 263 695 504 695 c 0
 573 695 630 682 695 652 c 1
 669 560 662 531 657 484 c 1
 622 484 l 1
 627 572 l 2
 629 605 545 636 453 636 c 0
 302 636 207 495 207 272 c 0
 207 119 268 48 399 48 c 0
 462 48 521 67 597 112 c 2
 619 125 l 1
 629 116 l 1
 616 77 l 1
 514 11 432 -17 339 -17 c 1
 308 -62 l 1
 318 -60 325 -59 334 -59 c 0
 387 -59 424 -88 424 -131 c 0
 424 -182 373 -218 301 -218 c 0
 262 -218 233 -212 188 -193 c 1
 210 -160 l 1
 239 -173 255 -177 277 -177 c 0
 311 -177 332 -162 332 -137 c 0
 332 -113 315 -100 284 -100 c 0
 274 -100 267 -101 255 -104 c 1
 242 -92 l 1
 296 -15 l 1
 147 0 69 91 69 250 c 0
EndSplineSet
Validated: 33
AlternateSubs2: "'aalt' Access All Alternates lookup 0 subtable" ccedilla.sc
AlternateSubs2: "'aalt' Access All Alternates in Latin lookup 0 subtable" ccedilla.sc
Ligature2: "ccmp_lig subtable" C cedillacmb
Substitution2: "'c2sc' Capitals to Small Capitals in Latin lookup 13 subtable" ccedilla.sc
Position2: "'cpsp' Capital Spacing in Latin lookup 12 subtable" dx=7 dy=0 dh=14 dv=0
EndChar

StartChar: Eogonek
Encoding: 202 280 132
Width: 611
VWidth: 0
GlyphClass: 3
Flags: W
TeX: 681 -250
HStem: -250 85<312 400.034> -3 32<16 44> 0 56<214 410 432.33 489.635> 330 48<270 487> 630 48<315 536.193> 661 20G<90.875 94>
VStem: 520 36<145.727 168> 549 32<520 562.56>
AnchorPoint: "bot_acc" 343 -390 basechar 0
AnchorPoint: "dotbelow" 343 -390 basechar 0
AnchorPoint: "ogon_acc" 343 -390 basechar 0
AnchorPoint: "top_accu" 395 821 basechar 0
AnchorPoint: "dotabove" 395 821 basechar 0
LayerCount: 2
Fore
SplineSet
11 -3 m 1xd2
 16 29 l 1
 44 32 l 2
 74 35 84 47 92 92 c 2
 179 594 l 2
 180 601 181 609 181 615 c 0
 181 636 170 644 135 646 c 2
 89 649 l 1
 94 681 l 1xd6
 94 681 190 678 251 678 c 0x9a
 322 678 363 681 434 681 c 2x96
 596 678 l 1
 606 672 l 1
 581 520 l 1
 549 520 l 1
 549 573 l 2
 549 607 546 616 537 620 c 0
 521 625 426 634 381 634 c 0
 372 634 363 634 354 633 c 2
 315 630 l 1
 270 378 l 1
 356 378 l 1
 496 381 l 1
 501 372 l 1
 487 325 l 1
 317 330 l 1
 262 330 l 1
 214 56 l 1xb9
 249 49 274 49 312 51 c 0
 480 56 485 58 498 98 c 2
 520 168 l 1
 556 168 l 1
 545 123 538 89 521 -3 c 1
 490 -3 l 2xd2
 452 -2 416 -29 390 -63 c 0
 374 -84 362 -107 358 -132 c 0
 353 -159 373 -165 395 -165 c 0
 406 -165 436 -153 460 -136 c 2
 483 -120 l 1
 490 -150 l 1
 422 -224 375 -250 333 -250 c 0
 291 -250 267 -216 279 -149 c 0
 290 -90 351 -38 410 -1 c 1
 356 0 l 1
 152 0 l 1xb2
 11 -3 l 1xd2
EndSplineSet
Validated: 33
AlternateSubs2: "'aalt' Access All Alternates lookup 0 subtable" eogonek.sc
AlternateSubs2: "'aalt' Access All Alternates in Latin lookup 0 subtable" eogonek.sc
Ligature2: "ccmp_lig subtable" E ogonekcomb
Substitution2: "'c2sc' Capitals to Small Capitals in Latin lookup 13 subtable" eogonek.sc
Position2: "'cpsp' Capital Spacing in Latin lookup 12 subtable" dx=7 dy=0 dh=14 dv=0
EndChar

StartChar: Eth
Encoding: 208 208 133
Width: 778
VWidth: 0
Flags: W
TeX: 681 0
HStem: -3 43<205.922 440.056> -3 32<5 33> 342 40<30 124 260 436> 640 42<303 506.747> 649 32<83 124>
VStem: 609 138<287.73 536.186>
LayerCount: 2
Fore
SplineSet
0 -3 m 1x64
 5 29 l 1
 33 32 l 2
 63 35 73 47 81 92 c 2
 124 342 l 1
 24 342 l 1
 30 382 l 1
 131 382 l 1
 168 594 l 2
 169 601 170 609 170 614 c 0
 170 636 159 644 124 646 c 2
 78 649 l 1
 83 681 l 1x6c
 243 678 l 2
 324 678 370 682 451 682 c 0
 545 682 634 658 685 601 c 0
 725 556 747 494 747 422 c 0
 747 300 695 179 608 100 c 0
 535 33 445 0 330 -3 c 0xb4
 256 -5 215 0 141 0 c 2
 0 -3 l 1x64
203 51 m 1
 266 42 286 40 314 40 c 0
 430 40 497 73 541 151 c 0
 583 225 609 336 609 434 c 0
 609 521 584 578 533 608 c 0
 499 627 435 640 376 640 c 0xb4
 352 640 326 637 303 635 c 1
 260 382 l 1
 442 382 l 1
 436 342 l 1
 253 342 l 1
 203 51 l 1
EndSplineSet
Validated: 33
AlternateSubs2: "'aalt' Access All Alternates lookup 0 subtable" eth.sc
AlternateSubs2: "'aalt' Access All Alternates in Latin lookup 0 subtable" eth.sc
Substitution2: "'c2sc' Capitals to Small Capitals in Latin lookup 13 subtable" eth.sc
Position2: "'cpsp' Capital Spacing in Latin lookup 12 subtable" dx=7 dy=0 dh=14 dv=0
EndChar

StartChar: Oslash
Encoding: 216 216 134
Width: 833
VWidth: 0
GlyphClass: 2
Flags: W
TeX: 681 0
HStem: -17 43<308.856 482.824> 652 43<384.438 567.377>
VStem: 76 128<153.854 399.219> 656 138<273.698 532.991>
AnchorPoint: "bot_acc" 338 -211 basechar 0
AnchorPoint: "dotbelow" 338 -211 basechar 0
AnchorPoint: "ogon_acc" 338 -211 basechar 0
AnchorPoint: "top_accu" 519 821 basechar 0
AnchorPoint: "dotabove" 519 821 basechar 0
LayerCount: 2
Fore
SplineSet
57 -20 m 1
 141 70 l 1
 94 118 76 173 76 261 c 0
 76 520 246 695 498 695 c 0
 570 695 612 683 680 643 c 1
 763 730 l 1
 797 699 l 1
 718 615 l 1
 771 560 794 501 794 416 c 0
 794 168 608 -17 360 -17 c 0
 291 -17 247 -4 177 39 c 1
 89 -54 l 1
 57 -20 l 1
204 235 m 0
 204 206 209 181 219 153 c 1
 623 583 l 1
 580 633 540 652 476 652 c 0
 417 652 366 631 328 592 c 0
 256 519 204 386 204 235 c 0
240 106 m 1
 291 48 333 26 391 26 c 0
 473 26 542 70 589 153 c 0
 631 226 656 332 656 435 c 0
 656 473 653 497 643 535 c 1
 240 106 l 1
EndSplineSet
Validated: 1
AlternateSubs2: "'aalt' Access All Alternates lookup 0 subtable" oslash.sc
AlternateSubs2: "'aalt' Access All Alternates in Latin lookup 0 subtable" oslash.sc
Substitution2: "'c2sc' Capitals to Small Capitals in Latin lookup 13 subtable" oslash.sc
Position2: "'cpsp' Capital Spacing in Latin lookup 12 subtable" dx=7 dy=0 dh=14 dv=0
EndChar

StartChar: Iogonek
Encoding: 222 302 135
Width: 389
VWidth: 0
GlyphClass: 3
Flags: W
TeX: 681 -250
HStem: -250 85<105 193.06> -3 35<3 52 233.844 319> 661 20G<98.7143 101 409.714 412>
AnchorPoint: "bot_acc" 136 -390 basechar 0
AnchorPoint: "dotbelow" 136 -390 basechar 0
AnchorPoint: "ogon_acc" 136 -390 basechar 0
AnchorPoint: "top_accu" 292 821 basechar 0
AnchorPoint: "dotabove" 292 821 basechar 0
LayerCount: 2
Fore
SplineSet
-1 -3 m 1
 3 32 l 1
 52 35 l 2
 85 37 91 47 106 132 c 2
 178 541 l 2
 184 577 187 598 187 613 c 0
 187 632 175 641 149 643 c 2
 97 646 l 1
 101 681 l 1
 101 681 194 678 253 678 c 0
 315 678 412 681 412 681 c 1
 408 646 l 1
 363 643 l 2
 330 641 323 636 317 599 c 2
 230 100 l 2
 228 89 227 77 227 66 c 0
 227 44 237 36 264 35 c 2
 323 32 l 1
 319 -3 l 1
 308 -3 l 2
 262 -1 214 -23 183 -63 c 0
 167 -84 156 -107 151 -132 c 0
 146 -159 166 -165 188 -165 c 0
 199 -165 230 -153 254 -136 c 2
 276 -120 l 1
 283 -150 l 1
 215 -224 168 -250 126 -250 c 0
 84 -250 60 -216 72 -149 c 0
 83 -90 144 -38 203 0 c 1
 156 0 l 1
 -1 -3 l 1
EndSplineSet
Validated: 33
AlternateSubs2: "'aalt' Access All Alternates lookup 0 subtable" iogonek.sc
AlternateSubs2: "'aalt' Access All Alternates in Latin lookup 0 subtable" iogonek.sc
Ligature2: "ccmp_lig subtable" I ogonekcomb
Substitution2: "'c2sc' Capitals to Small Capitals in Latin lookup 13 subtable" iogonek.sc
Position2: "'cpsp' Capital Spacing in Latin lookup 12 subtable" dx=7 dy=0 dh=14 dv=0
EndChar

StartChar: germandbls
Encoding: 223 223 136
Width: 556
VWidth: 0
Flags: W
TeX: 726 0
HStem: -271 77<-105.552 -17> -13 54<289.646 393.501> 667 59<350.033 435.802>
VStem: 255 25<96.4667 124> 325 90<307.5 394.5> 429 90<89.5 200> 457 92<539.047 644.507>
LayerCount: 2
Fore
SplineSet
-131 -262 m 1xfa
 -117 -223 -109 -196 -100 -154 c 1
 -85 -154 l 1
 -65 -184 -51 -194 -30 -194 c 0
 -4 -194 14 -167 26 -106 c 2
 128 404 l 1
 36 404 l 1
 40 430 l 1
 140 463 l 1
 156 552 168 572 234 624 c 0
 336 705 377 726 432 726 c 0
 503 726 549 685 549 621 c 0xfa
 549 586 536 548 514 518 c 0
 501 501 499 499 462 461 c 0
 428 427 415 405 415 384 c 0
 415 364 435 328 468 290 c 0
 506 246 519 218 519 182 c 0
 519 148 504 114 471 76 c 0
 417 13 371 -13 311 -13 c 0
 275 -13 255 0 225 6 c 1
 255 124 l 1
 280 124 l 1
 280 72 l 1
 298 52 323 41 353 41 c 0
 398 41 429 69 429 110 c 0xfc
 429 136 415 165 378 215 c 0
 337 270 325 294 325 321 c 0
 325 347 335 366 377 417 c 0
 408 454 423 474 430 487 c 0
 446 515 457 559 457 592 c 0
 457 637 425 667 377 667 c 0
 324 667 293 631 274 549 c 2
 197 210 l 2
 182 144 145 12 126 -45 c 0
 104 -109 61 -176 14 -216 c 0
 -25 -250 -67 -271 -96 -271 c 0
 -105 -271 -120 -267 -131 -262 c 1xfa
EndSplineSet
Validated: 1
AlternateSubs2: "'aalt' Access All Alternates lookup 0 subtable" germandbls.sc
AlternateSubs2: "'aalt' Access All Alternates in Latin lookup 0 subtable" germandbls.sc
Substitution2: "'smcp' Lowercase to Small Capitals in Latin lookup 2 subtable" germandbls.sc
EndChar

StartChar: ccedilla
Encoding: 231 231 137
Width: 444
VWidth: 0
GlyphClass: 3
Flags: W
TeX: 452 -250
HStem: -218 41<85.8029 204.962> -17 67<120 241.449> 407 62<238.618 352.136>
VStem: 32 114<75.0016 259.145> 212 92<-170.218 -104.738> 368 33<304 360>
AnchorPoint: "bot_acc" 190 -358 basechar 0
AnchorPoint: "dotbelow" 190 -358 basechar 0
AnchorPoint: "ogon_acc" 190 -358 basechar 0
AnchorPoint: "top_accl" 302 609 basechar 0
AnchorPoint: "dotabove" 302 609 basechar 0
LayerCount: 2
Fore
SplineSet
32 119 m 0
 32 191 55 285 84 331 c 0
 102 358 136 387 185 417 c 0
 252 458 281 469 322 469 c 0
 358 469 382 464 436 445 c 1
 422 408 417 388 401 304 c 1
 368 304 l 1
 374 360 l 1
 370 374 l 1
 338 397 309 407 278 407 c 0
 237 407 205 383 185 337 c 0
 164 289 146 198 146 140 c 0
 146 85 177 50 225 50 c 0
 273 50 312 67 391 120 c 1
 401 90 l 1
 319 33 275 8 226 -7 c 1
 188 -62 l 1
 198 -60 205 -59 214 -59 c 0
 267 -59 304 -88 304 -131 c 0
 304 -182 253 -218 181 -218 c 0
 142 -218 113 -212 68 -193 c 1
 90 -160 l 1
 119 -173 135 -177 157 -177 c 0
 191 -177 212 -162 212 -137 c 0
 212 -113 195 -100 164 -100 c 0
 154 -100 147 -101 135 -104 c 1
 122 -92 l 1
 175 -16 l 1
 168 -17 164 -17 159 -17 c 0
 81 -17 32 36 32 119 c 0
EndSplineSet
Validated: 1
AlternateSubs2: "'aalt' Access All Alternates lookup 0 subtable" ccedilla.sc
AlternateSubs2: "'aalt' Access All Alternates in Latin lookup 0 subtable" ccedilla.sc
Ligature2: "ccmp_lig subtable" c cedillacmb
Substitution2: "'smcp' Lowercase to Small Capitals in Latin lookup 2 subtable" ccedilla.sc
EndChar

StartChar: eogonek
Encoding: 234 281 138
Width: 444
VWidth: 0
GlyphClass: 3
Flags: W
TeX: 452 -250
HStem: -250 85<118 205.795> -17 64<111.5 240.883> 421 48<234.6 353.5>
VStem: 28 114<66.3563 213.156> 324 94<310.621 414.046>
AnchorPoint: "bot_acc" 148 -390 basechar 0
AnchorPoint: "dotbelow" 148 -390 basechar 0
AnchorPoint: "ogon_acc" 148 -390 basechar 0
AnchorPoint: "top_accl" 296 609 basechar 0
AnchorPoint: "dotabove" 296 609 basechar 0
LayerCount: 2
Fore
SplineSet
28 98 m 0
 28 169 55 272 88 331 c 0
 127 400 246 469 325 469 c 0
 382 469 418 435 418 382 c 0
 418 323 383 277 311 243 c 0
 269 223 233 212 147 193 c 1
 143 164 142 149 142 129 c 0
 142 77 168 47 215 47 c 0
 256 47 302 66 377 114 c 1
 387 86 l 1
 375 78 370 76 358 68 c 0
 305 33 244 -8 208 -48 c 0
 186 -72 169 -101 164 -132 c 0
 159 -159 179 -165 201 -165 c 0
 212 -165 242 -153 266 -136 c 2
 289 -120 l 1
 295 -150 l 1
 227 -224 181 -250 139 -250 c 0
 97 -250 73 -216 85 -149 c 0
 94 -95 145 -48 198 -12 c 1
 182 -15 166 -17 149 -17 c 0
 74 -17 28 27 28 98 c 0
151 219 m 1
 192 231 l 2
 274 255 324 307 324 368 c 0
 324 401 306 421 276 421 c 0
 227 421 187 370 165 277 c 2
 151 219 l 1
EndSplineSet
Validated: 33
AlternateSubs2: "'aalt' Access All Alternates lookup 0 subtable" eogonek.sc
AlternateSubs2: "'aalt' Access All Alternates in Latin lookup 0 subtable" eogonek.sc
Ligature2: "ccmp_lig subtable" e ogonekcomb
Substitution2: "'smcp' Lowercase to Small Capitals in Latin lookup 2 subtable" eogonek.sc
EndChar

StartChar: eth
Encoding: 240 240 139
Width: 556
VWidth: 0
Flags: W
TeX: 726 0
HStem: -17 44<189.485 299.916> 425 44<250.498 360.486> 706 20G<259.333 298>
VStem: 48 114<56.364 262.629> 388 114<185.502 432.162>
LayerCount: 2
Fore
SplineSet
48 135 m 0
 48 214 79 312 117 356 c 0
 178 425 267 469 349 469 c 0
 366 469 375 467 392 460 c 1
 387 505 377 533 353 570 c 1
 215 501 l 1
 196 536 l 1
 327 601 l 1
 299 634 277 653 236 678 c 1
 276 726 l 1
 320 704 354 677 392 633 c 1
 528 700 l 1
 546 665 l 1
 417 601 l 1
 477 507 502 425 502 319 c 0
 502 199 459 103 380 44 c 0
 327 5 262 -17 199 -17 c 0
 98 -17 48 33 48 135 c 0
162 130 m 0
 162 67 193 27 243 27 c 0
 275 27 303 44 327 78 c 0
 362 128 388 233 388 323 c 0
 388 385 356 425 308 425 c 0
 275 425 247 408 223 374 c 0
 188 324 162 220 162 130 c 0
EndSplineSet
Validated: 1
AlternateSubs2: "'aalt' Access All Alternates lookup 0 subtable" eth.sc
AlternateSubs2: "'aalt' Access All Alternates in Latin lookup 0 subtable" eth.sc
Substitution2: "'smcp' Lowercase to Small Capitals in Latin lookup 2 subtable" eth.sc
EndChar

StartChar: oslash
Encoding: 248 248 140
Width: 556
VWidth: 0
GlyphClass: 2
Flags: W
TeX: 452 0
HStem: -17 44<192.935 299.955> 425 44<248.511 358.428>
VStem: 388 114<186.387 332>
AnchorPoint: "bot_acc" 199 -207 basechar 0
AnchorPoint: "dotbelow" 199 -207 basechar 0
AnchorPoint: "ogon_acc" 199 -207 basechar 0
AnchorPoint: "top_accl" 343 609 basechar 0
AnchorPoint: "dotabove" 343 609 basechar 0
LayerCount: 2
Fore
SplineSet
14 -28 m 1
 75 40 l 1
 56 72 48 101 48 141 c 0
 48 176 57 226 72 272 c 0
 93 337 127 379 190 419 c 0
 240 452 296 469 349 469 c 0
 385 469 408 463 442 447 c 1
 495 506 l 1
 522 481 l 1
 472 426 l 1
 492 394 502 355 502 314 c 0
 502 254 481 169 455 123 c 0
 436 90 391 49 345 23 c 0
 299 -4 251 -17 201 -17 c 0
 156 -17 122 -7 99 13 c 1
 42 -50 l 1
 14 -28 l 1
164 136 m 1
 377 375 l 1
 358 412 340 425 307 425 c 0
 225 425 176 326 164 136 c 1
168 90 m 1
 187 46 209 27 242 27 c 0
 277 27 306 46 330 82 c 0
 367 140 383 209 388 332 c 1
 168 90 l 1
EndSplineSet
Validated: 1
AlternateSubs2: "'aalt' Access All Alternates lookup 0 subtable" oslash.sc
AlternateSubs2: "'aalt' Access All Alternates in Latin lookup 0 subtable" oslash.sc
Substitution2: "'smcp' Lowercase to Small Capitals in Latin lookup 2 subtable" oslash.sc
EndChar

StartChar: dotlessiogonek
Encoding: 282 -1 141
Width: 333
VWidth: 0
GlyphClass: 3
Flags: W
TeX: 469 -224
HStem: -250 85<54 142.034> 449 20G<224.5 246.5>
VStem: 67 114<5.37012 142.273> 140 124<319.035 435.953>
AnchorPoint: "bot_acc" 84 -390 basechar 0
AnchorPoint: "dotbelow" 84 -390 basechar 0
AnchorPoint: "ogon_acc" 84 -390 basechar 0
AnchorPoint: "top_accl" 239 609 basechar 0
AnchorPoint: "dotabove" 239 609 basechar 0
LayerCount: 2
Fore
SplineSet
21 -149 m 0xe0
 30 -98 60 -50 102 -17 c 1
 99 -17 l 2
 80 -17 67 0 67 26 c 0xe0
 67 42 70 64 73 78 c 2
 132 319 l 2
 138 344 140 353 140 360 c 0
 140 366 136 370 130 370 c 0
 121 370 81 350 61 336 c 2
 39 320 l 1
 26 346 l 1
 89 393 l 2
 151 439 210 469 239 469 c 0
 254 469 264 454 264 432 c 0xd0
 264 413 260 384 255 365 c 2
 201 169 l 2
 188 123 181 89 181 76 c 0
 181 70 186 65 192 65 c 0
 203 65 219 73 254 95 c 2
 281 112 l 1
 293 84 l 1
 282 76 278 74 265 64 c 0
 219 29 154 -21 135 -49 c 0
 117 -74 105 -103 100 -132 c 0
 95 -159 115 -165 137 -165 c 0
 148 -165 178 -153 202 -136 c 2
 225 -120 l 1
 232 -150 l 1
 164 -224 117 -250 75 -250 c 0
 33 -250 9 -216 21 -149 c 0xe0
EndSplineSet
Validated: 33
Ligature2: "ccmp_lig subtable" dotlessi ogonekcomb
EndChar

StartChar: Scedilla
Encoding: 283 350 142
Width: 556
VWidth: 0
GlyphClass: 3
Flags: W
TeX: 681 -250
HStem: -218 41<119.803 238.962> -17 56<150.939 209> 639 56<264.547 424.2>
VStem: 71 27<133.667 189> 104 92<407 544.215> 246 92<-170.218 -104.738> 389 106<144.792 256.5> 465 30<504 599.348>
AnchorPoint: "bot_acc" 224 -358 basechar 0
AnchorPoint: "dotbelow" 224 -358 basechar 0
AnchorPoint: "ogon_acc" 224 -358 basechar 0
AnchorPoint: "top_accu" 383 821 basechar 0
AnchorPoint: "dotabove" 383 821 basechar 0
LayerCount: 2
Fore
SplineSet
50 23 m 1xfe
 71 189 l 1
 98 189 l 1
 98 113 l 1
 124 64 175 39 250 39 c 0
 340 39 389 83 389 162 c 0xfe
 389 192 380 218 364 232 c 0
 345 250 334 255 266 280 c 0
 141 325 104 364 104 450 c 0
 104 583 225 695 370 695 c 0
 424 695 474 680 517 651 c 1
 503 600 495 552 495 504 c 1
 465 504 l 1
 465 589 l 1xfd
 424 624 383 639 331 639 c 0
 252 639 196 592 196 526 c 0
 196 467 227 437 324 401 c 0
 407 370 428 359 457 333 c 0
 480 312 495 274 495 239 c 0
 495 161 451 82 381 32 c 0
 343 6 303 -9 255 -15 c 1
 222 -62 l 1
 232 -60 239 -59 248 -59 c 0
 301 -59 338 -88 338 -131 c 0
 338 -182 287 -218 215 -218 c 0
 176 -218 147 -212 102 -193 c 1
 124 -160 l 1
 153 -173 169 -177 191 -177 c 0
 225 -177 246 -162 246 -137 c 0
 246 -113 229 -100 198 -100 c 0
 188 -100 181 -101 169 -104 c 1
 156 -92 l 1
 209 -17 l 1
 139 -17 96 -6 50 23 c 1xfe
EndSplineSet
Validated: 1
AlternateSubs2: "'aalt' Access All Alternates lookup 0 subtable" scedilla.sc
AlternateSubs2: "'aalt' Access All Alternates in Latin lookup 0 subtable" scedilla.sc uni0218
Ligature2: "ccmp_lig subtable" S cedillacmb
Substitution2: "'c2sc' Capitals to Small Capitals in Latin lookup 13 subtable" scedilla.sc
Position2: "'cpsp' Capital Spacing in Latin lookup 12 subtable" dx=7 dy=0 dh=14 dv=0
Substitution2: "locl_ROM subtable" uni0218
EndChar

StartChar: Tcedilla
Encoding: 284 354 143
Width: 611
VWidth: 0
GlyphClass: 3
Flags: W
TeX: 681 -250
HStem: -218 41<140.803 259.962> -3 35<108 161 339.911 427> 630 48<125.563 304 436 607.281> 661 20G<667 674>
VStem: 56 38<508 537> 267 92<-170.218 -104.738> 606 38<508 547.2>
AnchorPoint: "bot_acc" 245 -358 basechar 0
AnchorPoint: "dotbelow" 245 -358 basechar 0
AnchorPoint: "ogon_acc" 245 -358 basechar 0
AnchorPoint: "top_accu" 403 821 basechar 0
AnchorPoint: "dotabove" 403 821 basechar 0
LayerCount: 2
Fore
SplineSet
56 508 m 1xee
 81 676 l 1
 87 681 l 1xde
 87 681 264 678 377 678 c 0xee
 490 678 667 681 667 681 c 1xde
 674 676 l 1
 644 508 l 1
 606 508 l 1
 610 592 l 2
 611 618 594 630 553 630 c 2
 436 630 l 1
 341 100 l 2
 338 83 337 75 337 65 c 0
 337 44 346 36 373 35 c 2
 432 32 l 1
 427 -3 l 1
 285 0 l 1
 243 -62 l 1
 253 -60 260 -59 269 -59 c 0
 322 -59 359 -88 359 -131 c 0
 359 -182 308 -218 236 -218 c 0
 197 -218 168 -212 123 -193 c 1
 145 -160 l 1
 174 -173 190 -177 212 -177 c 0
 246 -177 267 -162 267 -137 c 0
 267 -113 250 -100 219 -100 c 0
 209 -100 202 -101 190 -104 c 1
 177 -92 l 1
 241 0 l 1
 103 -3 l 1
 108 32 l 1
 161 35 l 2
 193 37 205 53 219 132 c 2
 304 630 l 1
 180 630 l 2
 160 630 136 620 123 606 c 0
 118 599 113 587 108 566 c 2
 94 508 l 1
 56 508 l 1xee
EndSplineSet
Validated: 33
AlternateSubs2: "'aalt' Access All Alternates lookup 0 subtable" tcedilla.sc
AlternateSubs2: "'aalt' Access All Alternates in Latin lookup 0 subtable" tcedilla.sc uni021A
Ligature2: "ccmp_lig subtable" T cedillacmb
Substitution2: "'c2sc' Capitals to Small Capitals in Latin lookup 13 subtable" tcedilla.sc
Position2: "'cpsp' Capital Spacing in Latin lookup 12 subtable" dx=7 dy=0 dh=14 dv=0
Substitution2: "locl_ROM subtable" uni021A
EndChar

StartChar: Thorn
Encoding: 285 222 144
Width: 667
VWidth: 0
Flags: W
TeX: 681 0
HStem: -3 21G<11 13.2857 331 333.286> 0 35<240.984 330.928> 143 41<304.893 434.305> 497 43<317 468.603> 661 20G<110.714 113 421.714 424>
VStem: 512 132<299.462 457.705>
LayerCount: 2
Fore
SplineSet
11 -3 m 1xbc
 15 32 l 1
 64 35 l 2
 97 37 103 47 118 132 c 2
 190 541 l 2
 196 575 199 599 199 613 c 0
 199 632 187 641 161 643 c 2
 109 646 l 1
 113 681 l 1
 113 681 206 678 265 678 c 0
 327 678 424 681 424 681 c 1
 420 646 l 1
 375 643 l 2
 342 641 337 636 329 599 c 2
 317 540 l 1
 431 543 l 2
 571 547 644 496 644 394 c 0
 644 264 525 143 397 143 c 0
 368 143 339 149 304 161 c 1
 302 196 l 1
 325 188 346 184 368 184 c 0
 407 184 437 198 463 230 c 0
 493 267 512 322 512 376 c 0
 512 463 470 500 371 500 c 0
 352 500 335 499 308 497 c 1
 242 100 l 2
 240 88 239 76 239 65 c 0
 239 45 249 36 276 35 c 2x7c
 335 32 l 1
 331 -3 l 1xbc
 331 -3 232 0 168 0 c 0x7c
 107 0 11 -3 11 -3 c 1xbc
EndSplineSet
Validated: 33
AlternateSubs2: "'aalt' Access All Alternates lookup 0 subtable" thorn.sc
AlternateSubs2: "'aalt' Access All Alternates in Latin lookup 0 subtable" thorn.sc
Substitution2: "'c2sc' Capitals to Small Capitals in Latin lookup 13 subtable" thorn.sc
Position2: "'cpsp' Capital Spacing in Latin lookup 12 subtable" dx=7 dy=0 dh=14 dv=0
EndChar

StartChar: cent
Encoding: 286 162 145
Width: 500
VWidth: 0
Flags: W
TeX: 547 -105
VStem: 52 115<73.6683 258.668> 391 29<305 330.028>
LayerCount: 2
Fore
SplineSet
52 129 m 0
 52 226 94 339 143 374 c 2
 221 430 l 2
 254 453 292 465 340 469 c 1
 369 547 l 1
 411 547 l 1
 381 465 l 1
 415 461 432 456 456 442 c 1
 420 303 l 1
 391 305 l 1
 391 367 l 2
 391 377 381 384 353 394 c 1
 222 50 l 1
 298 51 347 69 410 121 c 1
 421 90 l 1
 361 48 l 2
 307 10 262 -7 196 -17 c 1
 163 -105 l 1
 123 -105 l 1
 157 -15 l 1
 79 7 52 44 52 129 c 0
167 151 m 0
 167 119 173 99 190 71 c 1
 317 405 l 1
 265 404 246 397 227 373 c 0
 195 331 167 228 167 151 c 0
EndSplineSet
Validated: 1
AlternateSubs2: "'aalt' Access All Alternates lookup 0 subtable" cent.oldstyle
AlternateSubs2: "'aalt' Access All Alternates in Latin lookup 0 subtable" cent.oldstyle
Substitution2: "'onum' Oldstyle Figures in Latin lookup 3 subtable" cent.oldstyle
EndChar

StartChar: space_uni0326
Encoding: 287 -1 146
Width: 333
VWidth: 0
Flags: W
TeX: 0 -250
HStem: -271 201
VStem: 55 177
LayerCount: 2
Fore
SplineSet
55 -261 m 1
 97 -189 97 -179 111 -98 c 1
 147 -95 185 -81 220 -70 c 1
 232 -83 l 1
 177 -184 168 -190 114 -246 c 1
 69 -271 l 1
 55 -261 l 1
EndSplineSet
Validated: 1
EndChar

StartChar: florin
Encoding: 288 402 147
Width: 500
VWidth: 0
Flags: W
TeX: 690 -242
HStem: -242 65<25.6152 105.676> 368 40<110 206 331 433> 627 63<386.011 456.109>
LayerCount: 2
Fore
SplineSet
8 -239 m 1
 14 -214 17 -195 17 -159 c 1
 34 -150 l 1
 51 -170 65 -177 83 -177 c 0
 117 -177 141 -133 152 -46 c 2
 206 368 l 1
 97 368 l 1
 110 408 l 1
 216 408 l 1
 234 478 l 2
 259 574 376 690 448 690 c 0
 453 690 458 689 479 686 c 1
 471 604 l 1
 460 601 l 1
 446 618 427 627 405 627 c 0
 380 627 360 604 355 570 c 2
 331 408 l 1
 443 408 l 1
 433 368 l 1
 325 368 l 1
 294 105 263 -14 199 -117 c 0
 148 -201 94 -242 36 -242 c 0
 27 -242 20 -241 8 -239 c 1
EndSplineSet
Validated: 1
EndChar

StartChar: guilsinglleft
Encoding: 289 8249 148
Width: 333
VWidth: 0
Flags: W
TeX: 446 0
VStem: 60 232
LayerCount: 2
Fore
SplineSet
60 235 m 1
 60 256 l 1
 168 352 129 317 270 446 c 1
 292 426 l 1
 166 243 l 1
 253 57 l 1
 228 43 l 1
 60 235 l 1
EndSplineSet
Validated: 1
EndChar

StartChar: guilsinglright
Encoding: 290 8250 149
Width: 333
VWidth: 0
Flags: W
TeX: 443 0
VStem: 35 232
LayerCount: 2
Fore
SplineSet
35 60 m 1
 161 243 l 1
 74 429 l 1
 99 443 l 1
 267 251 l 1
 267 230 l 1
 159 134 198 169 57 40 c 1
 35 60 l 1
EndSplineSet
Validated: 1
EndChar

StartChar: onehalf
Encoding: 291 189 150
Width: 750
VWidth: 0
GlyphClass: 3
Flags: W
TeX: 683 0
HStem: 0 63<542 713.94 714 719.736> 350 60<534.048 633.368> 565 51<43 57.8298> 660 23G<226.5 255 570.145 652>
VStem: 646 87<233.432 337.282>
LayerCount: 2
Fore
SplineSet
14 271 m 1
 20 299 l 1
 47 301 l 2
 88 304 92 307 102 336 c 1
 154 612 l 1
 41 565 l 1
 32 578 l 1
 43 616 l 1
 173 654 l 2
 192 660 213 668 240 680 c 1
 255 675 l 1
 251 656 l 2
 250 653 249 647 247 637 c 2
 191 341 l 2
 189 331 188 323 188 323 c 1
 191 304 195 302 225 301 c 2
 271 299 l 1
 265 271 l 1
 265 271 189 273 140 273 c 0
 91 273 14 271 14 271 c 1
144 0 m 1
 583 683 l 1
 652 683 l 1
 213 0 l 1
 144 0 l 1
441 -2 m 1
 441 21 l 1
 526 102 l 2
 605 177 646 243 646 294 c 0
 646 326 620 350 585 350 c 0
 559 350 538 338 524 315 c 2
 506 285 l 1
 476 294 l 1
 516 379 l 1
 552 401 580 410 614 410 c 0
 685 410 733 369 733 307 c 0
 733 264 713 225 670 184 c 2
 542 63 l 1
 677 63 l 2
 695 63 709 64 730 68 c 1
 736 60 l 1
 727 45 721 29 714 -2 c 1
 714 -2 632 0 580 0 c 0
 526 0 441 -2 441 -2 c 1
EndSplineSet
Validated: 1
Ligature2: "'frac' Diagonal Fractions in Latin lookup 20 subtable" one fraction two
Ligature2: "'frac' Diagonal Fractions in Latin lookup 20 subtable" one slash two
EndChar

StartChar: onequarter
Encoding: 292 188 151
Width: 750
VWidth: 0
GlyphClass: 3
Flags: W
TeX: 683 0
HStem: 0 28<646.683 710.948> 104 49<471 575 662 720> 565 51<47 61.8298> 660 23G<230.5 259 590.145 672>
LayerCount: 2
Fore
SplineSet
18 271 m 1
 24 299 l 1
 51 301 l 2
 92 304 96 307 106 336 c 1
 158 612 l 1
 45 565 l 1
 36 578 l 1
 47 616 l 1
 177 654 l 2
 196 660 217 668 244 680 c 1
 259 675 l 1
 255 658 255 657 251 637 c 2
 195 341 l 2
 193 331 192 323 192 323 c 1
 196 304 199 302 229 301 c 2
 275 299 l 1
 269 271 l 1
 269 271 193 273 144 273 c 0
 95 273 18 271 18 271 c 1
164 0 m 1
 603 683 l 1
 672 683 l 1
 233 0 l 1
 164 0 l 1
416 104 m 1
 416 128 l 1
 622 391 l 1
 648 395 667 399 702 410 c 1
 712 404 l 1
 662 153 l 1
 730 153 l 1
 732 146 l 1
 720 104 l 1
 653 104 l 1
 646 64 l 2
 645 60 645 57 645 54 c 0
 645 37 652 29 667 28 c 2
 716 26 l 1
 711 -2 l 1
 711 -2 640 0 595 0 c 0
 550 0 479 -2 479 -2 c 1
 485 26 l 1
 522 28 l 2
 555 30 559 32 568 65 c 2
 575 104 l 1
 416 104 l 1
471 153 m 1
 585 153 l 1
 625 355 l 1
 471 153 l 1
EndSplineSet
Validated: 1
Ligature2: "'frac' Diagonal Fractions in Latin lookup 20 subtable" one fraction four
Ligature2: "'frac' Diagonal Fractions in Latin lookup 20 subtable" one slash four
EndChar

StartChar: one.superior
Encoding: 293 185 152
Width: 300
VWidth: 0
Flags: W
TeX: 683 0
HStem: 565 51<70 84.8298> 660 20G<253.5 282>
VStem: 41 257
LayerCount: 2
Fore
SplineSet
41 271 m 1
 47 299 l 1
 74 301 l 2
 115 304 119 307 129 336 c 1
 181 612 l 1
 68 565 l 1
 59 578 l 1
 70 616 l 1
 200 654 l 2
 219 660 240 668 267 680 c 1
 282 675 l 1
 278 656 276 648 274 637 c 2
 218 341 l 2
 216 331 215 323 215 323 c 1
 218 304 222 302 252 301 c 2
 298 299 l 1
 292 271 l 1
 292 271 216 273 167 273 c 0
 118 273 41 271 41 271 c 1
EndSplineSet
Validated: 1
EndChar

StartChar: ordfeminine
Encoding: 294 170 153
Width: 333
VWidth: 0
Flags: W
TeX: 681 0
HStem: 312 48<25 335> 391 50<90.0018 139.919 299 301.812> 449 20G<335 355> 652 31<181.193 262.344>
VStem: 47 73<417.208 550.772> 222 68<454 516.069>
LayerCount: 2
Fore
SplineSet
25 312 m 1
 25 360 l 1
 335 360 l 1
 335 312 l 1
 25 312 l 1
47 443 m 0
 47 495 76 589 100 613 c 0
 113 626 141 645 186 671 c 0
 201 679 217 683 239 683 c 0
 262 683 277 679 307 667 c 1
 336 684 l 1
 346 676 l 1
 337 651 l 2
 332 638 329 627 326 613 c 0
 290 461 296 486 295 482 c 0
 293 474 290 462 290 454 c 1
 299 441 l 1
 305 441 323 450 335 459 c 2
 348 469 l 1
 355 451 l 1
 307 411 270 391 242 391 c 0
 230 391 222 401 222 418 c 0
 222 427 224 444 226 451 c 2
 252 548 l 1
 191 445 133 391 80 391 c 0
 60 391 47 411 47 443 c 0
120 463 m 0
 120 451 125 441 131 441 c 0
 149 441 188 478 216 522 c 0
 242 562 255 594 263 639 c 1
 241 648 227 652 211 652 c 0
 185 652 170 639 155 604 c 0
 140 569 120 489 120 463 c 0
EndSplineSet
Validated: 33
EndChar

StartChar: ordmasculine
Encoding: 295 186 154
Width: 333
VWidth: 0
Flags: W
TeX: 681 0
HStem: 312 48<22 304> 391 26<143.289 214.494> 657 26<181.993 252.948>
VStem: 51 74<426.745 579.679> 272 74<493.124 646.71>
LayerCount: 2
Fore
SplineSet
22 312 m 1
 22 360 l 1
 304 360 l 1
 304 312 l 1
 22 312 l 1
51 482 m 0
 51 520 65 571 83 600 c 0
 110 644 187 683 247 683 c 0
 310 683 346 650 346 592 c 0
 346 564 339 531 327 499 c 0
 303 438 225 391 146 391 c 0
 83 391 51 422 51 482 c 0
125 480 m 0
 125 441 145 417 177 417 c 0
 206 417 230 436 247 472 c 0
 261 502 272 556 272 595 c 0
 272 632 251 657 220 657 c 0
 195 657 173 643 157 615 c 0
 139 585 125 525 125 480 c 0
EndSplineSet
Validated: 1
EndChar

StartChar: quotesinglbase
Encoding: 296 8218 155
Width: 250
VWidth: 0
Flags: W
TeX: 145 -144
HStem: -144 289
VStem: -3 223
LayerCount: 2
Fore
SplineSet
-3 -126 m 1
 42 -55 78 45 85 115 c 1
 207 145 l 1
 220 132 l 1
 168 36 l 2
 139 -18 81 -102 68 -110 c 2
 12 -144 l 1
 -3 -126 l 1
EndSplineSet
Validated: 1
EndChar

StartChar: scedilla
Encoding: 297 351 156
Width: 444
VWidth: 0
GlyphClass: 3
Flags: W
TeX: 452 -250
HStem: -218 41<69.8029 188.962> -17 55<120.86 158> 414 55<198.698 321.315>
VStem: 46 30<81.2578 141> 68 93<268.359 366.403> 196 92<-170.218 -104.738> 294 100<92.4433 186> 359 30<322 370>
AnchorPoint: "bot_acc" 174 -358 basechar 0
AnchorPoint: "dotbelow" 174 -358 basechar 0
AnchorPoint: "ogon_acc" 174 -358 basechar 0
AnchorPoint: "top_accl" 298 609 basechar 0
AnchorPoint: "dotabove" 298 609 basechar 0
LayerCount: 2
Fore
SplineSet
25 10 m 1xee
 38 73 42 100 46 141 c 1
 76 141 l 1
 76 94 l 1
 110 58 156 38 206 38 c 0
 260 38 294 66 294 110 c 0xf6
 294 146 272 168 226 177 c 2
 182 186 l 2
 106 202 68 239 68 298 c 0
 68 343 85 372 131 405 c 0
 198 453 236 469 284 469 c 0
 331 469 365 460 406 438 c 1
 400 405 l 2
 391 357 389 346 389 322 c 1
 359 322 l 1xed
 353 370 l 1
 314 402 283 414 243 414 c 0
 194 414 161 385 161 341 c 0
 161 306 180 291 237 278 c 2
 296 265 l 2
 357 252 394 212 394 160 c 0
 394 122 381 96 345 63 c 0
 300 21 254 -4 206 -13 c 1
 172 -62 l 1
 182 -60 189 -59 198 -59 c 0
 251 -59 288 -88 288 -131 c 0
 288 -182 237 -218 165 -218 c 0
 126 -218 97 -212 52 -193 c 1
 74 -160 l 1
 103 -173 119 -177 141 -177 c 0
 175 -177 196 -162 196 -137 c 0
 196 -113 179 -100 148 -100 c 0
 138 -100 131 -101 119 -104 c 1
 106 -92 l 1
 158 -17 l 1
 122 -17 90 -10 25 10 c 1xee
EndSplineSet
Validated: 1
AlternateSubs2: "'aalt' Access All Alternates lookup 0 subtable" scedilla.sc
AlternateSubs2: "'aalt' Access All Alternates in Latin lookup 0 subtable" scedilla.sc uni0219
Ligature2: "ccmp_lig subtable" s cedillacmb
Substitution2: "'smcp' Lowercase to Small Capitals in Latin lookup 2 subtable" scedilla.sc
Substitution2: "locl_ROM subtable" uni0219
EndChar

StartChar: sterling
Encoding: 298 163 157
Width: 500
VWidth: 0
Flags: W
TeX: 681 0
HStem: -5 59<27.8786 58.8475> -4 107<258.036 437.376> 42 70<103.179 244.318> 315 40<45 127 244 387> 627 56<326.541 431.524>
VStem: 444 23<535 555.559>
LayerCount: 2
Fore
SplineSet
21 54 m 1x9c
 107 97 115 115 127 315 c 1
 39 315 l 1
 45 355 l 1
 130 355 l 1
 146 491 171 551 229 601 c 0
 283 646 361 683 403 683 c 0
 433 683 463 675 501 658 c 1
 467 529 l 1
 444 535 l 1
 444 574 l 2
 444 606 415 627 373 627 c 0
 324 627 291 597 281 544 c 2
 244 355 l 1
 393 355 l 1
 387 315 l 1
 236 315 l 1
 204 195 185 157 129 99 c 1
 168 109 192 112 242 112 c 0x3c
 268 112 287 111 318 107 c 0
 337 105 363 103 382 103 c 0
 417 103 433 111 442 134 c 2
 465 192 l 1
 496 192 l 1
 449 18 l 2
 445 4 427 -4 400 -4 c 0x5c
 356 -4 356 -4 196 31 c 0
 169 37 136 42 126 42 c 0x3c
 111 42 94 33 71 13 c 0
 58 2 47 -5 41 -5 c 2
 30 -5 l 1
 23 17 21 32 21 54 c 1x9c
EndSplineSet
Validated: 1
EndChar

StartChar: tcedilla
Encoding: 299 355 158
Width: 389
VWidth: 0
GlyphClass: 3
Flags: W
TeX: 636 -250
HStem: -218 41<29.8029 148.962> 401 51<269 395.549> 401 27<49 74.1562>
VStem: 79 117<17.378 163.464> 156 92<-170.218 -104.738>
AnchorPoint: "bot_acc" 134 -358 basechar 0
AnchorPoint: "dotbelow" 134 -358 basechar 0
AnchorPoint: "ogon_acc" 134 -358 basechar 0
AnchorPoint: "top_accl" 279 793 basechar 0
AnchorPoint: "dotabove" 279 793 basechar 0
LayerCount: 2
Fore
SplineSet
12 -193 m 1xa8
 34 -160 l 1
 63 -173 79 -177 101 -177 c 0
 135 -177 156 -162 156 -137 c 0xa8
 156 -113 139 -100 108 -100 c 0
 98 -100 91 -101 79 -104 c 1
 66 -92 l 1
 120 -16 l 1
 93 -11 79 9 79 43 c 0
 79 60 79 63 89 108 c 2
 151 401 l 1
 42 401 l 1
 49 428 l 1xb0
 164 460 l 1
 178 538 180 556 180 582 c 2
 180 598 l 1
 202 601 218 605 237 612 c 2
 303 636 l 1
 313 624 l 1
 282 508 l 1
 269 452 l 1
 403 457 l 1
 409 452 l 1
 395 396 l 1
 363 400 343 401 303 401 c 2xd0
 256 401 l 1
 205 164 l 2
 199 135 196 113 196 92 c 0xb0
 196 71 202 64 220 64 c 0
 239 64 252 69 274 85 c 2
 330 125 l 1
 343 99 l 1
 266 42 l 2
 226 13 195 -5 166 -12 c 1
 132 -62 l 1
 142 -60 149 -59 158 -59 c 0
 211 -59 248 -88 248 -131 c 0
 248 -182 197 -218 125 -218 c 0
 86 -218 57 -212 12 -193 c 1xa8
EndSplineSet
Validated: 1
AlternateSubs2: "'aalt' Access All Alternates lookup 0 subtable" tcedilla.sc
AlternateSubs2: "'aalt' Access All Alternates in Latin lookup 0 subtable" tcedilla.sc uni021B
Ligature2: "ccmp_lig subtable" t cedillacmb
Substitution2: "'smcp' Lowercase to Small Capitals in Latin lookup 2 subtable" tcedilla.sc
Substitution2: "locl_ROM subtable" uni021B
EndChar

StartChar: thorn
Encoding: 300 254 159
Width: 556
VWidth: 0
Flags: W
TeX: 726 -271
HStem: -271 21G<-21 -4.5> -17 49<170.296 299.56> 391 78<355.5 477.5> 652 28<91 157.234> 706 20G<264.5 299>
VStem: 402 114<225.811 388.995>
LayerCount: 2
Fore
SplineSet
-21 -264 m 1
 13 -152 26 -103 36 -52 c 2
 160 596 l 2
 162 607 163 616 163 626 c 0
 163 644 152 652 129 652 c 2
 84 652 l 1
 91 680 l 1
 191 695 240 706 289 726 c 1
 299 717 l 1
 196 251 l 1
 262 352 307 401 363 437 c 0
 398 459 429 469 458 469 c 0
 497 469 516 437 516 370 c 0
 516 251 474 138 409 82 c 0
 371 50 318 13 291 0 c 0
 266 -11 238 -17 205 -17 c 0
 184 -17 170 -15 149 -10 c 1
 113 -152 105 -190 101 -250 c 1
 83 -252 64 -254 21 -264 c 0
 6 -267 2 -269 -11 -271 c 1
 -21 -264 l 1
161 59 m 1
 194 40 223 32 255 32 c 0
 287 32 316 52 335 86 c 0
 372 152 402 264 402 333 c 0
 402 371 392 391 374 391 c 0
 337 391 284 346 237 274 c 0
 203 222 191 191 175 121 c 2
 161 59 l 1
EndSplineSet
Validated: 1
AlternateSubs2: "'aalt' Access All Alternates lookup 0 subtable" thorn.sc
AlternateSubs2: "'aalt' Access All Alternates in Latin lookup 0 subtable" thorn.sc
Substitution2: "'smcp' Lowercase to Small Capitals in Latin lookup 2 subtable" thorn.sc
EndChar

StartChar: threequarters
Encoding: 301 190 160
Width: 750
VWidth: 0
GlyphClass: 3
Flags: W
TeX: 683 0
HStem: 0 28<646.683 710.948> 104 49<471 575 662 720> 263 30<81.9759 170.888> 462 44<103.541 127.535> 471 33<106.327 192.137> 631 52<114.111 215.381>
VStem: 213 91<337.897 458.545> 224 81<546.801 622.031>
LayerCount: 2
Fore
SplineSet
18 288 m 1xee
 37 384 l 1
 65 384 l 1
 65 384 65 381 64 377 c 0
 63 369 62 362 62 353 c 0
 62 317 88 293 127 293 c 0
 176 293 213 338 213 398 c 0
 213 447 192 471 151 471 c 0xee
 137 471 128 469 102 462 c 1
 93 469 l 1
 106 506 l 1xf6
 113 504 118 504 128 504 c 0
 155 504 171 507 186 516 c 0
 210 530 224 555 224 582 c 0
 224 612 202 631 166 631 c 0
 132 631 111 615 89 572 c 1
 61 586 l 1
 102 655 l 1
 131 675 158 683 197 683 c 0
 263 683 305 652 305 602 c 0xed
 305 557 272 523 200 497 c 1
 271 488 304 459 304 406 c 0
 304 326 225 263 124 263 c 0
 87 263 59 270 18 288 c 1xee
164 0 m 1
 603 683 l 1
 672 683 l 1
 233 0 l 1
 164 0 l 1
416 104 m 1
 416 128 l 1
 622 391 l 1
 648 395 667 399 702 410 c 1
 712 404 l 1
 662 153 l 1
 730 153 l 1
 732 146 l 1
 720 104 l 1
 653 104 l 1
 646 64 l 2
 645 60 645 57 645 54 c 0
 645 37 652 29 667 28 c 2
 716 26 l 1
 711 -2 l 1
 711 -2 640 0 595 0 c 0
 550 0 479 -2 479 -2 c 1
 485 26 l 1
 522 28 l 2
 555 30 559 32 568 65 c 2
 575 104 l 1
 416 104 l 1
471 153 m 1
 585 153 l 1
 625 355 l 1
 471 153 l 1
EndSplineSet
Validated: 1
Ligature2: "'frac' Diagonal Fractions in Latin lookup 20 subtable" three fraction four
Ligature2: "'frac' Diagonal Fractions in Latin lookup 20 subtable" three slash four
EndChar

StartChar: three.superior
Encoding: 302 179 161
Width: 300
VWidth: 0
Flags: W
TeX: 683 0
HStem: 263 30<86.9759 175.888> 462 44<108.541 132.535> 471 33<111.327 197.137> 631 52<119.111 220.381>
VStem: 218 91<337.897 458.545> 229 81<546.801 622.031>
LayerCount: 2
Fore
SplineSet
23 288 m 1xb8
 42 384 l 1
 70 384 l 1
 70 384 70 381 69 377 c 0
 68 369 67 362 67 353 c 0
 67 317 93 293 132 293 c 0
 181 293 218 338 218 398 c 0
 218 447 197 471 156 471 c 0xb8
 142 471 133 469 107 462 c 1
 98 469 l 1
 111 506 l 1xd8
 118 504 123 504 133 504 c 0
 160 504 176 507 191 516 c 0
 215 530 229 555 229 582 c 0
 229 612 207 631 171 631 c 0
 137 631 116 615 94 572 c 1
 66 586 l 1
 107 655 l 1
 136 675 163 683 202 683 c 0
 268 683 310 652 310 602 c 0xb4
 310 557 277 523 205 497 c 1
 276 488 309 459 309 406 c 0
 309 326 230 263 129 263 c 0
 92 263 64 270 23 288 c 1xb8
EndSplineSet
Validated: 1
EndChar

StartChar: two.superior
Encoding: 303 178 162
Width: 300
VWidth: 0
Flags: W
TeX: 683 0
HStem: 273 63<127 298.939 299 304.736> 623 60<119.048 218.368>
VStem: 231 87<506.432 610.282>
LayerCount: 2
Fore
SplineSet
26 271 m 1
 26 294 l 1
 111 375 l 2
 190 450 231 516 231 567 c 0
 231 599 205 623 170 623 c 0
 144 623 123 611 109 588 c 2
 91 558 l 1
 61 567 l 1
 101 652 l 1
 137 674 165 683 199 683 c 0
 270 683 318 642 318 580 c 0
 318 537 298 498 255 457 c 2
 127 336 l 1
 262 336 l 2
 280 336 294 337 315 341 c 1
 321 333 l 1
 312 318 306 302 299 271 c 1
 299 271 215 273 162 273 c 0
 109 273 26 271 26 271 c 1
EndSplineSet
Validated: 1
EndChar

StartChar: yen
Encoding: 304 165 163
Width: 500
VWidth: 0
Flags: W
TeX: 681 0
HStem: -3 21G<82 83.7143 354 355.714> 0 35<277.825 353.939> 195 40<76 184 300 412> 310 40<88 171 344 424> 593 88<490.502 533> 597 98<44.5 127>
LayerCount: 2
Fore
SplineSet
11 620 m 1x74
 32 637 49 652 87 690 c 1
 99 694 105 695 110 695 c 0x74
 144 695 175 673 197 633 c 0
 216 598 239 524 249 466 c 2
 279 296 l 1
 357 520 467 684 538 681 c 1
 533 593 l 1
 471 581 397 485 344 350 c 1
 431 350 l 1
 424 310 l 1
 325 310 l 1
 300 235 l 1
 419 235 l 1
 412 195 l 1
 293 195 l 1
 278 100 l 2
 277 95 276 74 276 67 c 0
 276 45 284 36 307 35 c 2x78
 357 32 l 1
 354 -3 l 1xb0
 354 -3 270 0 217 0 c 0x70
 164 0 82 -3 82 -3 c 1xb0
 85 32 l 1
 127 35 l 2
 155 37 160 44 174 132 c 2
 184 195 l 1
 68 195 l 1
 76 235 l 1
 191 235 l 1
 190 258 189 266 182 310 c 1
 80 310 l 1
 88 350 l 1
 171 350 l 1
 144 456 l 2
 123 539 85 597 52 597 c 0
 37 597 22 593 13 587 c 1
 11 620 l 1x74
EndSplineSet
Validated: 33
EndChar

StartChar: Oogonek
Encoding: 305 490 164
Width: 833
VWidth: 0
GlyphClass: 3
Flags: W
TeX: 681 -250
HStem: -250 85<276 364.034> -17 43<302.291 349> 652 43<382.183 570.69>
VStem: 76 138<142.692 408.604> 656 138<274.624 535.138>
AnchorPoint: "bot_acc" 306 -390 basechar 0
AnchorPoint: "dotbelow" 306 -390 basechar 0
AnchorPoint: "ogon_acc" 306 -390 basechar 0
AnchorPoint: "top_accu" 519 821 basechar 0
AnchorPoint: "dotabove" 519 821 basechar 0
LayerCount: 2
Fore
SplineSet
76 268 m 0
 76 518 249 695 493 695 c 0
 588 695 667 666 721 612 c 0
 770 563 794 499 794 414 c 0
 794 219 675 60 503 4 c 0
 456 -11 377 -36 367 -48 c 0
 344 -72 327 -101 322 -132 c 0
 317 -159 337 -165 359 -165 c 0
 370 -165 400 -153 424 -136 c 2
 447 -120 l 1
 454 -150 l 1
 386 -224 339 -250 297 -250 c 0
 255 -250 231 -216 243 -149 c 0
 252 -98 299 -52 349 -17 c 1
 176 -11 76 92 76 268 c 0
214 239 m 0
 214 99 274 26 388 26 c 0
 473 26 541 69 589 153 c 0
 631 226 656 332 656 435 c 0
 656 579 596 652 480 652 c 0
 394 652 332 616 285 537 c 0
 243 467 214 346 214 239 c 0
EndSplineSet
Validated: 33
AlternateSubs2: "'aalt' Access All Alternates lookup 0 subtable" oogonek.sc
AlternateSubs2: "'aalt' Access All Alternates in Latin lookup 0 subtable" oogonek.sc
Ligature2: "ccmp_lig subtable" O ogonekcomb
Substitution2: "'c2sc' Capitals to Small Capitals in Latin lookup 13 subtable" oogonek.sc
Position2: "'cpsp' Capital Spacing in Latin lookup 12 subtable" dx=7 dy=0 dh=14 dv=0
EndChar

StartChar: oogonek
Encoding: 306 491 165
Width: 556
VWidth: 0
GlyphClass: 3
Flags: W
TeX: 452 -250
HStem: -250 85<118 206.034> 425 44<250.28 359.677>
VStem: 48 114<55.5778 264.015> 388 114<185.45 395.725>
AnchorPoint: "bot_acc" 148 -390 basechar 0
AnchorPoint: "dotbelow" 148 -390 basechar 0
AnchorPoint: "ogon_acc" 148 -390 basechar 0
AnchorPoint: "top_accl" 343 609 basechar 0
AnchorPoint: "dotabove" 343 609 basechar 0
LayerCount: 2
Fore
SplineSet
48 135 m 0
 48 176 56 223 72 272 c 0
 93 337 127 380 189 419 c 0
 241 452 297 469 350 469 c 0
 446 469 502 414 502 319 c 0
 502 256 483 174 456 126 c 0
 434 86 377 36 321 10 c 0
 282 -8 217 -38 209 -48 c 0
 186 -72 169 -101 164 -132 c 0
 159 -159 179 -165 201 -165 c 0
 212 -165 242 -153 266 -136 c 2
 289 -120 l 1
 296 -150 l 1
 228 -224 181 -250 139 -250 c 0
 97 -250 73 -216 85 -149 c 0
 94 -98 141 -53 191 -17 c 1
 96 -15 48 36 48 135 c 0
162 130 m 0
 162 67 193 27 243 27 c 0
 275 27 303 44 327 78 c 0
 362 128 388 233 388 323 c 0
 388 385 356 425 308 425 c 0
 275 425 247 408 223 374 c 0
 188 324 162 220 162 130 c 0
EndSplineSet
Validated: 33
AlternateSubs2: "'aalt' Access All Alternates lookup 0 subtable" oogonek.sc
AlternateSubs2: "'aalt' Access All Alternates in Latin lookup 0 subtable" oogonek.sc
Ligature2: "ccmp_lig subtable" o ogonekcomb
Substitution2: "'smcp' Lowercase to Small Capitals in Latin lookup 2 subtable" oogonek.sc
EndChar

StartChar: Ohorn
Encoding: 307 416 166
Width: 833
VWidth: 0
GlyphClass: 2
Flags: W
TeX: 681 0
HStem: -17 43<298.585 478.609> 652 43<383.182 572.889>
VStem: 76 138<141.151 403.506> 657 138<280.916 535.138>
AnchorPoint: "bot_acc" 342 -157 basechar 0
AnchorPoint: "dotbelow" 342 -157 basechar 0
AnchorPoint: "ogon_acc" 342 -157 basechar 0
AnchorPoint: "top_accu" 515 821 basechar 0
AnchorPoint: "dotabove" 515 821 basechar 0
LayerCount: 2
Fore
SplineSet
76 268 m 0
 77 518 250 695 494 695 c 0
 568 695 631 677 682 644 c 1
 713 667 730 699 738 750 c 1
 784 758 805 763 841 770 c 1
 852 761 l 1
 835 725 787 658 722 612 c 1
 771 563 795 499 795 414 c 0
 794 170 608 -17 365 -17 c 0
 182 -17 76 87 76 268 c 0
214 239 m 0
 214 99 274 26 388 26 c 0
 473 26 541 69 589 153 c 0
 631 226 657 332 657 435 c 0
 657 579 597 652 481 652 c 0
 395 652 333 616 286 537 c 0
 244 467 215 346 214 239 c 0
EndSplineSet
Validated: 1
AlternateSubs2: "'aalt' Access All Alternates lookup 0 subtable" ohorn.sc
AlternateSubs2: "'aalt' Access All Alternates in Latin lookup 0 subtable" ohorn.sc
Substitution2: "'c2sc' Capitals to Small Capitals in Latin lookup 13 subtable" ohorn.sc
Position2: "'cpsp' Capital Spacing in Latin lookup 12 subtable" dx=7 dy=0 dh=14 dv=0
EndChar

StartChar: Uhorn
Encoding: 308 431 167
Width: 831
VWidth: 0
GlyphClass: 2
Flags: W
TeX: 681 0
HStem: -17 80<261.799 366.73> -3 38<632.288 721> 646 35<89 169.13 515 595.13>
VStem: 94 130<99.856 303.102>
AnchorPoint: "bot_acc" 314 -157 basechar 0
AnchorPoint: "dotbelow" 314 -157 basechar 0
AnchorPoint: "ogon_acc" 635 -157 basechar 0
AnchorPoint: "top_accu" 487 821 basechar 0
AnchorPoint: "dotabove" 487 821 basechar 0
LayerCount: 2
Fore
SplineSet
84 646 m 1xb0
 89 681 l 1
 143 680 l 1
 221 678 l 2
 247 678 261 678 308 681 c 1
 314 674 l 1
 227 214 l 2
 225 203 224 192 224 178 c 0
 224 150 229 124 238 110 c 0
 255 81 290 63 327 63 c 0xb0
 356 63 385 72 421 93 c 0
 469 121 518 164 521 182 c 2
 587 541 l 1
 587 541 588 546 589 550 c 0
 590 561 592 568 592 571 c 0
 596 590 598 606 598 617 c 0
 598 633 586 642 561 643 c 2
 510 646 l 1
 515 681 l 1
 667 678 l 1
 737 679 l 1
 729 636 l 1
 768 659 789 692 798 750 c 1
 844 758 865 763 901 770 c 1
 912 761 l 1
 889 714 816 615 719 578 c 1
 635 100 l 2
 632 85 631 74 631 65 c 0
 631 44 641 36 667 35 c 2
 726 32 l 1
 721 -3 l 1
 619 0 619 0 603 0 c 0
 585 0 585 0 497 -3 c 1x70
 492 5 l 1
 519 133 l 1
 461 72 438 50 403 26 c 0
 364 -2 317 -17 271 -17 c 0
 209 -17 155 8 124 51 c 0
 104 77 94 112 94 156 c 0
 94 180 97 206 102 234 c 2
 161 541 l 1
 162 548 l 2
 163 550 163 552 163 555 c 0
 169 582 172 605 172 617 c 0
 172 633 160 642 135 643 c 2
 84 646 l 1xb0
EndSplineSet
Validated: 1
AlternateSubs2: "'aalt' Access All Alternates lookup 0 subtable" uhorn.sc
AlternateSubs2: "'aalt' Access All Alternates in Latin lookup 0 subtable" uhorn.sc
Substitution2: "'c2sc' Capitals to Small Capitals in Latin lookup 13 subtable" uhorn.sc
Position2: "'cpsp' Capital Spacing in Latin lookup 12 subtable" dx=7 dy=0 dh=14 dv=0
EndChar

StartChar: ohorn
Encoding: 309 417 168
Width: 593
VWidth: 0
GlyphClass: 2
Flags: W
TeX: 452 0
HStem: -17 44<190.366 300.628> 425 44<251.28 361.322>
VStem: 48 114<54.9332 264.015> 389 114<189.04 382.152>
AnchorPoint: "bot_acc" 205 -157 basechar 0
AnchorPoint: "dotbelow" 205 -157 basechar 0
AnchorPoint: "ogon_acc" 205 -157 basechar 0
AnchorPoint: "top_accl" 340 609 basechar 0
AnchorPoint: "dotabove" 340 609 basechar 0
LayerCount: 2
Fore
SplineSet
48 135 m 0
 48 176 56 223 72 272 c 0
 94 337 128 380 190 419 c 0
 242 452 298 469 351 469 c 0
 406 469 449 451 474 417 c 1
 504 439 521 471 528 521 c 1
 574 529 595 534 631 541 c 1
 642 532 l 1
 623 493 569 418 496 373 c 1
 500 357 503 339 503 319 c 0
 502 256 483 174 456 126 c 0
 434 86 377 37 321 10 c 0
 281 -8 242 -17 196 -17 c 0
 98 -17 48 34 48 135 c 0
162 130 m 0
 162 67 193 27 243 27 c 0
 275 27 303 44 327 78 c 0
 362 128 388 233 389 323 c 0
 389 385 357 425 309 425 c 0
 276 425 248 408 224 374 c 0
 189 324 162 220 162 130 c 0
EndSplineSet
Validated: 1
AlternateSubs2: "'aalt' Access All Alternates lookup 0 subtable" ohorn.sc
AlternateSubs2: "'aalt' Access All Alternates in Latin lookup 0 subtable" ohorn.sc
Substitution2: "'smcp' Lowercase to Small Capitals in Latin lookup 2 subtable" ohorn.sc
EndChar

StartChar: uhorn
Encoding: 310 432 169
Width: 598
VWidth: 0
GlyphClass: 2
Flags: W
TeX: 452 0
VStem: 53 117<18.0254 129.818> 312 108<15.0201 127.549>
AnchorPoint: "bot_acc" 208 -157 basechar 0
AnchorPoint: "dotbelow" 208 -157 basechar 0
AnchorPoint: "ogon_acc" 208 -157 basechar 0
AnchorPoint: "top_accl" 343 609 basechar 0
AnchorPoint: "dotabove" 343 609 basechar 0
LayerCount: 2
Fore
SplineSet
23 365 m 1
 102 419 l 2
 147 450 192 469 218 469 c 0
 235 469 245 456 245 434 c 0
 245 405 241 386 216 287 c 2
 180 150 l 2
 174 125 170 101 170 84 c 0
 170 77 177 71 186 71 c 0
 215 71 269 125 317 202 c 0
 366 280 396 372 398 447 c 1
 431 446 465 452 508 465 c 1
 517 454 l 1
 504 411 l 1
 539 434 558 467 566 521 c 1
 612 529 633 534 669 541 c 1
 680 532 l 1
 657 485 582 385 485 348 c 1
 475 313 l 1
 438 171 l 2
 436 165 435 158 435 158 c 2
 425 125 420 99 420 86 c 0
 420 79 426 74 434 74 c 0
 448 74 469 84 489 99 c 2
 511 116 l 1
 521 88 l 1
 508 79 492 66 486 62 c 0
 427 17 367 -17 346 -17 c 0
 326 -17 312 1 312 26 c 0
 312 42 317 68 328 107 c 2
 360 224 l 1
 261 68 168 -17 97 -17 c 0
 71 -17 53 6 53 40 c 0
 53 57 57 78 66 114 c 2
 71 130 l 1
 72 136 l 1
 87 193 l 2
 111 282 122 333 122 354 c 0
 122 364 116 370 105 370 c 0
 95 370 83 366 72 360 c 2
 36 339 l 1
 23 365 l 1
EndSplineSet
Validated: 33
AlternateSubs2: "'aalt' Access All Alternates lookup 0 subtable" uhorn.sc
AlternateSubs2: "'aalt' Access All Alternates in Latin lookup 0 subtable" uhorn.sc
Substitution2: "'smcp' Lowercase to Small Capitals in Latin lookup 2 subtable" uhorn.sc
EndChar

StartChar: zero.taboldstyle
Encoding: 311 -1 170
Width: 500
VWidth: 0
Flags: W
TeX: 478 -17
HStem: -17 37<170.115 263.336> 441 37<234.647 323.237>
VStem: 26 114<87.0621 301.042> 350 114<147.087 400.651>
LayerCount: 2
Fore
SplineSet
26 198 m 0
 26 417 183 478 278 478 c 0
 403 478 464 435 464 272 c 0
 464 99 369 -17 214 -17 c 0
 118 -17 26 43 26 198 c 0
140 104 m 0
 140 64 176 20 206 20 c 0
 243 20 277 33 308 96 c 0
 346 173 350 251 350 348 c 0
 350 405 321 441 282 441 c 0
 242 441 204 404 171 329 c 0
 161 306 140 250 140 104 c 0
EndSplineSet
Validated: 1
AlternateSubs2: "'aalt' Access All Alternates lookup 0 subtable" zero.oldstyle zero
AlternateSubs2: "'aalt' Access All Alternates in Latin lookup 0 subtable" zero.oldstyle zero
Substitution2: "'pnum' Proportional Numbers in Latin lookup 5 subtable" zero.oldstyle
Substitution2: "'lnum' Lining Figures in Latin lookup 4 subtable" zero
EndChar

StartChar: one.taboldstyle
Encoding: 312 -1 171
Width: 500
VWidth: 0
Flags: W
TeX: 488 -3
HStem: -3 21G<41 44.0303 428 431.636> 0 33<304.618 427.914>
LayerCount: 2
Fore
SplineSet
41 -3 m 1x80
 46 30 l 1
 100 33 l 2
 165 37 169 40 178 92 c 2
 231 388 l 1
 68 310 l 1
 59 319 l 1
 75 382 l 1
 75 382 177 413 251 442 c 0
 292 458 300 460 354 488 c 1
 371 479 l 1
 366 458 362 440 358 416 c 2
 304 100 l 2
 301 85 300 75 300 71 c 0
 300 43 312 35 357 33 c 2x40
 434 30 l 1
 428 -3 l 1x80
 428 -3 310 0 234 0 c 0x40
 159 0 41 -3 41 -3 c 1x80
EndSplineSet
Validated: 1
AlternateSubs2: "'aalt' Access All Alternates lookup 0 subtable" one.oldstyle one
AlternateSubs2: "'aalt' Access All Alternates in Latin lookup 0 subtable" one.oldstyle one
Substitution2: "'pnum' Proportional Numbers in Latin lookup 5 subtable" one.oldstyle
Substitution2: "'lnum' Lining Figures in Latin lookup 4 subtable" one
EndChar

StartChar: two.taboldstyle
Encoding: 313 -1 172
Width: 500
VWidth: 0
Flags: W
TeX: 477 -3
HStem: -3 21G<1 1> 0 93<128 420.913 421 426.785> 387 90<137.63 280.88>
VStem: 298 122<280.875 368.532>
LayerCount: 2
Fore
SplineSet
1 -3 m 1xb0
 1 22 l 1
 34 90 l 1
 193 178 298 265 298 315 c 0
 298 377 256 387 191 387 c 0
 159 387 123 373 107 345 c 2
 93 321 l 1
 63 330 l 1
 90 426 l 1
 141 463 182 477 236 477 c 0
 347 477 420 439 420 337 c 0
 420 262 288 167 128 93 c 1
 364 93 l 2x70
 392 93 413 100 446 106 c 1
 454 100 l 1
 441 75 436 58 421 -3 c 1xb0
 421 -3 302 0 226 0 c 0x70
 138 0 1 -3 1 -3 c 1xb0
EndSplineSet
Validated: 1
AlternateSubs2: "'aalt' Access All Alternates lookup 0 subtable" two.oldstyle two
AlternateSubs2: "'aalt' Access All Alternates in Latin lookup 0 subtable" two.oldstyle two
Substitution2: "'pnum' Proportional Numbers in Latin lookup 5 subtable" two.oldstyle
Substitution2: "'lnum' Lining Figures in Latin lookup 4 subtable" two
EndChar

StartChar: three.taboldstyle
Encoding: 314 -1 173
Width: 500
VWidth: 0
Flags: W
TeX: 478 -257
HStem: -257 37<28.1419 172.76> 135 38<108.373 226.421> 398 80<136.979 261.945>
VStem: 280 128<-70.6633 92.9922> 291 119<268.033 369.194>
LayerCount: 2
Fore
SplineSet
-30 -240 m 1xf0
 -7 -186 l 1
 42 -211 80 -220 125 -220 c 0
 177 -220 228 -153 256 -94 c 0
 274 -56 280 -36 280 6 c 0xf0
 280 89 242 135 174 135 c 0
 156 135 139 132 98 120 c 1
 92 126 l 1
 108 177 l 1
 116 174 121 173 137 173 c 0
 179 173 203 178 227 192 c 0
 267 216 291 259 291 307 c 0
 291 364 256 398 196 398 c 0
 140 398 112 372 90 330 c 1
 61 341 l 1
 97 432 l 1
 143 465 184 478 242 478 c 0
 346 478 410 426 410 343 c 0xe8
 410 305 396 272 368 242 c 0
 339 211 314 195 255 170 c 1
 254 166 l 1
 358 153 408 104 408 16 c 0
 408 -131 216 -257 123 -257 c 0
 59 -257 26 -254 -30 -240 c 1xf0
EndSplineSet
Validated: 1
AlternateSubs2: "'aalt' Access All Alternates lookup 0 subtable" three.oldstyle three
AlternateSubs2: "'aalt' Access All Alternates in Latin lookup 0 subtable" three.oldstyle three
Substitution2: "'pnum' Proportional Numbers in Latin lookup 5 subtable" three.oldstyle
Substitution2: "'lnum' Lining Figures in Latin lookup 4 subtable" three
EndChar

StartChar: four.taboldstyle
Encoding: 315 -1 174
Width: 500
VWidth: 0
Flags: W
TeX: 507 -261
HStem: 0 76<66 229 356 449>
LayerCount: 2
Fore
SplineSet
-17 0 m 1
 -12 38 l 1
 83 194 177 327 298 476 c 1
 344 480 374 488 420 507 c 1
 433 497 l 1
 356 76 l 1
 463 79 l 1
 467 77 l 1
 449 0 l 1
 342 0 l 1
 309 -223 l 1
 181 -261 l 1
 229 0 l 1
 -17 0 l 1
66 76 m 1
 244 76 l 1
 305 421 l 1
 200 287 133 191 66 76 c 1
EndSplineSet
Validated: 1
AlternateSubs2: "'aalt' Access All Alternates lookup 0 subtable" four.oldstyle four
AlternateSubs2: "'aalt' Access All Alternates in Latin lookup 0 subtable" four.oldstyle four
Substitution2: "'pnum' Proportional Numbers in Latin lookup 5 subtable" four.oldstyle
Substitution2: "'lnum' Lining Figures in Latin lookup 4 subtable" four
EndChar

StartChar: five.taboldstyle
Encoding: 316 -1 175
Width: 500
VWidth: 0
Flags: W
TeX: 475 -257
HStem: -257 37<38.1419 179.353> 162 55<138.438 250.469> 366 109<139 342.853> 366 102<139 400>
VStem: 293 128<-60.0638 117.262>
LayerCount: 2
Fore
SplineSet
-20 -240 m 1xe8
 3 -186 l 1
 52 -211 90 -220 135 -220 c 0
 187 -220 236 -151 264 -92 c 0
 282 -54 293 -5 293 39 c 0
 293 115 251 162 184 162 c 0
 140 162 112 147 77 102 c 1
 46 114 l 1
 110 467 l 1
 115 475 l 1xe8
 203 470 258 468 347 468 c 2
 440 468 l 1xd8
 446 459 l 1
 400 370 l 1
 241 366 l 1
 139 366 l 1
 96 166 l 1
 141 204 177 217 235 217 c 0
 350 217 421 151 421 44 c 0
 421 -103 290 -257 133 -257 c 0
 69 -257 36 -254 -20 -240 c 1xe8
EndSplineSet
Validated: 1
AlternateSubs2: "'aalt' Access All Alternates lookup 0 subtable" five.oldstyle five
AlternateSubs2: "'aalt' Access All Alternates in Latin lookup 0 subtable" five.oldstyle five
Substitution2: "'pnum' Proportional Numbers in Latin lookup 5 subtable" five.oldstyle
Substitution2: "'lnum' Lining Figures in Latin lookup 4 subtable" five
EndChar

StartChar: six.taboldstyle
Encoding: 317 -1 176
Width: 500
VWidth: 0
Flags: W
TeX: 681 -17
HStem: -17 46<188.853 296.776> 348 67<247.958 371> 631 52<314.892 442.199>
VStem: 39 120<81.6219 276.854> 351 125<154.272 319.587>
LayerCount: 2
Fore
SplineSet
39 206 m 0
 39 342 89 473 175 563 c 0
 248 639 335 683 415 683 c 0
 439 683 467 678 488 669 c 1
 466 600 l 1
 458 596 l 1
 433 620 406 631 373 631 c 0
 318 631 270 594 234 522 c 0
 210 474 195 425 176 334 c 1
 232 393 274 415 328 415 c 0
 414 415 476 350 476 260 c 0
 476 112 354 -17 214 -17 c 0
 101 -17 39 62 39 206 c 0
159 151 m 0
 159 71 188 29 244 29 c 0
 275 29 296 42 315 75 c 0
 336 110 351 177 351 234 c 0
 351 308 324 348 273 348 c 0
 202 348 159 273 159 151 c 0
EndSplineSet
Validated: 1
AlternateSubs2: "'aalt' Access All Alternates lookup 0 subtable" six.oldstyle six
AlternateSubs2: "'aalt' Access All Alternates in Latin lookup 0 subtable" six.oldstyle six
Substitution2: "'pnum' Proportional Numbers in Latin lookup 5 subtable" six.oldstyle
Substitution2: "'lnum' Lining Figures in Latin lookup 4 subtable" six
EndChar

StartChar: seven.taboldstyle
Encoding: 318 -1 177
Width: 500
VWidth: 0
Flags: W
TeX: 458 -219
HStem: 341 111<62 401>
LayerCount: 2
Fore
SplineSet
31 -206 m 1
 322 232 l 1
 401 341 l 1
 132 341 l 2
 107 341 85 339 43 334 c 1
 35 340 l 1
 43 377 49 404 56 449 c 1
 62 458 l 1
 246 452 l 1
 506 452 l 1
 506 413 l 1
 448 332 l 2
 339 180 218 -60 153 -219 c 1
 114 -216 105 -216 95 -216 c 0
 85 -216 83 -216 38 -219 c 1
 31 -206 l 1
EndSplineSet
Validated: 1
AlternateSubs2: "'aalt' Access All Alternates lookup 0 subtable" seven.oldstyle seven
AlternateSubs2: "'aalt' Access All Alternates in Latin lookup 0 subtable" seven.oldstyle seven
Substitution2: "'pnum' Proportional Numbers in Latin lookup 5 subtable" seven.oldstyle
Substitution2: "'lnum' Lining Figures in Latin lookup 4 subtable" seven
EndChar

